{
.appVersion = "1356";
classes = (
{
automatic = 1;

glyphs = (
{
color = 0;
glyphname = .notdef;
lastChange = "2021-07-19 11:24:41 +0000";
layers = (
{
layerId = "1C8B4FDB-B0E8-4411-8E26-068C67144FEF";
paths = (
{
closed = 1;
nodes = (
"436 0 LINE",
"444 9 LINE",
"444 573 LINE",
"436 582 LINE",
"49 582 LINE",
"40 573 LINE",
"40 9 LINE",
"49 0 LINE"
);
},
{
closed = 1;
nodes = (
"136 139 LINE",
"219 292 LINE",
"136 443 LINE",
"153 476 LINE",
"236 324 LINE",
"321 476 LINE",
"340 443 LINE",
"254 290 LINE",
"340 139 LINE",
"321 107 LINE",
"236 257 LINE",
"153 107 LINE"
);
},
{
closed = 1;
nodes = (
"56 566 LINE",
"430 566 LINE",
"430 16 LINE",
"56 16 LINE"
);
},
{
closed = 1;
nodes = (
"397 45 LINE",
"397 533 LINE",
"87 533 LINE",
"87 45 LINE"
);
}
);
width = 484;
}
);
note = .notdef;
},
{
color = 0;
glyphname = A;
lastChange = "2021-07-19 11:24:19 +0000";
layers = (
{
anchors = (
{
name = bottom;
position = "{196, 0}";
},
{
name = ogonek;
position = "{361, 10}";
},
{
name = top;
position = "{489, 545}";
}
);
background = {
paths = (
{
closed = 1;
nodes = (
"44 -11 LINE",
"44 -9 LINE",
"52 16 OFFCURVE",
"74 57 OFFCURVE",
"95 86 CURVE",
"124 98 OFFCURVE",
"186 111 OFFCURVE",
"278 115 CURVE",
"273 98 OFFCURVE",
"270 77 OFFCURVE",
"269 54 CURVE SMOOTH",
"269 29 OFFCURVE",
"273 11 OFFCURVE",
"282 1 CURVE SMOOTH",
"287 -4 OFFCURVE",
"293 -8 OFFCURVE",
"299 -7 CURVE SMOOTH",
"305 -6 LINE",
"307 -5 LINE",
"306 -3 LINE",
"305 4 OFFCURVE",
"304 9 OFFCURVE",
"304 14 CURVE SMOOTH",
"304 35 OFFCURVE",
"309 68 OFFCURVE",
"320 114 CURVE",
"335 115 OFFCURVE",
"355 108 OFFCURVE",
"355 105 CURVE",
"358 104 LINE",
"358 107 LINE SMOOTH",
"358 122 OFFCURVE",
"343 140 OFFCURVE",
"327 141 CURVE",
"338 188 OFFCURVE",
"354 236 OFFCURVE",
"373 286 CURVE SMOOTH",
"392 336 OFFCURVE",
"406 375 OFFCURVE",
"426 395 CURVE SMOOTH",
"427 396 LINE",
"426 397 LINE SMOOTH",
"422 401 OFFCURVE",
"416 410 OFFCURVE",
"405 421 CURVE SMOOTH",
"394 431 OFFCURVE",
"381 436 OFFCURVE",
"368 436 CURVE SMOOTH",
"347 436 OFFCURVE",
"315 416 OFFCURVE",
"273 375 CURVE SMOOTH",
"230 334 OFFCURVE",
"188 289 OFFCURVE",
"147 238 CURVE SMOOTH",
"105 187 OFFCURVE",
"75 149 OFFCURVE",
"56 122 CURVE",
"43 122 OFFCURVE",
"31 125 OFFCURVE",
"19 130 CURVE SMOOTH",
"17 131 OFFCURVE",
"14 132 OFFCURVE",
"11 132 CURVE SMOOTH",
"8 132 OFFCURVE",
"7 132 OFFCURVE",
"6 131 CURVE SMOOTH",
"-1 122 OFFCURVE",
"12 96 OFFCURVE",
"39 94 CURVE",
"32 87 OFFCURVE",
"26 78 OFFCURVE",
"22 69 CURVE",
"14 57 OFFCURVE",
"10 45 OFFCURVE",
"10 32 CURVE SMOOTH",
"10 8 OFFCURVE",
"21 -6 OFFCURVE",
"42 -11 CURVE"
);
},
{
closed = 1;
nodes = (
"130 142 OFFCURVE",
"147 165 OFFCURVE",
"170 195 CURVE SMOOTH",
"193 225 OFFCURVE",
"219 255 OFFCURVE",
"246 286 CURVE SMOOTH",
"313 362 OFFCURVE",
"363 406 OFFCURVE",
"378 403 CURVE SMOOTH",
"380 403 OFFCURVE",
"383 402 OFFCURVE",
"387 401 CURVE",
"347 333 OFFCURVE",
"314 247 OFFCURVE",
"287 144 CURVE",
"256 145 OFFCURVE",
"201 139 OFFCURVE",
"120 126 CURVE"
);
}
);
};
layerId = "1C8B4FDB-B0E8-4411-8E26-068C67144FEF";
paths = (
{
closed = 1;
nodes = (
"64 23 OFFCURVE",
"91 75 OFFCURVE",
"118 112 CURVE",
"149 124 OFFCURVE",
"224 144 OFFCURVE",
"353 149 CURVE",
"345 126 OFFCURVE",
"340 95 OFFCURVE",
"340 67 CURVE SMOOTH",
"340 26 OFFCURVE",
"351 -10 OFFCURVE",
"381 -3 CURVE",
"380 3 OFFCURVE",
"379 11 OFFCURVE",
"379 20 CURVE SMOOTH",
"379 62 OFFCURVE",
"393 126 OFFCURVE",
"399 148 CURVE",
"421 150 OFFCURVE",
"446 136 OFFCURVE",
"446 136 CURVE",
"446 154 OFFCURVE",
"426 176 OFFCURVE",
"406 176 CURVE",
"435 298 OFFCURVE",
"492 443 OFFCURVE",
"531 497 CURVE",
"531 497 OFFCURVE",
"500 545 OFFCURVE",
"461 545 CURVE SMOOTH",
"375 545 OFFCURVE",
"122 225 OFFCURVE",
"73 153 CURVE",
"55 153 OFFCURVE",
"37 156 OFFCURVE",
"24 162 CURVE SMOOTH",
"21 164 OFFCURVE",
"18 165 OFFCURVE",
"15 165 CURVE SMOOTH",
"11 165 OFFCURVE",
"9 162 OFFCURVE",
"9 158 CURVE SMOOTH",
"9 146 OFFCURVE",
"25 124 OFFCURVE",
"55 123 CURVE",
"40 107 OFFCURVE",
"16 71 OFFCURVE",
"16 42 CURVE SMOOTH",
"16 19 OFFCURVE",
"23 -3 OFFCURVE",
"54 -9 CURVE"
);
},
{
closed = 1;
nodes = (
"192 234 OFFCURVE",
"419 509 OFFCURVE",
"478 509 CURVE SMOOTH",
"482 509 OFFCURVE",
"486 507 OFFCURVE",
"488 504 CURVE",
"414 379 OFFCURVE",
"371 217 OFFCURVE",
"361 180 CURVE",
"319 181 OFFCURVE",
"212 167 OFFCURVE",
"146 156 CURVE"
);
}
);
width = 480;
}
);
note = A;
unicode = 0041;
},
{
color = 0;
glyphname = AE;
lastChange = "2021-07-19 11:24:20 +0000";
layers = (
{
anchors = (
{
name = bottom;
position = "{314, 0}";
},
{
name = top;
position = "{640, 538}";
}
);
layerId = "1C8B4FDB-B0E8-4411-8E26-068C67144FEF";
paths = (
{
closed = 1;
nodes = (
"64 23 OFFCURVE",
"91 75 OFFCURVE",
"118 112 CURVE",
"148 123 OFFCURVE",
"218 133 OFFCURVE",
"342 138 CURVE",
"331 109 OFFCURVE",
"326 90 OFFCURVE",
"326 65 CURVE SMOOTH",
"326 41 OFFCURVE",
"346 3 OFFCURVE",
"405 3 CURVE SMOOTH",
"437 3 OFFCURVE",
"550 32 OFFCURVE",
"601 32 CURVE SMOOTH",
"607 32 OFFCURVE",
"611 32 OFFCURVE",
"615 31 CURVE",
"615 63 OFFCURVE",
"582 65 OFFCURVE",
"547 65 CURVE SMOOTH",
"496 65 OFFCURVE",
"449 48 OFFCURVE",
"405 48 CURVE SMOOTH",
"394 48 OFFCURVE",
"387 54 OFFCURVE",
"387 67 CURVE SMOOTH",
"387 122 OFFCURVE",
"436 235 OFFCURVE",
"434 231 CURVE",
"597 231 LINE",
"599 236 OFFCURVE",
"600 240 OFFCURVE",
"600 244 CURVE SMOOTH",
"600 261 OFFCURVE",
"584 272 OFFCURVE",
"553 272 CURVE SMOOTH",
"508 272 OFFCURVE",
"469 262 OFFCURVE",
"448 258 CURVE",
"462 298 OFFCURVE",
"552 450 OFFCURVE",
"576 474 CURVE SMOOTH",
"591 487 OFFCURVE",
"615 493 OFFCURVE",
"643 496 CURVE SMOOTH",
"662 498 OFFCURVE",
"686 499 OFFCURVE",
"708 499 CURVE SMOOTH",
"736 499 OFFCURVE",
"761 497 OFFCURVE",
"772 495 CURVE",
"772 521 OFFCURVE",
"768 538 OFFCURVE",
"717 538 CURVE SMOOTH",
"689 538 OFFCURVE",
"615 538 OFFCURVE",
"552 530 CURVE",
"543 535 OFFCURVE",
"534 539 OFFCURVE",
"523 540 CURVE SMOOTH",
"437 541 OFFCURVE",
"122 225 OFFCURVE",
"73 153 CURVE",
"55 153 OFFCURVE",
"37 156 OFFCURVE",
"24 162 CURVE SMOOTH",
"21 164 OFFCURVE",
"18 165 OFFCURVE",
"15 165 CURVE SMOOTH",
"11 165 OFFCURVE",
"9 162 OFFCURVE",
"9 158 CURVE SMOOTH",
"9 146 OFFCURVE",
"25 124 OFFCURVE",
"55 123 CURVE",
"40 107 OFFCURVE",
"16 71 OFFCURVE",
"16 42 CURVE SMOOTH",
"16 19 OFFCURVE",
"23 -3 OFFCURVE",
"54 -9 CURVE"
);
},
{
closed = 1;
nodes = (
"192 234 OFFCURVE",
"453 498 OFFCURVE",
"528 498 CURVE SMOOTH",
"534 498 OFFCURVE",
"539 497 OFFCURVE",
"542 493 CURVE",
"463 398 OFFCURVE",
"404 287 OFFCURVE",
"355 180 CURVE",
"310 179 OFFCURVE",
"209 167 OFFCURVE",
"146 156 CURVE"
);
}
);
width = 628;
}
);
note = AE;
unicode = 00C6;
},
{
color = 0;
glyphname = B;
lastChange = "2021-07-26 16:58:15 +0000";
layers = (
{
layerId = "1C8B4FDB-B0E8-4411-8E26-068C67144FEF";
paths = (
{
closed = 1;
nodes = (
"152 -20 OFFCURVE",
"164 -20 OFFCURVE",
"173 -20 CURVE SMOOTH",
"254 -20 OFFCURVE",
"443 25 OFFCURVE",
"443 139 CURVE SMOOTH",
"443 206 OFFCURVE",
"365 235 OFFCURVE",
"286 236 CURVE",
"367 240 OFFCURVE",
"598 319 OFFCURVE",
"598 443 CURVE SMOOTH",
"598 499 OFFCURVE",
"564 546 OFFCURVE",
"475 546 CURVE SMOOTH",
"386 546 OFFCURVE",
"269 501 OFFCURVE",
"181 494 CURVE",
"177 485 OFFCURVE",
"174 477 OFFCURVE",
"174 471 CURVE SMOOTH",
"174 461 OFFCURVE",
"180 455 OFFCURVE",
"201 455 CURVE SMOOTH",
"232 455 OFFCURVE",
"261 464 OFFCURVE",
"263 462 CURVE",
"258 428 OFFCURVE",
"229 384 OFFCURVE",
"197 341 CURVE SMOOTH",
"141 266 OFFCURVE",
"37 105 OFFCURVE",
"37 48 CURVE SMOOTH",
"37 -14 OFFCURVE",
"94 -20 OFFCURVE",
"140 -20 CURVE SMOOTH"
);
},
{
closed = 1;
nodes = (
"99 2 OFFCURVE",
"85 14 OFFCURVE",
"85 29 CURVE SMOOTH",
"85 80 OFFCURVE",
"155 162 OFFCURVE",
"186 215 CURVE",
"197 216 OFFCURVE",
"217 217 OFFCURVE",
"241 217 CURVE SMOOTH",
"303 217 OFFCURVE",
"389 207 OFFCURVE",
"389 144 CURVE SMOOTH",
"389 85 OFFCURVE",
"259 2 OFFCURVE",
"168 2 CURVE SMOOTH"
);
},
{
closed = 1;
nodes = (
"223 279 OFFCURVE",
"295 381 OFFCURVE",
"295 441 CURVE SMOOTH",
"295 451 OFFCURVE",
"293 460 OFFCURVE",
"289 467 CURVE",
"352 477 OFFCURVE",
"419 496 OFFCURVE",
"480 496 CURVE SMOOTH",
"538 496 OFFCURVE",
"570 481 OFFCURVE",
"570 455 CURVE SMOOTH",
"570 358 OFFCURVE",
"309 246 OFFCURVE",
"200 238 CURVE"
);
}
);
width = 476;
}
);
note = B;
unicode = 0042;
},
{
color = 0;
glyphname = C;
lastChange = "2021-07-19 11:24:20 +0000";
layers = (
{
anchors = (
{
name = bottom;
position = "{175, -18}";
},
{
name = top;
position = "{447, 541}";
}
);
layerId = "1C8B4FDB-B0E8-4411-8E26-068C67144FEF";
paths = (
{
closed = 1;
nodes = (
"290 -20 OFFCURVE",
"433 56 OFFCURVE",
"433 160 CURVE SMOOTH",
"433 174 OFFCURVE",
"429 185 OFFCURVE",
"421 190 CURVE",
"378 80 OFFCURVE",
"297 3 OFFCURVE",
"209 3 CURVE SMOOTH",
"135 3 OFFCURVE",
"113 48 OFFCURVE",
"113 112 CURVE SMOOTH",
"113 255 OFFCURVE",
"248 516 OFFCURVE",
"424 516 CURVE SMOOTH",
"462 516 OFFCURVE",
"479 492 OFFCURVE",
"479 461 CURVE SMOOTH",
"479 447 OFFCURVE",
"476 431 OFFCURVE",
"469 415 CURVE SMOOTH",
"457 386 OFFCURVE",
"446 353 OFFCURVE",
"446 330 CURVE SMOOTH",
"446 310 OFFCURVE",
"453 297 OFFCURVE",
"474 297 CURVE",
"480 312 OFFCURVE",
"505 367 OFFCURVE",
"520 411 CURVE SMOOTH",
"524 424 OFFCURVE",
"526 436 OFFCURVE",
"526 449 CURVE SMOOTH",
"526 499 OFFCURVE",
"490 541 OFFCURVE",
"410 541 CURVE SMOOTH",
"230 541 OFFCURVE",
"50 310 OFFCURVE",
"50 132 CURVE SMOOTH",
"50 46 OFFCURVE",
"91 -20 OFFCURVE",
"202 -20 CURVE SMOOTH"
);
}
);
width = 469;
}
);
leftMetricsKey = O;
note = C;
unicode = 0043;
},
{
color = 0;
glyphname = D;
lastChange = "2021-07-26 16:58:15 +0000";
layers = (
{
anchors = (
{
name = bottom;
position = "{100, 0}";
},
{
name = center;
position = "{250, 440}";
},
{
name = top;
position = "{439, 537}";
}
);
layerId = "1C8B4FDB-B0E8-4411-8E26-068C67144FEF";
paths = (
{
closed = 1;
nodes = (
"168 -25 OFFCURVE",
"252 3 OFFCURVE",
"308 37 CURVE SMOOTH",
"443 118 OFFCURVE",
"571 297 OFFCURVE",
"571 425 CURVE SMOOTH",
"571 505 OFFCURVE",
"521 537 OFFCURVE",
"439 537 CURVE SMOOTH",
"363 537 OFFCURVE",
"293 510 OFFCURVE",
"221 497 CURVE SMOOTH",
"193 491 OFFCURVE",
"167 487 OFFCURVE",
"144 485 CURVE",
"144 474 OFFCURVE",
"137 448 OFFCURVE",
"175 448 CURVE SMOOTH",
"179 448 OFFCURVE",
"183 448 OFFCURVE",
"188 449 CURVE SMOOTH",
"201 450 OFFCURVE",
"219 454 OFFCURVE",
"233 456 CURVE",
"220 399 OFFCURVE",
"144 302 OFFCURVE",
"117 258 CURVE SMOOTH",
"59 162 OFFCURVE",
"11 104 OFFCURVE",
"11 47 CURVE SMOOTH",
"11 12 OFFCURVE",
"30 -1 OFFCURVE",
"47 -1 CURVE",
"57 -18 OFFCURVE",
"80 -25 OFFCURVE",
"109 -25 CURVE SMOOTH"
);
},
{
closed = 1;
nodes = (
"76 3 OFFCURVE",
"65 13 OFFCURVE",
"65 30 CURVE SMOOTH",
"65 37 OFFCURVE",
"66 44 OFFCURVE",
"69 52 CURVE SMOOTH",
"89 110 OFFCURVE",
"127 171 OFFCURVE",
"160 221 CURVE SMOOTH",
"188 266 OFFCURVE",
"274 389 OFFCURVE",
"274 445 CURVE SMOOTH",
"274 452 OFFCURVE",
"272 458 OFFCURVE",
"269 463 CURVE",
"333 474 OFFCURVE",
"436 492 OFFCURVE",
"479 492 CURVE SMOOTH",
"517 492 OFFCURVE",
"530 473 OFFCURVE",
"530 443 CURVE SMOOTH",
"530 375 OFFCURVE",
"441 241 OFFCURVE",
"389 174 CURVE SMOOTH",
"320 86 OFFCURVE",
"221 3 OFFCURVE",
"110 3 CURVE SMOOTH"
);
}
);
width = 499;
}
);
note = D;
unicode = 0044;
},
{
color = 0;
glyphname = Eth;
lastChange = "2021-07-19 11:24:20 +0000";
layers = (
{
layerId = "1C8B4FDB-B0E8-4411-8E26-068C67144FEF";
paths = (
{
closed = 1;
nodes = (
"331 -20 OFFCURVE",
"571 258 OFFCURVE",
"571 425 CURVE SMOOTH",
"571 505 OFFCURVE",
"521 537 OFFCURVE",
"439 537 CURVE SMOOTH",
"352 537 OFFCURVE",
"229 492 OFFCURVE",
"144 485 CURVE",
"144 474 OFFCURVE",
"137 448 OFFCURVE",
"175 448 CURVE SMOOTH",
"205 448 OFFCURVE",
"229 457 OFFCURVE",
"233 456 CURVE",
"228 421 OFFCURVE",
"199 378 OFFCURVE",
"167 336 CURVE SMOOTH",
"145 305 OFFCURVE",
"115 263 OFFCURVE",
"89 218 CURVE",
"67 217 OFFCURVE",
"46 216 OFFCURVE",
"28 216 CURVE SMOOTH",
"15 216 OFFCURVE",
"3 216 OFFCURVE",
"-5 218 CURVE",
"-5 198 OFFCURVE",
"-1 176 OFFCURVE",
"33 176 CURVE SMOOTH",
"43 176 OFFCURVE",
"55 176 OFFCURVE",
"68 177 CURVE",
"48 136 OFFCURVE",
"34 93 OFFCURVE",
"34 57 CURVE SMOOTH",
"34 4 OFFCURVE",
"90 -20 OFFCURVE",
"139 -20 CURVE SMOOTH"
);
},
{
closed = 1;
nodes = (
"105 -3 OFFCURVE",
"83 15 OFFCURVE",
"83 52 CURVE SMOOTH",
"83 92 OFFCURVE",
"110 141 OFFCURVE",
"138 184 CURVE",
"154 185 LINE SMOOTH",
"169 187 OFFCURVE",
"182 187 OFFCURVE",
"193 187 CURVE SMOOTH",
"233 187 OFFCURVE",
"252 179 OFFCURVE",
"256 173 CURVE",
"256 195 OFFCURVE",
"255 218 OFFCURVE",
"216 222 CURVE SMOOTH",
"203 223 OFFCURVE",
"184 223 OFFCURVE",
"161 222 CURVE",
"165 226 OFFCURVE",
"167 230 OFFCURVE",
"170 235 CURVE SMOOTH",
"194 276 OFFCURVE",
"274 389 OFFCURVE",
"274 444 CURVE SMOOTH",
"274 452 OFFCURVE",
"272 458 OFFCURVE",
"269 463 CURVE",
"331 472 OFFCURVE",
"428 492 OFFCURVE",
"479 492 CURVE SMOOTH",
"517 492 OFFCURVE",
"530 473 OFFCURVE",
"530 443 CURVE SMOOTH",
"530 375 OFFCURVE",
"441 241 OFFCURVE",
"389 174 CURVE SMOOTH",
"316 81 OFFCURVE",
"208 -3 OFFCURVE",
"147 -3 CURVE SMOOTH"
);
}
);
width = 499;
}
);
note = Eth;
unicode = 00D0;
},
{
color = 0;
glyphname = Dcroat;
lastChange = "2021-07-26 16:58:15 +0000";
layers = (
{
layerId = "1C8B4FDB-B0E8-4411-8E26-068C67144FEF";
paths = (
{
closed = 1;
nodes = (
"168 -25 OFFCURVE",
"252 3 OFFCURVE",
"308 37 CURVE SMOOTH",
"443 118 OFFCURVE",
"571 297 OFFCURVE",
"571 425 CURVE SMOOTH",
"571 505 OFFCURVE",
"521 537 OFFCURVE",
"439 537 CURVE SMOOTH",
"363 537 OFFCURVE",
"293 510 OFFCURVE",
"221 497 CURVE SMOOTH",
"193 491 OFFCURVE",
"167 487 OFFCURVE",
"144 485 CURVE",
"144 474 OFFCURVE",
"137 448 OFFCURVE",
"175 448 CURVE SMOOTH",
"179 448 OFFCURVE",
"183 448 OFFCURVE",
"188 449 CURVE SMOOTH",
"201 450 OFFCURVE",
"219 454 OFFCURVE",
"233 456 CURVE",
"220 399 OFFCURVE",
"144 302 OFFCURVE",
"117 258 CURVE SMOOTH",
"110 247 OFFCURVE",
"104 236 OFFCURVE",
"97 226 CURVE",
"68 226 OFFCURVE",
"40 226 OFFCURVE",
"25 229 CURVE",
"25 217 OFFCURVE",
"20 198 OFFCURVE",
"48 198 CURVE SMOOTH",
"55 198 OFFCURVE",
"67 198 OFFCURVE",
"80 199 CURVE",
"40 136 OFFCURVE",
"11 91 OFFCURVE",
"11 47 CURVE SMOOTH",
"11 12 OFFCURVE",
"30 -1 OFFCURVE",
"47 -1 CURVE",
"57 -18 OFFCURVE",
"80 -25 OFFCURVE",
"109 -25 CURVE SMOOTH"
);
},
{
closed = 1;
nodes = (
"76 3 OFFCURVE",
"65 13 OFFCURVE",
"65 30 CURVE SMOOTH",
"65 37 OFFCURVE",
"66 44 OFFCURVE",
"69 52 CURVE SMOOTH",
"86 102 OFFCURVE",
"117 155 OFFCURVE",
"147 201 CURVE",
"181 201 OFFCURVE",
"214 201 OFFCURVE",
"224 198 CURVE",
"224 211 OFFCURVE",
"226 229 OFFCURVE",
"202 229 CURVE SMOOTH",
"192 229 OFFCURVE",
"179 229 OFFCURVE",
"165 228 CURVE",
"197 278 OFFCURVE",
"274 391 OFFCURVE",
"274 445 CURVE SMOOTH",
"274 452 OFFCURVE",
"272 458 OFFCURVE",
"269 463 CURVE",
"333 474 OFFCURVE",
"436 492 OFFCURVE",
"479 492 CURVE SMOOTH",
"517 492 OFFCURVE",
"530 473 OFFCURVE",
"530 443 CURVE SMOOTH",
"530 375 OFFCURVE",
"441 241 OFFCURVE",
"389 174 CURVE SMOOTH",
"320 86 OFFCURVE",
"221 3 OFFCURVE",
"110 3 CURVE SMOOTH"
);
}
);
width = 499;
}
);
note = Dcroat;
unicode = 0110;
},
{
color = 0;
glyphname = E;
lastChange = "2021-07-19 11:24:20 +0000";
layers = (
{
anchors = (
{
name = bottom;
position = "{171, 19}";
},
{
name = ogonek;
position = "{281, 38}";
},
{
name = top;
position = "{385, 534}";
},
{
name = topleft;
position = "{20, 880}";
}
);
layerId = "1C8B4FDB-B0E8-4411-8E26-068C67144FEF";
paths = (
{
closed = 1;
nodes = (
"146 3 OFFCURVE",
"258 32 OFFCURVE",
"310 32 CURVE SMOOTH",
"315 32 OFFCURVE",
"320 32 OFFCURVE",
"324 31 CURVE",
"323 63 OFFCURVE",
"291 65 OFFCURVE",
"255 65 CURVE SMOOTH",
"204 65 OFFCURVE",
"157 48 OFFCURVE",
"114 48 CURVE SMOOTH",
"102 48 OFFCURVE",
"95 54 OFFCURVE",
"95 67 CURVE SMOOTH",
"95 122 OFFCURVE",
"159 235 OFFCURVE",
"157 231 CURVE",
"320 231 LINE",
"322 236 OFFCURVE",
"323 240 OFFCURVE",
"323 244 CURVE SMOOTH",
"323 261 OFFCURVE",
"307 272 OFFCURVE",
"276 272 CURVE SMOOTH",
"231 272 OFFCURVE",
"192 262 OFFCURVE",
"171 258 CURVE",
"185 298 OFFCURVE",
"285 445 OFFCURVE",
"309 470 CURVE SMOOTH",
"323 483 OFFCURVE",
"348 489 OFFCURVE",
"375 492 CURVE SMOOTH",
"393 494 OFFCURVE",
"416 494 OFFCURVE",
"437 494 CURVE SMOOTH",
"466 494 OFFCURVE",
"493 493 OFFCURVE",
"504 490 CURVE",
"504 517 OFFCURVE",
"500 534 OFFCURVE",
"450 534 CURVE SMOOTH",
"422 534 OFFCURVE",
"347 534 OFFCURVE",
"282 525 CURVE SMOOTH",
"253 521 OFFCURVE",
"243 514 OFFCURVE",
"243 507 CURVE SMOOTH",
"243 495 OFFCURVE",
"263 485 OFFCURVE",
"280 485 CURVE",
"263 471 OFFCURVE",
"190 389 OFFCURVE",
"128 294 CURVE SMOOTH",
"77 216 OFFCURVE",
"34 131 OFFCURVE",
"34 65 CURVE SMOOTH",
"34 41 OFFCURVE",
"54 3 OFFCURVE",
"113 3 CURVE SMOOTH"
);
}
);
width = 359;
}
);
note = E;
unicode = 0045;
},
{
color = 0;
glyphname = F;
lastChange = "2021-07-19 11:24:20 +0000";
layers = (
{
layerId = "1C8B4FDB-B0E8-4411-8E26-068C67144FEF";
paths = (
{
closed = 1;
nodes = (
"88 34 OFFCURVE",
"98 80 OFFCURVE",
"110 119 CURVE SMOOTH",
"125 171 OFFCURVE",
"144 211 OFFCURVE",
"151 224 CURVE",
"173 229 OFFCURVE",
"330 235 OFFCURVE",
"352 235 CURVE",
"362 258 OFFCURVE",
"329 265 OFFCURVE",
"286 265 CURVE SMOOTH",
"240 265 OFFCURVE",
"184 257 OFFCURVE",
"162 253 CURVE",
"171 277 OFFCURVE",
"212 338 OFFCURVE",
"248 392 CURVE SMOOTH",
"310 485 OFFCURVE",
"346 487 OFFCURVE",
"407 492 CURVE SMOOTH",
"425 494 OFFCURVE",
"448 494 OFFCURVE",
"469 494 CURVE SMOOTH",
"498 494 OFFCURVE",
"526 493 OFFCURVE",
"536 490 CURVE",
"536 517 OFFCURVE",
"532 534 OFFCURVE",
"482 534 CURVE SMOOTH",
"453 534 OFFCURVE",
"357 534 OFFCURVE",
"281 524 CURVE SMOOTH",
"243 519 OFFCURVE",
"218 512 OFFCURVE",
"218 500 CURVE SMOOTH",
"218 492 OFFCURVE",
"235 485 OFFCURVE",
"280 485 CURVE",
"251 459 OFFCURVE",
"34 193 OFFCURVE",
"34 47 CURVE SMOOTH",
"34 8 OFFCURVE",
"51 -12 OFFCURVE",
"85 -12 CURVE"
);
}
);
width = 366;
}
);
note = F;
unicode = 0046;
},
{
color = 0;
glyphname = G;
lastChange = "2021-07-19 11:24:20 +0000";
layers = (
{
anchors = (
{
name = bottom;
position = "{197, -15}";
},
{
name = top;
position = "{449, 541}";
}
);
layerId = "1C8B4FDB-B0E8-4411-8E26-068C67144FEF";
paths = (
{
closed = 1;
nodes = (
"290 -20 OFFCURVE",
"435 49 OFFCURVE",
"435 164 CURVE SMOOTH",
"435 171 OFFCURVE",
"435 176 OFFCURVE",
"433 181 CURVE",
"467 187 OFFCURVE",
"489 194 OFFCURVE",
"508 194 CURVE SMOOTH",
"514 194 OFFCURVE",
"521 193 OFFCURVE",
"527 191 CURVE",
"523 217 OFFCURVE",
"502 229 OFFCURVE",
"466 229 CURVE SMOOTH",
"455 229 OFFCURVE",
"353 212 OFFCURVE",
"305 207 CURVE SMOOTH",
"289 205 OFFCURVE",
"274 205 OFFCURVE",
"262 205 CURVE SMOOTH",
"244 205 OFFCURVE",
"232 206 OFFCURVE",
"232 206 CURVE",
"233 195 OFFCURVE",
"238 188 OFFCURVE",
"250 182 CURVE SMOOTH",
"267 174 OFFCURVE",
"294 171 OFFCURVE",
"322 171 CURVE SMOOTH",
"347 171 OFFCURVE",
"373 173 OFFCURVE",
"396 176 CURVE",
"394 150 OFFCURVE",
"380 115 OFFCURVE",
"362 93 CURVE SMOOTH",
"317 36 OFFCURVE",
"266 2 OFFCURVE",
"207 2 CURVE SMOOTH",
"133 2 OFFCURVE",
"113 48 OFFCURVE",
"113 112 CURVE SMOOTH",
"113 255 OFFCURVE",
"253 517 OFFCURVE",
"429 517 CURVE SMOOTH",
"465 517 OFFCURVE",
"481 495 OFFCURVE",
"481 465 CURVE SMOOTH",
"481 450 OFFCURVE",
"477 432 OFFCURVE",
"469 415 CURVE SMOOTH",
"457 386 OFFCURVE",
"446 353 OFFCURVE",
"446 330 CURVE SMOOTH",
"446 310 OFFCURVE",
"453 297 OFFCURVE",
"474 297 CURVE",
"480 312 OFFCURVE",
"505 367 OFFCURVE",
"520 411 CURVE SMOOTH",
"524 424 OFFCURVE",
"526 436 OFFCURVE",
"526 449 CURVE SMOOTH",
"526 499 OFFCURVE",
"490 541 OFFCURVE",
"410 541 CURVE SMOOTH",
"230 541 OFFCURVE",
"50 310 OFFCURVE",
"50 132 CURVE SMOOTH",
"50 46 OFFCURVE",
"91 -20 OFFCURVE",
"202 -20 CURVE SMOOTH"
);
}
);
width = 508;
}
);
note = G;
unicode = 0047;
},
{
color = 0;
glyphname = H;
lastChange = "2021-07-19 11:24:20 +0000";
layers = (
{
anchors = (
{
name = bottom;
position = "{137, 0}";
},
{
name = center;
position = "{217, 440}";
},
{
name = top;
position = "{395, 548}";
},
{
name = topleft;
position = "{20, 880}";
}
);
layerId = "1C8B4FDB-B0E8-4411-8E26-068C67144FEF";
paths = (
{
closed = 1;
nodes = (
"48 7 OFFCURVE",
"67 51 OFFCURVE",
"92 99 CURVE SMOOTH",
"106 126 OFFCURVE",
"121 154 OFFCURVE",
"136 180 CURVE",
"178 185 OFFCURVE",
"248 193 OFFCURVE",
"330 197 CURVE",
"327 193 OFFCURVE",
"324 188 OFFCURVE",
"322 184 CURVE SMOOTH",
"299 147 OFFCURVE",
"257 95 OFFCURVE",
"257 53 CURVE SMOOTH",
"257 14 OFFCURVE",
"267 -1 OFFCURVE",
"288 -12 CURVE",
"291 7 OFFCURVE",
"310 51 OFFCURVE",
"335 99 CURVE SMOOTH",
"352 132 OFFCURVE",
"372 167 OFFCURVE",
"390 197 CURVE",
"415 195 OFFCURVE",
"440 192 OFFCURVE",
"446 186 CURVE",
"446 203 OFFCURVE",
"440 223 OFFCURVE",
"409 229 CURVE",
"413 235 LINE SMOOTH",
"447 286 OFFCURVE",
"537 442 OFFCURVE",
"538 484 CURVE SMOOTH",
"539 501 OFFCURVE",
"543 543 OFFCURVE",
"509 543 CURVE",
"488 454 OFFCURVE",
"416 337 OFFCURVE",
"349 229 CURVE",
"297 226 OFFCURVE",
"215 220 OFFCURVE",
"159 218 CURVE",
"170 235 LINE SMOOTH",
"203 286 OFFCURVE",
"293 442 OFFCURVE",
"295 484 CURVE SMOOTH",
"296 501 OFFCURVE",
"300 543 OFFCURVE",
"266 543 CURVE",
"244 451 OFFCURVE",
"169 331 OFFCURVE",
"100 218 CURVE",
"74 219 OFFCURVE",
"50 222 OFFCURVE",
"38 226 CURVE",
"35 216 OFFCURVE",
"44 185 OFFCURVE",
"74 177 CURVE",
"52 141 OFFCURVE",
"14 97 OFFCURVE",
"14 53 CURVE SMOOTH",
"14 14 OFFCURVE",
"24 -1 OFFCURVE",
"44 -12 CURVE"
);
}
);
width = 434;
}
);
note = H;
unicode = 0048;
},
{
color = 0;
glyphname = Hbar;
lastChange = "2021-07-19 11:24:20 +0000";
layers = (
{
layerId = "1C8B4FDB-B0E8-4411-8E26-068C67144FEF";
paths = (
{
closed = 1;
nodes = (
"35 7 OFFCURVE",
"54 51 OFFCURVE",
"79 99 CURVE SMOOTH",
"93 126 OFFCURVE",
"108 154 OFFCURVE",
"123 180 CURVE",
"165 185 OFFCURVE",
"235 193 OFFCURVE",
"317 197 CURVE",
"309 184 LINE SMOOTH",
"286 147 OFFCURVE",
"244 95 OFFCURVE",
"244 53 CURVE SMOOTH",
"244 14 OFFCURVE",
"254 -1 OFFCURVE",
"275 -12 CURVE",
"278 7 OFFCURVE",
"297 51 OFFCURVE",
"322 99 CURVE SMOOTH",
"339 132 OFFCURVE",
"359 167 OFFCURVE",
"377 197 CURVE",
"402 195 OFFCURVE",
"427 192 OFFCURVE",
"433 186 CURVE",
"433 203 OFFCURVE",
"427 223 OFFCURVE",
"396 229 CURVE",
"400 235 LINE SMOOTH",
"416 260 OFFCURVE",
"447 310 OFFCURVE",
"473 360 CURVE",
"495 360 OFFCURVE",
"513 359 OFFCURVE",
"522 358 CURVE",
"522 368 OFFCURVE",
"526 382 OFFCURVE",
"485 384 CURVE",
"507 427 OFFCURVE",
"524 466 OFFCURVE",
"525 484 CURVE SMOOTH",
"526 501 OFFCURVE",
"530 543 OFFCURVE",
"496 543 CURVE",
"485 496 OFFCURVE",
"459 441 OFFCURVE",
"428 384 CURVE",
"372 383 OFFCURVE",
"303 381 OFFCURVE",
"240 381 CURVE",
"263 425 OFFCURVE",
"281 465 OFFCURVE",
"282 484 CURVE SMOOTH",
"283 501 OFFCURVE",
"287 543 OFFCURVE",
"253 543 CURVE",
"241 495 OFFCURVE",
"215 439 OFFCURVE",
"183 381 CURVE",
"153 381 OFFCURVE",
"125 382 OFFCURVE",
"107 384 CURVE",
"107 374 OFFCURVE",
"96 358 OFFCURVE",
"155 358 CURVE SMOOTH",
"171 358 LINE",
"144 311 OFFCURVE",
"115 264 OFFCURVE",
"87 218 CURVE",
"61 219 OFFCURVE",
"37 222 OFFCURVE",
"25 226 CURVE",
"22 216 OFFCURVE",
"31 185 OFFCURVE",
"61 177 CURVE",
"39 141 OFFCURVE",
"1 97 OFFCURVE",
"1 53 CURVE SMOOTH",
"1 14 OFFCURVE",
"11 -1 OFFCURVE",
"31 -12 CURVE"
);
},
{
closed = 1;
nodes = (
"157 235 LINE SMOOTH",
"173 260 OFFCURVE",
"202 309 OFFCURVE",
"229 358 CURVE",
"286 359 OFFCURVE",
"355 360 OFFCURVE",
"415 360 CURVE",
"390 316 OFFCURVE",
"363 272 OFFCURVE",
"336 229 CURVE",
"284 226 OFFCURVE",
"202 220 OFFCURVE",
"146 218 CURVE"
);
}
);
width = 430;
}
);
note = Hbar;
unicode = 0126;
},
{
color = 0;
glyphname = I;
lastChange = "2021-07-19 11:24:20 +0000";
layers = (
{
anchors = (
{
name = bottom;
position = "{16, 0}";
},
{
name = ogonek;
position = "{31, 10}";
},
{
name = top;
position = "{302, 543}";
},
{
name = topleft;
position = "{20, 880}";
}
);
layerId = "1C8B4FDB-B0E8-4411-8E26-068C67144FEF";
paths = (
{
closed = 1;
nodes = (
"49 7 OFFCURVE",
"68 51 OFFCURVE",
"94 99 CURVE SMOOTH",
"118 146 OFFCURVE",
"147 197 OFFCURVE",
"172 235 CURVE SMOOTH",
"204 286 OFFCURVE",
"295 442 OFFCURVE",
"297 484 CURVE SMOOTH",
"298 501 OFFCURVE",
"302 543 OFFCURVE",
"268 543 CURVE",
"244 442 OFFCURVE",
"155 307 OFFCURVE",
"80 184 CURVE SMOOTH",
"58 147 OFFCURVE",
"15 95 OFFCURVE",
"15 53 CURVE SMOOTH",
"15 14 OFFCURVE",
"26 -1 OFFCURVE",
"46 -12 CURVE"
);
}
);
width = 154;
}
);
note = I;
unicode = 0049;
},
{
color = 0;
glyphname = IJ;
lastChange = "2021-07-19 11:24:20 +0000";
layers = (
{
layerId = "1C8B4FDB-B0E8-4411-8E26-068C67144FEF";
paths = (
{
closed = 1;
nodes = (
"397 -34 OFFCURVE",
"470 114 OFFCURVE",
"514 227 CURVE SMOOTH",
"560 344 OFFCURVE",
"588 411 OFFCURVE",
"588 460 CURVE SMOOTH",
"588 489 OFFCURVE",
"584 515 OFFCURVE",
"565 535 CURVE",
"554 491 OFFCURVE",
"488 299 OFFCURVE",
"453 223 CURVE SMOOTH",
"392 89 OFFCURVE",
"334 -16 OFFCURVE",
"258 -16 CURVE SMOOTH",
"213 -16 OFFCURVE",
"201 35 OFFCURVE",
"201 68 CURVE SMOOTH",
"201 93 OFFCURVE",
"213 136 OFFCURVE",
"230 168 CURVE",
"167 168 OFFCURVE",
"158 97 OFFCURVE",
"158 66 CURVE SMOOTH",
"158 3 OFFCURVE",
"203 -34 OFFCURVE",
"251 -34 CURVE SMOOTH"
);
},
{
closed = 1;
nodes = (
"60 7 OFFCURVE",
"79 51 OFFCURVE",
"105 99 CURVE SMOOTH",
"129 146 OFFCURVE",
"158 197 OFFCURVE",
"183 235 CURVE SMOOTH",
"215 286 OFFCURVE",
"306 442 OFFCURVE",
"308 484 CURVE SMOOTH",
"309 501 OFFCURVE",
"313 543 OFFCURVE",
"279 543 CURVE",
"255 442 OFFCURVE",
"166 307 OFFCURVE",
"91 184 CURVE SMOOTH",
"69 147 OFFCURVE",
"26 95 OFFCURVE",
"26 53 CURVE SMOOTH",
"26 14 OFFCURVE",
"37 -1 OFFCURVE",
"57 -12 CURVE"
);
}
);
width = 570;
}
);
note = IJ;
unicode = 0132;
},
{
color = 0;
glyphname = J;
lastChange = "2021-07-19 11:24:20 +0000";
layers = (
{
anchors = (
{
name = bottom;
position = "{82, 0}";
},
{
name = top;
position = "{433, 558}";
}
);
layerId = "1C8B4FDB-B0E8-4411-8E26-068C67144FEF";
paths = (
{
closed = 1;
nodes = (
"246 -12 OFFCURVE",
"319 136 OFFCURVE",
"363 249 CURVE SMOOTH",
"409 366 OFFCURVE",
"437 433 OFFCURVE",
"437 482 CURVE SMOOTH",
"437 511 OFFCURVE",
"433 537 OFFCURVE",
"414 557 CURVE",
"403 513 OFFCURVE",
"337 321 OFFCURVE",
"302 245 CURVE SMOOTH",
"241 111 OFFCURVE",
"183 6 OFFCURVE",
"107 6 CURVE SMOOTH",
"62 6 OFFCURVE",
"50 57 OFFCURVE",
"50 90 CURVE SMOOTH",
"50 115 OFFCURVE",
"62 158 OFFCURVE",
"79 190 CURVE",
"16 190 OFFCURVE",
"7 119 OFFCURVE",
"7 88 CURVE SMOOTH",
"7 25 OFFCURVE",
"52 -12 OFFCURVE",
"100 -12 CURVE SMOOTH"
);
}
);
width = 310;
}
);
note = J;
unicode = 004A;
},
{
color = 0;
glyphname = K;
lastChange = "2021-07-19 11:24:20 +0000";
layers = (
{
layerId = "1C8B4FDB-B0E8-4411-8E26-068C67144FEF";
paths = (
{
closed = 1;
nodes = (
"59 7 OFFCURVE",
"78 51 OFFCURVE",
"103 99 CURVE SMOOTH",
"116 124 OFFCURVE",
"129 150 OFFCURVE",
"144 174 CURVE",
"175 150 OFFCURVE",
"244 63 OFFCURVE",
"278 -9 CURVE",
"291 -9 OFFCURVE",
"298 6 OFFCURVE",
"298 30 CURVE SMOOTH",
"298 93 OFFCURVE",
"219 162 OFFCURVE",
"184 207 CURVE",
"238 246 OFFCURVE",
"440 378 OFFCURVE",
"517 483 CURVE SMOOTH",
"531 502 OFFCURVE",
"547 532 OFFCURVE",
"547 549 CURVE SMOOTH",
"547 556 OFFCURVE",
"544 561 OFFCURVE",
"536 561 CURVE",
"508 533 OFFCURVE",
"269 291 OFFCURVE",
"184 240 CURVE",
"219 294 OFFCURVE",
"308 445 OFFCURVE",
"310 485 CURVE SMOOTH",
"310 503 OFFCURVE",
"315 545 OFFCURVE",
"281 545 CURVE",
"257 444 OFFCURVE",
"164 307 OFFCURVE",
"89 184 CURVE SMOOTH",
"67 147 OFFCURVE",
"25 98 OFFCURVE",
"25 53 CURVE SMOOTH",
"25 12 OFFCURVE",
"35 -1 OFFCURVE",
"55 -12 CURVE"
);
}
);
width = 291;
}
);
note = K;
unicode = 004B;
},
{
color = 0;
glyphname = L;
lastChange = "2021-07-19 11:24:20 +0000";
layers = (
{
anchors = (
{
name = bottom;
position = "{169, 0}";
},
{
name = center;
position = "{169, 440}";
},
{
name = top;
position = "{272, 545}";
},
{
name = topright;
position = "{351, 586}";
}
);
layerId = "1C8B4FDB-B0E8-4411-8E26-068C67144FEF";
paths = (
{
closed = 1;
nodes = (
"146 3 OFFCURVE",
"258 32 OFFCURVE",
"310 32 CURVE SMOOTH",
"315 32 OFFCURVE",
"320 32 OFFCURVE",
"324 31 CURVE",
"323 63 OFFCURVE",
"291 65 OFFCURVE",
"255 65 CURVE SMOOTH",
"207 65 OFFCURVE",
"161 49 OFFCURVE",
"116 49 CURVE SMOOTH",
"100 49 OFFCURVE",
"89 57 OFFCURVE",
"89 74 CURVE SMOOTH",
"89 113 OFFCURVE",
"130 182 OFFCURVE",
"147 214 CURVE SMOOTH",
"178 271 OFFCURVE",
"219 336 OFFCURVE",
"248 393 CURVE SMOOTH",
"269 434 OFFCURVE",
"284 471 OFFCURVE",
"284 493 CURVE SMOOTH",
"284 514 OFFCURVE",
"271 547 OFFCURVE",
"250 547 CURVE SMOOTH",
"247 547 OFFCURVE",
"244 546 OFFCURVE",
"241 545 CURVE",
"241 487 OFFCURVE",
"178 374 OFFCURVE",
"128 294 CURVE SMOOTH",
"79 215 OFFCURVE",
"34 131 OFFCURVE",
"34 65 CURVE SMOOTH",
"34 41 OFFCURVE",
"54 3 OFFCURVE",
"113 3 CURVE SMOOTH"
);
}
);
width = 338;
}
);
note = L;
unicode = 004C;
},
{
color = 0;
glyphname = Lslash;
lastChange = "2021-07-19 11:24:20 +0000";
layers = (
{
layerId = "1C8B4FDB-B0E8-4411-8E26-068C67144FEF";
paths = (
{
closed = 1;
nodes = (
"146 3 OFFCURVE",
"258 32 OFFCURVE",
"310 32 CURVE SMOOTH",
"315 32 OFFCURVE",
"320 32 OFFCURVE",
"324 31 CURVE",
"323 63 OFFCURVE",
"291 65 OFFCURVE",
"255 65 CURVE SMOOTH",
"207 65 OFFCURVE",
"161 49 OFFCURVE",
"116 49 CURVE SMOOTH",
"100 49 OFFCURVE",
"89 57 OFFCURVE",
"89 74 CURVE SMOOTH",
"89 105 OFFCURVE",
"116 156 OFFCURVE",
"134 191 CURVE",
"146 195 OFFCURVE",
"155 200 OFFCURVE",
"159 201 CURVE SMOOTH",
"189 213 OFFCURVE",
"210 216 OFFCURVE",
"223 216 CURVE SMOOTH",
"233 216 OFFCURVE",
"238 215 OFFCURVE",
"241 212 CURVE",
"237 228 OFFCURVE",
"235 248 OFFCURVE",
"210 248 CURVE SMOOTH",
"207 248 OFFCURVE",
"204 247 OFFCURVE",
"201 247 CURVE SMOOTH",
"193 246 OFFCURVE",
"177 241 OFFCURVE",
"158 235 CURVE",
"186 284 OFFCURVE",
"216 332 OFFCURVE",
"241 382 CURVE SMOOTH",
"262 423 OFFCURVE",
"277 461 OFFCURVE",
"277 483 CURVE SMOOTH",
"277 504 OFFCURVE",
"264 537 OFFCURVE",
"244 537 CURVE SMOOTH",
"241 537 OFFCURVE",
"238 536 OFFCURVE",
"235 535 CURVE",
"234 477 OFFCURVE",
"178 374 OFFCURVE",
"128 294 CURVE SMOOTH",
"110 266 OFFCURVE",
"93 237 OFFCURVE",
"79 208 CURVE",
"44 197 OFFCURVE",
"11 188 OFFCURVE",
"-4 187 CURVE",
"-1 171 OFFCURVE",
"3 155 OFFCURVE",
"21 155 CURVE SMOOTH",
"24 155 OFFCURVE",
"27 155 OFFCURVE",
"31 156 CURVE SMOOTH",
"58 164 LINE",
"43 128 OFFCURVE",
"34 95 OFFCURVE",
"34 65 CURVE SMOOTH",
"34 41 OFFCURVE",
"54 3 OFFCURVE",
"113 3 CURVE SMOOTH"
);
}
);
width = 338;
}
);
note = Lslash;
unicode = 0141;
},
{
color = 0;
glyphname = M;
lastChange = "2021-07-19 11:24:20 +0000";
layers = (
{
layerId = "1C8B4FDB-B0E8-4411-8E26-068C67144FEF";
paths = (
{
closed = 1;
nodes = (
"42 7 OFFCURVE",
"61 51 OFFCURVE",
"87 99 CURVE SMOOTH",
"111 146 OFFCURVE",
"140 197 OFFCURVE",
"165 235 CURVE SMOOTH",
"189 273 OFFCURVE",
"258 384 OFFCURVE",
"282 453 CURVE",
"269 377 OFFCURVE",
"238 237 OFFCURVE",
"224 152 CURVE SMOOTH",
"221 134 OFFCURVE",
"218 110 OFFCURVE",
"218 87 CURVE SMOOTH",
"218 49 OFFCURVE",
"227 15 OFFCURVE",
"261 15 CURVE",
"261 32 OFFCURVE",
"264 54 OFFCURVE",
"278 82 CURVE SMOOTH",
"303 130 OFFCURVE",
"355 195 OFFCURVE",
"413 274 CURVE SMOOTH",
"432 299 OFFCURVE",
"560 474 OFFCURVE",
"560 474 CURVE",
"560 398 OFFCURVE",
"382 172 OFFCURVE",
"382 65 CURVE SMOOTH",
"382 33 OFFCURVE",
"394 6 OFFCURVE",
"422 -9 CURVE",
"423 3 OFFCURVE",
"424 25 OFFCURVE",
"433 53 CURVE SMOOTH",
"449 99 OFFCURVE",
"466 141 OFFCURVE",
"482 181 CURVE SMOOTH",
"519 272 OFFCURVE",
"567 360 OFFCURVE",
"609 445 CURVE SMOOTH",
"634 493 OFFCURVE",
"634 501 OFFCURVE",
"634 507 CURVE SMOOTH",
"634 533 OFFCURVE",
"602 547 OFFCURVE",
"578 547 CURVE",
"566 525 OFFCURVE",
"359 246 OFFCURVE",
"265 122 CURVE",
"272 157 OFFCURVE",
"280 210 OFFCURVE",
"290 265 CURVE SMOOTH",
"303 342 OFFCURVE",
"332 430 OFFCURVE",
"332 481 CURVE SMOOTH",
"332 486 OFFCURVE",
"331 490 OFFCURVE",
"331 494 CURVE SMOOTH",
"328 517 OFFCURVE",
"296 546 OFFCURVE",
"272 546 CURVE SMOOTH",
"269 546 OFFCURVE",
"266 546 OFFCURVE",
"264 545 CURVE",
"241 444 OFFCURVE",
"148 307 OFFCURVE",
"73 184 CURVE SMOOTH",
"51 147 OFFCURVE",
"8 95 OFFCURVE",
"8 53 CURVE SMOOTH",
"8 14 OFFCURVE",
"19 -1 OFFCURVE",
"39 -12 CURVE"
);
}
);
width = 542;
}
);
note = M;
unicode = 004D;
},
{
color = 0;
glyphname = N;
lastChange = "2021-07-19 11:24:20 +0000";
layers = (
{
anchors = (
{
name = bottom;
position = "{134, 0}";
},
{
name = top;
position = "{384, 545}";
}
);
layerId = "1C8B4FDB-B0E8-4411-8E26-068C67144FEF";
paths = (
{
closed = 1;
nodes = (
"37 25 OFFCURVE",
"108 158 OFFCURVE",
"157 235 CURVE SMOOTH",
"180 272 OFFCURVE",
"262 416 OFFCURVE",
"268 443 CURVE",
"255 367 OFFCURVE",
"230 237 OFFCURVE",
"217 152 CURVE SMOOTH",
"213 130 OFFCURVE",
"212 110 OFFCURVE",
"212 92 CURVE SMOOTH",
"212 30 OFFCURVE",
"232 -8 OFFCURVE",
"268 -10 CURVE",
"268 -11 OFFCURVE",
"269 -11 OFFCURVE",
"269 -12 CURVE SMOOTH",
"293 89 OFFCURVE",
"382 222 OFFCURVE",
"457 345 CURVE SMOOTH",
"479 382 OFFCURVE",
"522 433 OFFCURVE",
"522 476 CURVE SMOOTH",
"522 515 OFFCURVE",
"512 530 OFFCURVE",
"491 541 CURVE",
"488 522 OFFCURVE",
"469 478 OFFCURVE",
"444 429 CURVE SMOOTH",
"419 382 OFFCURVE",
"390 331 OFFCURVE",
"365 293 CURVE SMOOTH",
"342 256 OFFCURVE",
"278 156 OFFCURVE",
"254 87 CURVE",
"256 150 OFFCURVE",
"273 208 OFFCURVE",
"282 265 CURVE SMOOTH",
"297 349 OFFCURVE",
"322 436 OFFCURVE",
"317 484 CURVE",
"311 506 OFFCURVE",
"283 537 OFFCURVE",
"259 537 CURVE SMOOTH",
"256 537 OFFCURVE",
"253 536 OFFCURVE",
"250 535 CURVE",
"226 433 OFFCURVE",
"140 307 OFFCURVE",
"65 184 CURVE SMOOTH",
"41 145 OFFCURVE",
"5 81 OFFCURVE",
"5 35 CURVE SMOOTH",
"5 15 OFFCURVE",
"13 -2 OFFCURVE",
"31 -12 CURVE"
);
}
);
width = 430;
}
);
note = N;
unicode = 004E;
},
{
color = 0;
glyphname = Eng;
lastChange = "2021-07-19 11:24:20 +0000";
layers = (
{
layerId = "1C8B4FDB-B0E8-4411-8E26-068C67144FEF";
paths = (
{
closed = 1;
nodes = (
"150 -230 OFFCURVE",
"210 -112 OFFCURVE",
"247 -51 CURVE SMOOTH",
"338 101 OFFCURVE",
"421 272 OFFCURVE",
"457 331 CURVE SMOOTH",
"479 368 OFFCURVE",
"522 433 OFFCURVE",
"522 476 CURVE SMOOTH",
"522 515 OFFCURVE",
"512 530 OFFCURVE",
"491 541 CURVE",
"488 522 OFFCURVE",
"469 478 OFFCURVE",
"444 429 CURVE SMOOTH",
"322 199 OFFCURVE",
"268 122 OFFCURVE",
"254 50 CURVE",
"256 113 OFFCURVE",
"273 208 OFFCURVE",
"282 265 CURVE SMOOTH",
"297 349 OFFCURVE",
"322 436 OFFCURVE",
"317 484 CURVE",
"311 506 OFFCURVE",
"283 537 OFFCURVE",
"259 537 CURVE SMOOTH",
"256 537 OFFCURVE",
"253 536 OFFCURVE",
"250 535 CURVE",
"226 433 OFFCURVE",
"140 307 OFFCURVE",
"65 184 CURVE SMOOTH",
"41 145 OFFCURVE",
"5 81 OFFCURVE",
"5 35 CURVE SMOOTH",
"5 15 OFFCURVE",
"13 -2 OFFCURVE",
"31 -12 CURVE",
"37 25 OFFCURVE",
"108 158 OFFCURVE",
"157 235 CURVE SMOOTH",
"180 272 OFFCURVE",
"262 416 OFFCURVE",
"268 443 CURVE",
"255 367 OFFCURVE",
"230 237 OFFCURVE",
"217 152 CURVE SMOOTH",
"211 116 OFFCURVE",
"208 84 OFFCURVE",
"208 56 CURVE SMOOTH",
"208 35 OFFCURVE",
"210 17 OFFCURVE",
"215 4 CURVE",
"170 -86 LINE",
"130 -157 OFFCURVE",
"92 -212 OFFCURVE",
"51 -212 CURVE SMOOTH",
"27 -212 OFFCURVE",
"19 -189 OFFCURVE",
"19 -171 CURVE SMOOTH",
"19 -167 OFFCURVE",
"19 -163 OFFCURVE",
"20 -160 CURVE SMOOTH",
"22 -146 OFFCURVE",
"32 -122 OFFCURVE",
"43 -104 CURVE",
"8 -100 OFFCURVE",
"-7 -140 OFFCURVE",
"-9 -158 CURVE SMOOTH",
"-13 -194 OFFCURVE",
"15 -230 OFFCURVE",
"41 -230 CURVE SMOOTH"
);
}
);
width = 430;
}
);
unicode = 014A;
},
{
color = 0;
glyphname = Ntilde;
lastChange = "2021-07-19 11:24:20 +0000";
layers = (
{
layerId = "1C8B4FDB-B0E8-4411-8E26-068C67144FEF";
paths = (
{
closed = 1;
nodes = (
"37 25 OFFCURVE",
"108 158 OFFCURVE",
"157 235 CURVE SMOOTH",
"180 272 OFFCURVE",
"262 416 OFFCURVE",
"268 443 CURVE",
"255 367 OFFCURVE",
"230 237 OFFCURVE",
"217 152 CURVE SMOOTH",
"213 130 OFFCURVE",
"212 110 OFFCURVE",
"212 92 CURVE SMOOTH",
"212 30 OFFCURVE",
"232 -8 OFFCURVE",
"268 -10 CURVE",
"268 -11 OFFCURVE",
"269 -11 OFFCURVE",
"269 -12 CURVE SMOOTH",
"293 89 OFFCURVE",
"382 222 OFFCURVE",
"457 345 CURVE SMOOTH",
"479 382 OFFCURVE",
"522 433 OFFCURVE",
"522 476 CURVE SMOOTH",
"522 515 OFFCURVE",
"512 530 OFFCURVE",
"491 541 CURVE",
"488 522 OFFCURVE",
"469 478 OFFCURVE",
"444 429 CURVE SMOOTH",
"419 382 OFFCURVE",
"390 331 OFFCURVE",
"365 293 CURVE SMOOTH",
"342 256 OFFCURVE",
"278 156 OFFCURVE",
"254 87 CURVE",
"256 150 OFFCURVE",
"273 208 OFFCURVE",
"282 265 CURVE SMOOTH",
"297 349 OFFCURVE",
"322 436 OFFCURVE",
"317 484 CURVE",
"311 506 OFFCURVE",
"283 537 OFFCURVE",
"259 537 CURVE SMOOTH",
"256 537 OFFCURVE",
"253 536 OFFCURVE",
"250 535 CURVE",
"226 433 OFFCURVE",
"140 307 OFFCURVE",
"65 184 CURVE SMOOTH",
"41 145 OFFCURVE",
"5 81 OFFCURVE",
"5 35 CURVE SMOOTH",
"5 15 OFFCURVE",
"13 -2 OFFCURVE",
"31 -12 CURVE"
);
},
{
closed = 1;
nodes = (
"324 623 OFFCURVE",
"339 644 OFFCURVE",
"363 644 CURVE SMOOTH",
"398 644 OFFCURVE",
"415 615 OFFCURVE",
"461 615 CURVE SMOOTH",
"484 615 OFFCURVE",
"527 637 OFFCURVE",
"527 664 CURVE SMOOTH",
"527 673 OFFCURVE",
"522 673 OFFCURVE",
"518 673 CURVE",
"506 658 OFFCURVE",
"499 650 OFFCURVE",
"483 650 CURVE SMOOTH",
"449 650 OFFCURVE",
"418 674 OFFCURVE",
"377 674 CURVE SMOOTH",
"344 674 OFFCURVE",
"307 642 OFFCURVE",
"307 617 CURVE SMOOTH",
"307 616 OFFCURVE",
"309 614 OFFCURVE",
"315 615 CURVE"
);
}
);
width = 430;
}
);
note = Ntilde;
unicode = 00D1;
},
{
color = 0;
glyphname = O;
lastChange = "2021-07-19 11:24:20 +0000";
layers = (
{
anchors = (
{
name = bottom;
position = "{124, 0}";
},
{
name = center;
position = "{238, 440}";
},
{
name = ogonek;
position = "{149, 10}";
},
{
name = top;
position = "{389, 542}";
},
{
name = topleft;
position = "{20, 880}";
},
{
name = topright;
position = "{442, 492}";
}
);
layerId = "1C8B4FDB-B0E8-4411-8E26-068C67144FEF";
paths = (
{
closed = 1;
nodes = (
"352 -9 OFFCURVE",
"501 225 OFFCURVE",
"501 387 CURVE SMOOTH",
"501 474 OFFCURVE",
"459 540 OFFCURVE",
"353 540 CURVE SMOOTH",
"188 540 OFFCURVE",
"50 312 OFFCURVE",
"50 150 CURVE SMOOTH",
"50 60 OFFCURVE",
"92 -9 OFFCURVE",
"194 -9 CURVE SMOOTH"
);
},
{
closed = 1;
nodes = (
"132 14 OFFCURVE",
"108 61 OFFCURVE",
"108 126 CURVE SMOOTH",
"108 272 OFFCURVE",
"228 508 OFFCURVE",
"370 508 CURVE SMOOTH",
"420 508 OFFCURVE",
"442 461 OFFCURVE",
"442 396 CURVE SMOOTH",
"442 251 OFFCURVE",
"332 14 OFFCURVE",
"189 14 CURVE SMOOTH"
);
}
);
width = 475;
}
);
note = O;
unicode = 004F;
},
{
color = 0;
glyphname = Oslash;
lastChange = "2021-07-26 16:58:15 +0000";
layers = (
{
anchors = (
{
name = bottom;
position = "{91, 0}";
},
{
name = top;
position = "{374, 545}";
}
);
layerId = "1C8B4FDB-B0E8-4411-8E26-068C67144FEF";
paths = (
{
closed = 1;
nodes = (
"19 -81 OFFCURVE",
"25 -77 OFFCURVE",
"31 -66 CURVE SMOOTH",
"41 -52 OFFCURVE",
"61 -20 OFFCURVE",
"88 19 CURVE",
"109 6 OFFCURVE",
"135 -1 OFFCURVE",
"167 -1 CURVE SMOOTH",
"316 -1 OFFCURVE",
"458 221 OFFCURVE",
"458 378 CURVE SMOOTH",
"458 424 OFFCURVE",
"445 465 OFFCURVE",
"417 493 CURVE",
"439 524 OFFCURVE",
"456 547 OFFCURVE",
"466 558 CURVE",
"467 561 OFFCURVE",
"467 562 OFFCURVE",
"467 564 CURVE SMOOTH",
"469 579 OFFCURVE",
"458 590 OFFCURVE",
"452 590 CURVE",
"448 588 LINE",
"428 564 OFFCURVE",
"408 540 OFFCURVE",
"388 513 CURVE",
"367 524 OFFCURVE",
"341 531 OFFCURVE",
"309 531 CURVE SMOOTH",
"158 531 OFFCURVE",
"26 311 OFFCURVE",
"26 154 CURVE SMOOTH",
"26 106 OFFCURVE",
"38 64 OFFCURVE",
"66 36 CURVE",
"39 -9 OFFCURVE",
"20 -44 OFFCURVE",
"13 -62 CURVE SMOOTH",
"11 -66 OFFCURVE",
"10 -70 OFFCURVE",
"10 -74 CURVE SMOOTH",
"10 -78 OFFCURVE",
"12 -81 OFFCURVE",
"15 -81 CURVE SMOOTH"
);
},
{
closed = 1;
nodes = (
"133 22 OFFCURVE",
"116 29 OFFCURVE",
"105 42 CURVE",
"187 162 OFFCURVE",
"314 348 OFFCURVE",
"396 464 CURVE",
"403 447 OFFCURVE",
"407 425 OFFCURVE",
"407 400 CURVE SMOOTH",
"407 260 OFFCURVE",
"298 22 OFFCURVE",
"154 22 CURVE SMOOTH"
);
},
{
closed = 1;
nodes = (
"81 87 OFFCURVE",
"78 107 OFFCURVE",
"78 129 CURVE SMOOTH",
"78 270 OFFCURVE",
"196 501 OFFCURVE",
"345 501 CURVE SMOOTH",
"356 501 OFFCURVE",
"365 498 OFFCURVE",
"373 493 CURVE",
"264 348 OFFCURVE",
"156 184 OFFCURVE",
"87 70 CURVE"
);
}
);
width = 442;
}
);
note = Oslash;
unicode = 00D8;
},
{
color = 0;
glyphname = OE;
lastChange = "2021-07-19 11:24:20 +0000";
layers = (
{
layerId = "1C8B4FDB-B0E8-4411-8E26-068C67144FEF";
paths = (
{
closed = 1;
nodes = (
"209 -1 OFFCURVE",
"251 17 OFFCURVE",
"289 46 CURVE",
"297 25 OFFCURVE",
"320 3 OFFCURVE",
"364 3 CURVE SMOOTH",
"396 3 OFFCURVE",
"509 32 OFFCURVE",
"561 32 CURVE SMOOTH",
"566 32 OFFCURVE",
"571 32 OFFCURVE",
"575 31 CURVE",
"574 63 OFFCURVE",
"541 65 OFFCURVE",
"506 65 CURVE SMOOTH",
"455 65 OFFCURVE",
"408 48 OFFCURVE",
"365 48 CURVE SMOOTH",
"353 48 OFFCURVE",
"346 54 OFFCURVE",
"346 67 CURVE SMOOTH",
"346 122 OFFCURVE",
"410 235 OFFCURVE",
"408 231 CURVE",
"570 231 LINE",
"572 236 OFFCURVE",
"574 241 OFFCURVE",
"574 245 CURVE SMOOTH",
"574 261 OFFCURVE",
"558 272 OFFCURVE",
"527 272 CURVE SMOOTH",
"482 272 OFFCURVE",
"443 262 OFFCURVE",
"422 258 CURVE",
"436 298 OFFCURVE",
"534 450 OFFCURVE",
"558 474 CURVE SMOOTH",
"572 487 OFFCURVE",
"597 493 OFFCURVE",
"624 496 CURVE SMOOTH",
"643 498 OFFCURVE",
"667 499 OFFCURVE",
"689 499 CURVE SMOOTH",
"717 499 OFFCURVE",
"742 497 OFFCURVE",
"753 495 CURVE",
"753 521 OFFCURVE",
"749 538 OFFCURVE",
"699 538 CURVE SMOOTH",
"671 538 OFFCURVE",
"596 538 OFFCURVE",
"531 530 CURVE SMOOTH",
"502 525 OFFCURVE",
"492 518 OFFCURVE",
"492 511 CURVE SMOOTH",
"492 499 OFFCURVE",
"512 490 OFFCURVE",
"529 490 CURVE",
"519 481 OFFCURVE",
"490 448 OFFCURVE",
"456 403 CURVE",
"449 477 OFFCURVE",
"405 531 OFFCURVE",
"309 531 CURVE SMOOTH",
"158 531 OFFCURVE",
"26 311 OFFCURVE",
"26 153 CURVE SMOOTH",
"26 67 OFFCURVE",
"67 -1 OFFCURVE",
"167 -1 CURVE SMOOTH"
);
},
{
closed = 1;
nodes = (
"101 22 OFFCURVE",
"78 67 OFFCURVE",
"78 129 CURVE SMOOTH",
"78 271 OFFCURVE",
"195 501 OFFCURVE",
"345 501 CURVE SMOOTH",
"388 501 OFFCURVE",
"406 459 OFFCURVE",
"406 400 CURVE SMOOTH",
"406 376 OFFCURVE",
"403 349 OFFCURVE",
"397 321 CURVE",
"379 294 LINE SMOOTH",
"335 226 OFFCURVE",
"297 154 OFFCURVE",
"287 93 CURVE",
"249 50 OFFCURVE",
"203 22 OFFCURVE",
"154 22 CURVE SMOOTH"
);
}
);
width = 609;
}
);
note = OE;
unicode = 0152;
},
{
color = 0;
glyphname = P;
lastChange = "2021-07-19 11:24:20 +0000";
layers = (
{
layerId = "1C8B4FDB-B0E8-4411-8E26-068C67144FEF";
paths = (
{
closed = 1;
nodes = (
"60 7 OFFCURVE",
"79 51 OFFCURVE",
"105 99 CURVE SMOOTH",
"121 131 OFFCURVE",
"139 164 OFFCURVE",
"157 195 CURVE",
"182 180 OFFCURVE",
"210 174 OFFCURVE",
"237 174 CURVE SMOOTH",
"374 174 OFFCURVE",
"520 335 OFFCURVE",
"520 434 CURVE SMOOTH",
"520 489 OFFCURVE",
"492 534 OFFCURVE",
"420 534 CURVE SMOOTH",
"385 534 OFFCURVE",
"344 524 OFFCURVE",
"302 514 CURVE",
"298 525 OFFCURVE",
"291 535 OFFCURVE",
"275 535 CURVE",
"273 525 OFFCURVE",
"270 515 OFFCURVE",
"267 506 CURVE",
"232 497 OFFCURVE",
"196 490 OFFCURVE",
"163 487 CURVE",
"161 482 OFFCURVE",
"159 477 OFFCURVE",
"159 472 CURVE SMOOTH",
"159 458 OFFCURVE",
"170 448 OFFCURVE",
"198 448 CURVE SMOOTH",
"203 448 OFFCURVE",
"209 448 OFFCURVE",
"215 449 CURVE SMOOTH",
"225 450 OFFCURVE",
"235 450 OFFCURVE",
"246 453 CURVE",
"208 369 OFFCURVE",
"146 275 OFFCURVE",
"91 184 CURVE SMOOTH",
"69 147 OFFCURVE",
"26 95 OFFCURVE",
"26 53 CURVE SMOOTH",
"26 14 OFFCURVE",
"37 -1 OFFCURVE",
"57 -12 CURVE"
);
},
{
closed = 1;
nodes = (
"183 235 LINE SMOOTH",
"212 283 OFFCURVE",
"292 415 OFFCURVE",
"303 466 CURVE",
"343 475 OFFCURVE",
"385 485 OFFCURVE",
"424 485 CURVE SMOOTH",
"472 485 OFFCURVE",
"494 471 OFFCURVE",
"494 446 CURVE SMOOTH",
"494 332 OFFCURVE",
"276 204 OFFCURVE",
"167 212 CURVE"
);
}
);
width = 412;
}
);
note = P;
unicode = 0050;
},
{
color = 0;
glyphname = Thorn;
lastChange = "2021-07-26 16:58:15 +0000";
layers = (
{
layerId = "1C8B4FDB-B0E8-4411-8E26-068C67144FEF";
paths = (
{
closed = 1;
nodes = (
"91 -33 OFFCURVE",
"101 -27 OFFCURVE",
"105 -15 CURVE SMOOTH",
"114 9 OFFCURVE",
"143 82 OFFCURVE",
"178 168 CURVE",
"195 162 OFFCURVE",
"213 159 OFFCURVE",
"230 159 CURVE SMOOTH",
"367 159 OFFCURVE",
"515 322 OFFCURVE",
"515 421 CURVE SMOOTH",
"515 475 OFFCURVE",
"487 520 OFFCURVE",
"415 520 CURVE SMOOTH",
"389 520 OFFCURVE",
"361 515 OFFCURVE",
"319 506 CURVE",
"337 548 OFFCURVE",
"353 583 OFFCURVE",
"361 601 CURVE",
"363 603 OFFCURVE",
"363 604 OFFCURVE",
"363 607 CURVE SMOOTH",
"360 625 OFFCURVE",
"333 650 OFFCURVE",
"327 649 CURVE",
"325 648 OFFCURVE",
"324 648 OFFCURVE",
"324 646 CURVE",
"299 594 OFFCURVE",
"275 541 OFFCURVE",
"253 490 CURVE",
"221 482 OFFCURVE",
"189 476 OFFCURVE",
"158 473 CURVE",
"156 468 OFFCURVE",
"154 463 OFFCURVE",
"154 458 CURVE SMOOTH",
"154 444 OFFCURVE",
"165 434 OFFCURVE",
"193 434 CURVE SMOOTH",
"198 434 OFFCURVE",
"204 434 OFFCURVE",
"210 435 CURVE SMOOTH",
"215 435 OFFCURVE",
"223 436 OFFCURVE",
"230 437 CURVE",
"142 223 OFFCURVE",
"81 31 OFFCURVE",
"74 -20 CURVE SMOOTH",
"73 -28 OFFCURVE",
"78 -33 OFFCURVE",
"84 -33 CURVE SMOOTH"
);
},
{
closed = 1;
nodes = (
"225 282 OFFCURVE",
"263 376 OFFCURVE",
"297 453 CURVE",
"336 462 OFFCURVE",
"385 472 OFFCURVE",
"419 472 CURVE SMOOTH",
"467 472 OFFCURVE",
"489 457 OFFCURVE",
"489 433 CURVE SMOOTH",
"489 326 OFFCURVE",
"303 206 OFFCURVE",
"190 199 CURVE"
);
}
);
width = 412;
}
);
note = Thorn;
unicode = 00DE;
},
{
color = 0;
glyphname = Q;
lastChange = "2021-07-19 11:24:20 +0000";
layers = (
{
layerId = "1C8B4FDB-B0E8-4411-8E26-068C67144FEF";
paths = (
{
closed = 1;
nodes = (
"406 -151 OFFCURVE",
"421 -113 OFFCURVE",
"420 -98 CURVE",
"410 -106 OFFCURVE",
"398 -109 OFFCURVE",
"386 -109 CURVE SMOOTH",
"361 -109 OFFCURVE",
"334 -96 OFFCURVE",
"312 -85 CURVE SMOOTH",
"253 -56 OFFCURVE",
"189 -38 OFFCURVE",
"143 -27 CURVE",
"153 -14 OFFCURVE",
"167 6 OFFCURVE",
"171 15 CURVE",
"187 9 OFFCURVE",
"206 7 OFFCURVE",
"227 7 CURVE SMOOTH",
"376 7 OFFCURVE",
"518 229 OFFCURVE",
"518 386 CURVE SMOOTH",
"518 472 OFFCURVE",
"475 539 OFFCURVE",
"368 539 CURVE SMOOTH",
"217 539 OFFCURVE",
"85 319 OFFCURVE",
"85 162 CURVE SMOOTH",
"85 98 OFFCURVE",
"107 44 OFFCURVE",
"159 20 CURVE",
"125 -24 LINE",
"115 -24 LINE SMOOTH",
"74 -24 OFFCURVE",
"51 -48 OFFCURVE",
"51 -65 CURVE SMOOTH",
"51 -74 OFFCURVE",
"58 -81 OFFCURVE",
"72 -81 CURVE SMOOTH",
"85 -81 OFFCURVE",
"101 -72 OFFCURVE",
"119 -54 CURVE",
"126 -55 OFFCURVE",
"133 -57 OFFCURVE",
"141 -60 CURVE",
"213 -78 OFFCURVE",
"286 -151 OFFCURVE",
"354 -151 CURVE SMOOTH"
);
},
{
closed = 1;
nodes = (
"160 30 OFFCURVE",
"137 75 OFFCURVE",
"137 137 CURVE SMOOTH",
"137 278 OFFCURVE",
"255 508 OFFCURVE",
"405 508 CURVE SMOOTH",
"448 508 OFFCURVE",
"467 467 OFFCURVE",
"467 409 CURVE SMOOTH",
"467 268 OFFCURVE",
"358 30 OFFCURVE",
"213 30 CURVE SMOOTH"
);
}
);
width = 503;
}
);
note = Q;
unicode = 0051;
},
{
color = 0;
glyphname = R;
lastChange = "2021-07-19 11:24:20 +0000";
layers = (
{
anchors = (
{
name = bottom;
position = "{167, 0}";
},
{
name = top;
position = "{388, 544}";
}
);
layerId = "1C8B4FDB-B0E8-4411-8E26-068C67144FEF";
paths = (
{
closed = 1;
nodes = (
"331 -15 OFFCURVE",
"335 -4 OFFCURVE",
"335 10 CURVE SMOOTH",
"335 24 OFFCURVE",
"331 41 OFFCURVE",
"325 53 CURVE SMOOTH",
"297 104 OFFCURVE",
"246 149 OFFCURVE",
"219 174 CURVE",
"360 160 OFFCURVE",
"525 341 OFFCURVE",
"525 445 CURVE SMOOTH",
"525 499 OFFCURVE",
"497 544 OFFCURVE",
"425 544 CURVE SMOOTH",
"388 544 OFFCURVE",
"344 534 OFFCURVE",
"300 523 CURVE",
"297 535 OFFCURVE",
"289 545 OFFCURVE",
"273 545 CURVE",
"270 535 OFFCURVE",
"267 524 OFFCURVE",
"263 513 CURVE",
"231 506 OFFCURVE",
"199 500 OFFCURVE",
"168 497 CURVE",
"166 492 OFFCURVE",
"164 487 OFFCURVE",
"164 482 CURVE SMOOTH",
"164 468 OFFCURVE",
"175 458 OFFCURVE",
"202 458 CURVE SMOOTH",
"207 458 OFFCURVE",
"213 458 OFFCURVE",
"220 459 CURVE SMOOTH",
"243 462 LINE",
"205 378 OFFCURVE",
"139 275 OFFCURVE",
"83 184 CURVE SMOOTH",
"61 147 OFFCURVE",
"19 95 OFFCURVE",
"19 53 CURVE SMOOTH",
"19 14 OFFCURVE",
"29 -1 OFFCURVE",
"49 -12 CURVE",
"53 7 OFFCURVE",
"71 51 OFFCURVE",
"97 99 CURVE SMOOTH",
"143 183 LINE",
"178 161 OFFCURVE",
"277 54 OFFCURVE",
"320 -16 CURVE"
);
},
{
closed = 1;
nodes = (
"177 212 OFFCURVE",
"173 217 OFFCURVE",
"173 223 CURVE SMOOTH",
"173 229 OFFCURVE",
"176 235 OFFCURVE",
"179 241 CURVE SMOOTH",
"220 309 OFFCURVE",
"285 421 OFFCURVE",
"300 473 CURVE",
"343 484 OFFCURVE",
"388 496 OFFCURVE",
"429 496 CURVE SMOOTH",
"477 496 OFFCURVE",
"499 481 OFFCURVE",
"499 456 CURVE SMOOTH",
"499 350 OFFCURVE",
"296 212 OFFCURVE",
"189 212 CURVE SMOOTH"
);
}
);
width = 406;
}
);
note = R;
unicode = 0052;
},
{
color = 0;
glyphname = S;
lastChange = "2021-07-19 11:24:20 +0000";
layers = (
{
anchors = (
{
name = bottom;
position = "{167, 0}";
},
{
name = top;
position = "{371, 535}";
}
);
layerId = "1C8B4FDB-B0E8-4411-8E26-068C67144FEF";
paths = (
{
closed = 1;
nodes = (
"285 -15 OFFCURVE",
"349 18 OFFCURVE",
"349 88 CURVE SMOOTH",
"349 177 OFFCURVE",
"172 199 OFFCURVE",
"172 297 CURVE SMOOTH",
"172 378 OFFCURVE",
"303 501 OFFCURVE",
"382 501 CURVE SMOOTH",
"411 501 OFFCURVE",
"415 476 OFFCURVE",
"415 471 CURVE SMOOTH",
"415 416 OFFCURVE",
"345 377 OFFCURVE",
"345 316 CURVE SMOOTH",
"345 294 OFFCURVE",
"359 273 OFFCURVE",
"379 273 CURVE",
"379 329 OFFCURVE",
"450 388 OFFCURVE",
"450 437 CURVE SMOOTH",
"450 493 OFFCURVE",
"421 535 OFFCURVE",
"371 535 CURVE SMOOTH",
"256 535 OFFCURVE",
"115 424 OFFCURVE",
"115 290 CURVE SMOOTH",
"115 161 OFFCURVE",
"299 144 OFFCURVE",
"299 64 CURVE SMOOTH",
"299 30 OFFCURVE",
"263 12 OFFCURVE",
"233 12 CURVE SMOOTH",
"184 12 OFFCURVE",
"150 37 OFFCURVE",
"113 77 CURVE SMOOTH",
"86 107 OFFCURVE",
"72 126 OFFCURVE",
"47 126 CURVE SMOOTH",
"27 126 OFFCURVE",
"18 116 OFFCURVE",
"13 99 CURVE",
"38 95 OFFCURVE",
"96 -15 OFFCURVE",
"216 -15 CURVE SMOOTH"
);
}
);
width = 408;
}
);
note = S;
unicode = 0053;
},
{
color = 0;
glyphname = Schwa;
lastChange = "2021-07-19 11:24:20 +0000";
layers = (
{
layerId = "1C8B4FDB-B0E8-4411-8E26-068C67144FEF";
paths = (
{
closed = 1;
nodes = (
"324 -9 OFFCURVE",
"504 222 OFFCURVE",
"504 400 CURVE SMOOTH",
"504 486 OFFCURVE",
"463 552 OFFCURVE",
"352 552 CURVE SMOOTH",
"264 552 OFFCURVE",
"121 476 OFFCURVE",
"121 372 CURVE SMOOTH",
"121 358 OFFCURVE",
"125 347 OFFCURVE",
"133 342 CURVE",
"176 452 OFFCURVE",
"257 529 OFFCURVE",
"345 529 CURVE SMOOTH",
"419 529 OFFCURVE",
"441 484 OFFCURVE",
"441 420 CURVE SMOOTH",
"441 277 OFFCURVE",
"306 16 OFFCURVE",
"130 16 CURVE SMOOTH",
"92 16 OFFCURVE",
"75 40 OFFCURVE",
"75 71 CURVE SMOOTH",
"75 181 OFFCURVE",
"222 241 OFFCURVE",
"376 264 CURVE SMOOTH",
"394 267 OFFCURVE",
"411 261 OFFCURVE",
"426 261 CURVE SMOOTH",
"431 261 OFFCURVE",
"436 262 OFFCURVE",
"441 264 CURVE SMOOTH",
"452 270 OFFCURVE",
"454 275 OFFCURVE",
"454 280 CURVE SMOOTH",
"454 284 OFFCURVE",
"452 288 OFFCURVE",
"452 290 CURVE SMOOTH",
"452 292 OFFCURVE",
"448 293 OFFCURVE",
"440 293 CURVE SMOOTH",
"430 293 OFFCURVE",
"415 292 OFFCURVE",
"396 290 CURVE SMOOTH",
"221 277 OFFCURVE",
"22 209 OFFCURVE",
"22 79 CURVE SMOOTH",
"22 32 OFFCURVE",
"67 -9 OFFCURVE",
"144 -9 CURVE SMOOTH"
);
}
);
width = 524;
}
);
unicode = 018F;
},
{
color = 0;
glyphname = T;
lastChange = "2021-07-19 11:24:20 +0000";
layers = (
{
anchors = (
{
name = bottom;
position = "{55, 0}";
},
{
name = center;
position = "{150, 313}";
},
{
name = top;
position = "{334, 543}";
}
);
layerId = "1C8B4FDB-B0E8-4411-8E26-068C67144FEF";
paths = (
{
closed = 1;
nodes = (
"80 7 OFFCURVE",
"99 51 OFFCURVE",
"125 99 CURVE SMOOTH",
"149 146 OFFCURVE",
"178 197 OFFCURVE",
"203 235 CURVE SMOOTH",
"235 286 OFFCURVE",
"324 433 OFFCURVE",
"324 475 CURVE SMOOTH",
"324 490 LINE",
"345 491 OFFCURVE",
"364 492 OFFCURVE",
"381 492 CURVE SMOOTH",
"449 492 OFFCURVE",
"484 483 OFFCURVE",
"492 477 CURVE",
"492 502 OFFCURVE",
"490 534 OFFCURVE",
"441 534 CURVE SMOOTH",
"416 534 OFFCURVE",
"362 529 OFFCURVE",
"317 524 CURVE",
"312 530 OFFCURVE",
"306 535 OFFCURVE",
"295 535 CURVE",
"295 530 OFFCURVE",
"294 526 OFFCURVE",
"292 523 CURVE",
"281 522 OFFCURVE",
"271 521 OFFCURVE",
"264 521 CURVE SMOOTH",
"219 518 OFFCURVE",
"179 517 OFFCURVE",
"148 517 CURVE SMOOTH",
"119 517 OFFCURVE",
"98 518 OFFCURVE",
"86 522 CURVE",
"86 498 OFFCURVE",
"95 473 OFFCURVE",
"150 473 CURVE SMOOTH",
"196 473 OFFCURVE",
"244 479 OFFCURVE",
"280 484 CURVE",
"245 394 OFFCURVE",
"174 287 OFFCURVE",
"111 184 CURVE SMOOTH",
"89 147 OFFCURVE",
"46 95 OFFCURVE",
"46 53 CURVE SMOOTH",
"46 14 OFFCURVE",
"57 -1 OFFCURVE",
"77 -12 CURVE"
);
}
);
width = 269;
}
);
note = T;
unicode = 0054;
},
{
color = 0;
glyphname = Tbar;
lastChange = "2021-07-19 11:24:20 +0000";
layers = (
{
layerId = "1C8B4FDB-B0E8-4411-8E26-068C67144FEF";
paths = (
{
closed = 1;
nodes = (
"60 7 OFFCURVE",
"79 51 OFFCURVE",
"105 99 CURVE SMOOTH",
"129 146 OFFCURVE",
"158 197 OFFCURVE",
"183 235 CURVE SMOOTH",
"198 260 OFFCURVE",
"227 308 OFFCURVE",
"253 356 CURVE",
"266 356 OFFCURVE",
"278 356 OFFCURVE",
"291 356 CURVE SMOOTH",
"330 356 OFFCURVE",
"364 355 OFFCURVE",
"376 352 CURVE",
"376 368 OFFCURVE",
"379 392 OFFCURVE",
"345 392 CURVE SMOOTH",
"325 392 OFFCURVE",
"299 391 OFFCURVE",
"271 390 CURVE",
"290 426 OFFCURVE",
"303 458 OFFCURVE",
"304 475 CURVE SMOOTH",
"304 490 LINE",
"325 491 OFFCURVE",
"344 492 OFFCURVE",
"361 492 CURVE SMOOTH",
"429 492 OFFCURVE",
"464 483 OFFCURVE",
"472 477 CURVE",
"472 502 OFFCURVE",
"470 534 OFFCURVE",
"421 534 CURVE SMOOTH",
"396 534 OFFCURVE",
"342 529 OFFCURVE",
"297 524 CURVE",
"292 530 OFFCURVE",
"286 535 OFFCURVE",
"275 535 CURVE",
"275 530 OFFCURVE",
"274 526 OFFCURVE",
"272 523 CURVE",
"261 522 OFFCURVE",
"251 521 OFFCURVE",
"244 521 CURVE SMOOTH",
"199 518 OFFCURVE",
"159 517 OFFCURVE",
"128 517 CURVE SMOOTH",
"99 517 OFFCURVE",
"78 518 OFFCURVE",
"66 522 CURVE",
"66 498 OFFCURVE",
"75 473 OFFCURVE",
"130 473 CURVE SMOOTH",
"176 473 OFFCURVE",
"224 479 OFFCURVE",
"260 484 CURVE",
"248 453 OFFCURVE",
"232 421 OFFCURVE",
"214 388 CURVE",
"196 387 OFFCURVE",
"179 387 OFFCURVE",
"163 387 CURVE SMOOTH",
"135 387 OFFCURVE",
"110 388 OFFCURVE",
"95 392 CURVE",
"95 376 OFFCURVE",
"87 353 OFFCURVE",
"127 353 CURVE SMOOTH",
"141 353 OFFCURVE",
"167 353 OFFCURVE",
"195 354 CURVE",
"163 298 OFFCURVE",
"126 241 OFFCURVE",
"91 184 CURVE SMOOTH",
"69 147 OFFCURVE",
"26 95 OFFCURVE",
"26 53 CURVE SMOOTH",
"26 14 OFFCURVE",
"37 -1 OFFCURVE",
"57 -12 CURVE"
);
}
);
width = 259;
}
);
note = Tbar;
unicode = 0166;
},
{
color = 1;
glyphname = Tcedilla;
lastChange = "2021-07-19 11:24:20 +0000";
layers = (
{
background = {
paths = (
{
closed = 1;
nodes = (
"215 286 OFFCURVE",
"303 433 OFFCURVE",
"304 475 CURVE SMOOTH",
"304 490 LINE",
"409 497 OFFCURVE",
"462 484 OFFCURVE",
"472 477 CURVE",
"472 502 OFFCURVE",
"470 534 OFFCURVE",
"421 534 CURVE SMOOTH",
"396 534 OFFCURVE",
"342 529 OFFCURVE",
"297 524 CURVE",
"292 530 OFFCURVE",
"286 535 OFFCURVE",
"275 535 CURVE",
"275 530 OFFCURVE",
"274 526 OFFCURVE",
"272 523 CURVE",
"261 522 OFFCURVE",
"251 521 OFFCURVE",
"244 521 CURVE SMOOTH",
"157 516 OFFCURVE",
"90 514 OFFCURVE",
"66 522 CURVE",
"66 498 OFFCURVE",
"75 473 OFFCURVE",
"130 473 CURVE SMOOTH",
"176 473 OFFCURVE",
"224 479 OFFCURVE",
"260 484 CURVE",
"225 394 OFFCURVE",
"154 287 OFFCURVE",
"91 184 CURVE SMOOTH",
"69 147 OFFCURVE",
"26 95 OFFCURVE",
"26 53 CURVE SMOOTH",
"26 14 OFFCURVE",
"37 -1 OFFCURVE",
"57 -12 CURVE",
"60 7 OFFCURVE",
"79 51 OFFCURVE",
"105 99 CURVE SMOOTH",
"129 146 OFFCURVE",
"158 197 OFFCURVE",
"183 235 CURVE SMOOTH"
);
},
{
closed = 1;
nodes = (
"215 286 OFFCURVE",
"303 433 OFFCURVE",
"304 475 CURVE SMOOTH",
"304 490 LINE",
"409 497 OFFCURVE",
"462 484 OFFCURVE",
"472 477 CURVE",
"472 502 OFFCURVE",
"470 534 OFFCURVE",
"421 534 CURVE SMOOTH",
"396 534 OFFCURVE",
"342 529 OFFCURVE",
"297 524 CURVE",
"292 530 OFFCURVE",
"286 535 OFFCURVE",
"275 535 CURVE",
"275 530 OFFCURVE",
"274 526 OFFCURVE",
"272 523 CURVE",
"261 522 OFFCURVE",
"251 521 OFFCURVE",
"244 521 CURVE SMOOTH",
"157 516 OFFCURVE",
"90 514 OFFCURVE",
"66 522 CURVE",
"66 498 OFFCURVE",
"75 473 OFFCURVE",
"130 473 CURVE SMOOTH",
"176 473 OFFCURVE",
"224 479 OFFCURVE",
"260 484 CURVE",
"225 394 OFFCURVE",
"154 287 OFFCURVE",
"91 184 CURVE SMOOTH",
"69 147 OFFCURVE",
"26 95 OFFCURVE",
"26 53 CURVE SMOOTH",
"26 14 OFFCURVE",
"37 -1 OFFCURVE",
"57 -12 CURVE",
"60 7 OFFCURVE",
"79 51 OFFCURVE",
"105 99 CURVE SMOOTH",
"129 146 OFFCURVE",
"158 197 OFFCURVE",
"183 235 CURVE SMOOTH"
);
},
{
closed = 1;
nodes = (
"-28 -109 OFFCURVE",
"-50 -140 OFFCURVE",
"-75 -165 CURVE SMOOTH",
"-108 -203 LINE SMOOTH",
"-110 -205 OFFCURVE",
"-110 -212 OFFCURVE",
"-99 -207 CURVE SMOOTH",
"-96 -205 OFFCURVE",
"-93 -196 OFFCURVE",
"-87 -193 CURVE SMOOTH",
"-48 -172 OFFCURVE",
"4 -148 OFFCURVE",
"17 -108 CURVE SMOOTH",
"26 -83 OFFCURVE",
"20 -61 OFFCURVE",
"4 -49 CURVE SMOOTH",
"-7 -42 OFFCURVE",
"-24 -37 OFFCURVE",
"-15 -49 CURVE SMOOTH",
"-11 -56 OFFCURVE",
"-13 -69 OFFCURVE",
"-15 -78 CURVE"
);
}
);
};
components = (
{
name = T;
},
{
name = cedillacomb;
transform = "{1, 0, 0, 1, -83, 0}";
}
);
layerId = "1C8B4FDB-B0E8-4411-8E26-068C67144FEF";
width = 269;
}
);
note = uni021A;
unicode = 0162;
},
{
color = 0;
glyphname = U;
lastChange = "2021-07-19 11:24:20 +0000";
layers = (
{
anchors = (
{
name = bottom;
position = "{95, 0}";
},
{
name = ogonek;
position = "{111, 10}";
},
{
name = top;
position = "{396, 546}";
},
{
name = topright;
position = "{490, 515}";
}
);
layerId = "1C8B4FDB-B0E8-4411-8E26-068C67144FEF";
paths = (
{
closed = 1;
nodes = (
"245 -5 OFFCURVE",
"299 34 OFFCURVE",
"340 82 CURVE SMOOTH",
"385 134 OFFCURVE",
"450 237 OFFCURVE",
"492 326 CURVE SMOOTH",
"544 437 OFFCURVE",
"546 467 OFFCURVE",
"546 490 CURVE SMOOTH",
"546 509 OFFCURVE",
"537 537 OFFCURVE",
"517 537 CURVE SMOOTH",
"514 537 OFFCURVE",
"511 536 OFFCURVE",
"507 535 CURVE",
"507 521 OFFCURVE",
"503 494 OFFCURVE",
"467 416 CURVE SMOOTH",
"411 293 OFFCURVE",
"286 18 OFFCURVE",
"163 18 CURVE SMOOTH",
"111 18 OFFCURVE",
"95 48 OFFCURVE",
"95 89 CURVE SMOOTH",
"95 190 OFFCURVE",
"186 305 OFFCURVE",
"234 385 CURVE SMOOTH",
"258 427 OFFCURVE",
"276 466 OFFCURVE",
"276 499 CURVE SMOOTH",
"276 510 OFFCURVE",
"267 534 OFFCURVE",
"248 534 CURVE SMOOTH",
"245 534 OFFCURVE",
"241 534 OFFCURVE",
"237 532 CURVE",
"237 491 OFFCURVE",
"117 313 OFFCURVE",
"63 190 CURVE SMOOTH",
"52 165 OFFCURVE",
"45 138 OFFCURVE",
"45 112 CURVE SMOOTH",
"45 50 OFFCURVE",
"82 -5 OFFCURVE",
"178 -5 CURVE SMOOTH"
);
}
);
width = 454;
}
);
note = U;
unicode = 0055;
},
{
color = 0;
glyphname = V;
lastChange = "2021-07-26 16:58:15 +0000";
layers = (
{
layerId = "1C8B4FDB-B0E8-4411-8E26-068C67144FEF";
paths = (
{
closed = 1;
nodes = (
"103 -10 OFFCURVE",
"106 -9 OFFCURVE",
"110 -8 CURVE",
"115 3 OFFCURVE",
"127 24 OFFCURVE",
"144 49 CURVE SMOOTH",
"161 76 OFFCURVE",
"317 267 OFFCURVE",
"394 369 CURVE SMOOTH",
"424 410 OFFCURVE",
"433 424 OFFCURVE",
"454 468 CURVE SMOOTH",
"458 477 OFFCURVE",
"460 485 OFFCURVE",
"460 492 CURVE SMOOTH",
"460 515 OFFCURVE",
"442 529 OFFCURVE",
"420 529 CURVE",
"379 428 OFFCURVE",
"257 280 OFFCURVE",
"166 154 CURVE SMOOTH",
"144 124 OFFCURVE",
"103 68 OFFCURVE",
"93 42 CURVE",
"96 106 OFFCURVE",
"123 200 OFFCURVE",
"138 245 CURVE SMOOTH",
"151 289 OFFCURVE",
"178 399 OFFCURVE",
"178 464 CURVE SMOOTH",
"178 512 OFFCURVE",
"151 532 OFFCURVE",
"115 533 CURVE",
"117 523 OFFCURVE",
"118 510 OFFCURVE",
"118 495 CURVE SMOOTH",
"118 415 OFFCURVE",
"92 277 OFFCURVE",
"68 182 CURVE SMOOTH",
"61 154 OFFCURVE",
"52 110 OFFCURVE",
"52 71 CURVE SMOOTH",
"52 49 OFFCURVE",
"55 29 OFFCURVE",
"62 14 CURVE SMOOTH",
"70 0 OFFCURVE",
"84 -10 OFFCURVE",
"99 -10 CURVE SMOOTH"
);
}
);
width = 303;
}
);
note = V;
unicode = 0056;
},
{
color = 0;
glyphname = W;
lastChange = "2021-07-26 16:58:15 +0000";
layers = (
{
anchors = (
{
name = bottom;
position = "{198, 0}";
},
{
name = top;
position = "{387, 547}";
}
);
layerId = "1C8B4FDB-B0E8-4411-8E26-068C67144FEF";
paths = (
{
closed = 1;
nodes = (
"104 -10 OFFCURVE",
"107 -9 OFFCURVE",
"111 -8 CURVE",
"116 3 OFFCURVE",
"130 23 OFFCURVE",
"144 48 CURVE",
"156 75 OFFCURVE",
"287 275 OFFCURVE",
"353 376 CURVE",
"356 382 OFFCURVE",
"360 388 OFFCURVE",
"365 394 CURVE",
"347 328 OFFCURVE",
"320 241 OFFCURVE",
"304 181 CURVE SMOOTH",
"290 125 OFFCURVE",
"279 79 OFFCURVE",
"279 46 CURVE SMOOTH",
"279 34 OFFCURVE",
"281 23 OFFCURVE",
"284 14 CURVE SMOOTH",
"290 -1 OFFCURVE",
"305 -10 OFFCURVE",
"320 -10 CURVE SMOOTH",
"324 -10 OFFCURVE",
"328 -9 OFFCURVE",
"332 -8 CURVE",
"375 72 OFFCURVE",
"459 178 OFFCURVE",
"569 324 CURVE SMOOTH",
"599 365 OFFCURVE",
"672 462 OFFCURVE",
"683 490 CURVE SMOOTH",
"685 496 OFFCURVE",
"686 504 OFFCURVE",
"686 512 CURVE SMOOTH",
"686 529 OFFCURVE",
"681 546 OFFCURVE",
"665 546 CURVE SMOOTH",
"662 546 OFFCURVE",
"659 546 OFFCURVE",
"656 545 CURVE",
"599 409 OFFCURVE",
"404 199 OFFCURVE",
"314 42 CURVE",
"321 70 OFFCURVE",
"360 202 OFFCURVE",
"372 248 CURVE SMOOTH",
"400 353 OFFCURVE",
"421 408 OFFCURVE",
"421 452 CURVE SMOOTH",
"421 456 OFFCURVE",
"420 461 OFFCURVE",
"420 465 CURVE SMOOTH",
"417 484 OFFCURVE",
"407 524 OFFCURVE",
"377 516 CURVE",
"348 416 OFFCURVE",
"239 275 OFFCURVE",
"161 150 CURVE SMOOTH",
"144 121 OFFCURVE",
"104 68 OFFCURVE",
"93 42 CURVE",
"88 49 OFFCURVE",
"122 195 OFFCURVE",
"139 245 CURVE SMOOTH",
"153 287 OFFCURVE",
"179 392 OFFCURVE",
"179 454 CURVE SMOOTH",
"179 467 OFFCURVE",
"178 478 OFFCURVE",
"175 486 CURVE SMOOTH",
"170 503 OFFCURVE",
"147 532 OFFCURVE",
"126 532 CURVE SMOOTH",
"122 532 OFFCURVE",
"119 532 OFFCURVE",
"116 530 CURVE",
"119 511 OFFCURVE",
"123 490 OFFCURVE",
"123 458 CURVE SMOOTH",
"123 391 OFFCURVE",
"73 200 OFFCURVE",
"63 160 CURVE SMOOTH",
"58 141 OFFCURVE",
"51 108 OFFCURVE",
"51 76 CURVE SMOOTH",
"51 53 OFFCURVE",
"54 31 OFFCURVE",
"63 14 CURVE SMOOTH",
"71 0 OFFCURVE",
"85 -10 OFFCURVE",
"100 -10 CURVE SMOOTH"
);
}
);
width = 534;
}
);
note = W;
unicode = 0057;
},
{
color = 0;
glyphname = X;
lastChange = "2021-07-19 11:24:20 +0000";
layers = (
{
layerId = "1C8B4FDB-B0E8-4411-8E26-068C67144FEF";
paths = (
{
closed = 1;
nodes = (
"51 30 OFFCURVE",
"127 130 OFFCURVE",
"220 228 CURVE",
"230 160 OFFCURVE",
"232 86 OFFCURVE",
"259 25 CURVE SMOOTH",
"270 2 OFFCURVE",
"292 -12 OFFCURVE",
"312 -12 CURVE SMOOTH",
"322 -12 OFFCURVE",
"332 -9 OFFCURVE",
"339 -1 CURVE",
"320 8 OFFCURVE",
"292 82 OFFCURVE",
"284 144 CURVE SMOOTH",
"266 274 LINE",
"306 311 OFFCURVE",
"373 362 OFFCURVE",
"421 408 CURVE SMOOTH",
"451 438 OFFCURVE",
"484 475 OFFCURVE",
"484 514 CURVE SMOOTH",
"484 530 OFFCURVE",
"473 538 OFFCURVE",
"460 538 CURVE",
"422 479 OFFCURVE",
"341 392 OFFCURVE",
"261 312 CURVE",
"245 429 LINE SMOOTH",
"238 481 OFFCURVE",
"225 536 OFFCURVE",
"177 536 CURVE SMOOTH",
"167 536 OFFCURVE",
"150 532 OFFCURVE",
"143 529 CURVE",
"149 524 OFFCURVE",
"181 490 OFFCURVE",
"193 411 CURVE SMOOTH",
"215 267 LINE",
"174 229 OFFCURVE",
"134 191 OFFCURVE",
"99 156 CURVE SMOOTH",
"60 117 OFFCURVE",
"6 72 OFFCURVE",
"6 19 CURVE SMOOTH",
"6 -2 OFFCURVE",
"13 -17 OFFCURVE",
"24 -15 CURVE"
);
}
);
width = 364;
}
);
note = X;
unicode = 0058;
},
{
color = 0;
glyphname = Y;
lastChange = "2021-07-19 11:24:20 +0000";
layers = (
{
anchors = (
{
name = bottom;
position = "{115, 0}";
},
{
name = top;
position = "{300, 548}";
},
{
name = topleft;
position = "{20, 880}";
}
);
layerId = "1C8B4FDB-B0E8-4411-8E26-068C67144FEF";
paths = (
{
closed = 1;
nodes = (
"143 -6 OFFCURVE",
"143 -1 OFFCURVE",
"143 6 CURVE SMOOTH",
"143 19 OFFCURVE",
"146 37 OFFCURVE",
"153 62 CURVE SMOOTH",
"168 118 OFFCURVE",
"206 210 OFFCURVE",
"235 274 CURVE",
"277 311 OFFCURVE",
"345 365 OFFCURVE",
"389 408 CURVE SMOOTH",
"420 438 OFFCURVE",
"452 475 OFFCURVE",
"452 514 CURVE SMOOTH",
"452 530 OFFCURVE",
"442 538 OFFCURVE",
"428 538 CURVE",
"390 479 OFFCURVE",
"309 392 OFFCURVE",
"229 312 CURVE",
"213 429 LINE SMOOTH",
"206 481 OFFCURVE",
"194 536 OFFCURVE",
"145 536 CURVE SMOOTH",
"135 536 OFFCURVE",
"119 532 OFFCURVE",
"111 529 CURVE",
"117 524 OFFCURVE",
"149 490 OFFCURVE",
"161 411 CURVE SMOOTH",
"178 299 LINE",
"168 275 OFFCURVE",
"142 208 OFFCURVE",
"125 156 CURVE SMOOTH",
"113 119 OFFCURVE",
"103 93 OFFCURVE",
"103 56 CURVE SMOOTH",
"103 28 OFFCURVE",
"118 -4 OFFCURVE",
"145 -11 CURVE"
);
}
);
width = 294;
}
);
note = Y;
unicode = 0059;
},
{
color = 0;
glyphname = Z;
lastChange = "2021-07-19 11:24:20 +0000";
layers = (
{
anchors = (
{
name = bottom;
position = "{173, 0}";
},
{
name = center;
position = "{173, 440}";
},
{
name = top;
position = "{339, 515}";
}
);
layerId = "1C8B4FDB-B0E8-4411-8E26-068C67144FEF";
paths = (
{
closed = 1;
nodes = (
"114 -11 OFFCURVE",
"194 -1 OFFCURVE",
"258 6 CURVE SMOOTH",
"286 8 OFFCURVE",
"323 3 OFFCURVE",
"339 -1 CURVE",
"339 39 OFFCURVE",
"317 51 OFFCURVE",
"267 51 CURVE SMOOTH",
"241 51 OFFCURVE",
"158 32 OFFCURVE",
"124 26 CURVE SMOOTH",
"117 24 OFFCURVE",
"109 24 OFFCURVE",
"102 24 CURVE SMOOTH",
"86 24 OFFCURVE",
"72 29 OFFCURVE",
"72 44 CURVE SMOOTH",
"72 51 OFFCURVE",
"75 60 OFFCURVE",
"82 72 CURVE SMOOTH",
"105 113 OFFCURVE",
"292 284 OFFCURVE",
"385 375 CURVE SMOOTH",
"415 405 OFFCURVE",
"473 447 OFFCURVE",
"473 480 CURVE SMOOTH",
"473 506 OFFCURVE",
"456 526 OFFCURVE",
"434 526 CURVE SMOOTH",
"389 526 OFFCURVE",
"339 515 OFFCURVE",
"298 508 CURVE SMOOTH",
"280 505 OFFCURVE",
"261 504 OFFCURVE",
"242 504 CURVE SMOOTH",
"216 504 OFFCURVE",
"191 506 OFFCURVE",
"178 511 CURVE",
"172 496 OFFCURVE",
"199 464 OFFCURVE",
"246 464 CURVE SMOOTH",
"287 464 OFFCURVE",
"339 486 OFFCURVE",
"429 496 CURVE",
"380 431 OFFCURVE",
"280 339 OFFCURVE",
"207 271 CURVE SMOOTH",
"128 201 OFFCURVE",
"17 110 OFFCURVE",
"17 59 CURVE SMOOTH",
"17 26 OFFCURVE",
"37 -11 OFFCURVE",
"71 -11 CURVE SMOOTH"
);
}
);
width = 345;
}
);
note = Z;
unicode = 005A;
},
{
color = 1;
glyphname = A.ss01;
lastChange = "2021-07-26 16:58:15 +0000";
layers = (
{
anchors = (
{
name = bottom;
position = "{230, -38}";
},
{
name = ogonek;
position = "{453, -20}";
},
{
name = top;
position = "{590, 677}";
}
);
layerId = "1C8B4FDB-B0E8-4411-8E26-068C67144FEF";
paths = (
{
closed = 1;
nodes = (
"152 -40 OFFCURVE",
"179 -33 OFFCURVE",
"205 -21.5 CURVE SMOOTH",
"227 -11.833 OFFCURVE",
"248.667 0.667 OFFCURVE",
"270 16 CURVE SMOOTH",
"312.667 46.667 OFFCURVE",
"352 82.5 OFFCURVE",
"384 116.5 CURVE SMOOTH",
"400 133.5 OFFCURVE",
"414 149 OFFCURVE",
"426 163 CURVE",
"405 134 OFFCURVE",
"391 92 OFFCURVE",
"391 54 CURVE SMOOTH",
"391 9 OFFCURVE",
"411 -29 OFFCURVE",
"463 -29 CURVE SMOOTH",
"532.665 -29 OFFCURVE",
"606.675 63.844 OFFCURVE",
"642 108 CURVE",
"648 114 OFFCURVE",
"651 121 OFFCURVE",
"651 126 CURVE SMOOTH",
"651 129 OFFCURVE",
"649 132 OFFCURVE",
"646 132 CURVE SMOOTH",
"644 132 OFFCURVE",
"641 130 OFFCURVE",
"637 126 CURVE SMOOTH",
"598.937 82.861 OFFCURVE",
"535.896 17 OFFCURVE",
"491 17 CURVE SMOOTH",
"472 17 OFFCURVE",
"462 32 OFFCURVE",
"462 63 CURVE SMOOTH",
"462 75 OFFCURVE",
"463 88 OFFCURVE",
"466 104 CURVE SMOOTH",
"479.02 184.722 OFFCURVE",
"529.33 272.33 OFFCURVE",
"581 324 CURVE SMOOTH",
"593 336 OFFCURVE",
"561 363 OFFCURVE",
"538 363 CURVE SMOOTH",
"531 363 OFFCURVE",
"525 360 OFFCURVE",
"521 354 CURVE SMOOTH",
"471.943 280.415 OFFCURVE",
"370.158 123.947 OFFCURVE",
"292 60 CURVE SMOOTH",
"232 10 OFFCURVE",
"176 -15 OFFCURVE",
"133 -15 CURVE SMOOTH",
"120 -15 OFFCURVE",
"108 -12 OFFCURVE",
"98 -7.5 CURVE SMOOTH",
"72 5 OFFCURVE",
"60 33 OFFCURVE",
"60 69 CURVE SMOOTH",
"60 102 OFFCURVE",
"69 142 OFFCURVE",
"87 185 CURVE SMOOTH",
"114.004 253.738 OFFCURVE",
"176.976 362.694 OFFCURVE",
"208 405 CURVE",
"238 400 OFFCURVE",
"268 397 OFFCURVE",
"299 397 CURVE SMOOTH",
"355 397 OFFCURVE",
"413 405 OFFCURVE",
"477 417 CURVE SMOOTH",
"579.667 437 OFFCURVE",
"646.667 467.667 OFFCURVE",
"688 501 CURVE SMOOTH",
"728 533 OFFCURVE",
"743 565 OFFCURVE",
"743 591 CURVE SMOOTH",
"743 640 OFFCURVE",
"700 670 OFFCURVE",
"626 670 CURVE SMOOTH",
"613 670 OFFCURVE",
"600 669 OFFCURVE",
"586 667 CURVE SMOOTH",
"412.667 647 OFFCURVE",
"266 561.333 OFFCURVE",
"166 436 CURVE",
"134 448 OFFCURVE",
"108 464 OFFCURVE",
"88 484 CURVE SMOOTH",
"72 500 OFFCURVE",
"62 517 OFFCURVE",
"62 539 CURVE SMOOTH",
"62 548 OFFCURVE",
"64 559 OFFCURVE",
"69 570 CURVE SMOOTH",
"71 575 OFFCURVE",
"72 580 OFFCURVE",
"72 583 CURVE SMOOTH",
"72 588 OFFCURVE",
"70 590 OFFCURVE",
"68 590 CURVE SMOOTH",
"66 590 OFFCURVE",
"62 587 OFFCURVE",
"58 581 CURVE SMOOTH",
"48 566 OFFCURVE",
"43 546 OFFCURVE",
"43 526 CURVE SMOOTH",
"43 504 OFFCURVE",
"49 484 OFFCURVE",
"63 471 CURVE SMOOTH",
"85.667 448.333 OFFCURVE",
"116.333 431.667 OFFCURVE",
"151 417 CURVE",
"124.333 382.333 OFFCURVE",
"101.333 347.667 OFFCURVE",
"80 309 CURVE SMOOTH",
"39 236 OFFCURVE",
"16 156 OFFCURVE",
"16 92 CURVE SMOOTH",
"16 34 OFFCURVE",
"34 -12 OFFCURVE",
"76 -30 CURVE SMOOTH",
"92 -37 OFFCURVE",
"109 -40 OFFCURVE",
"126 -40 CURVE SMOOTH"
);
},
{
closed = 1;
nodes = (
"275 413 OFFCURVE",
"247 416 OFFCURVE",
"220 421 CURVE",
"317.104 529.202 OFFCURVE",
"430.699 628.445 OFFCURVE",
"590 649 CURVE SMOOTH",
"600 650 OFFCURVE",
"609 651 OFFCURVE",
"618 651 CURVE SMOOTH",
"670 651 OFFCURVE",
"706 632 OFFCURVE",
"706 592 CURVE SMOOTH",
"706 516 OFFCURVE",
"603 457 OFFCURVE",
"476 434 CURVE SMOOTH",
"407 420 OFFCURVE",
"353 413 OFFCURVE",
"305 413 CURVE SMOOTH"
);
}
);
width = 613;
}
);
note = A;
},
{
color = 1;
glyphname = AE.ss01;
lastChange = "2021-07-26 16:58:15 +0000";
layers = (
{
layerId = "1C8B4FDB-B0E8-4411-8E26-068C67144FEF";
paths = (
{
closed = 1;
nodes = (
"892 -52 OFFCURVE",
"951.667 -40.333 OFFCURVE",
"1009 -19 CURVE SMOOTH",
"1037.667 -8.333 OFFCURVE",
"1065.333 4.833 OFFCURVE",
"1092 20.5 CURVE SMOOTH",
"1145.333 51.833 OFFCURVE",
"1187.833 92.5 OFFCURVE",
"1212.5 142.5 CURVE SMOOTH",
"1224.833 167.5 OFFCURVE",
"1231 194.667 OFFCURVE",
"1231 224 CURVE SMOOTH",
"1231 254 OFFCURVE",
"1203 289 OFFCURVE",
"1155 289 CURVE SMOOTH",
"1144 289 OFFCURVE",
"1138 286 OFFCURVE",
"1138 281 CURVE SMOOTH",
"1138 278 OFFCURVE",
"1142 277 OFFCURVE",
"1148 277 CURVE SMOOTH",
"1178.667 277 OFFCURVE",
"1188 250.667 OFFCURVE",
"1188 228 CURVE SMOOTH",
"1188 157.333 OFFCURVE",
"1140.833 92.833 OFFCURVE",
"1073.5 45.5 CURVE SMOOTH",
"1006.167 -1.833 OFFCURVE",
"917.333 -31 OFFCURVE",
"836 -31 CURVE SMOOTH",
"718.667 -31 OFFCURVE",
"644.333 13 OFFCURVE",
"627 89 CURVE",
"642 108 LINE",
"648 114 OFFCURVE",
"651 121 OFFCURVE",
"651 126 CURVE SMOOTH",
"651 129 OFFCURVE",
"649 132 OFFCURVE",
"646 132 CURVE SMOOTH",
"644 132 OFFCURVE",
"641 130 OFFCURVE",
"637 126 CURVE SMOOTH",
"624 111 LINE",
"623.333 120.333 OFFCURVE",
"623.333 130 OFFCURVE",
"624 140 CURVE SMOOTH",
"629.477 219.423 OFFCURVE",
"682.817 300.155 OFFCURVE",
"757 324 CURVE SMOOTH",
"769 327 OFFCURVE",
"781 329 OFFCURVE",
"793 329 CURVE SMOOTH",
"821 329 OFFCURVE",
"850 322 OFFCURVE",
"879 320 CURVE SMOOTH",
"907 316 OFFCURVE",
"929 314 OFFCURVE",
"945 314 CURVE SMOOTH",
"952 314 OFFCURVE",
"957 315 OFFCURVE",
"961.5 315.5 CURVE SMOOTH",
"975.833 317.833 OFFCURVE",
"983 323.667 OFFCURVE",
"983 333 CURVE SMOOTH",
"983 361.821 OFFCURVE",
"932.322 363 OFFCURVE",
"898 363 CURVE SMOOTH",
"863.333 363 OFFCURVE",
"836.333 361.333 OFFCURVE",
"819 360 CURVE",
"801 374 OFFCURVE",
"789 392 OFFCURVE",
"789 417 CURVE SMOOTH",
"789 435 OFFCURVE",
"792 452 OFFCURVE",
"800 469 CURVE",
"848.667 457.667 OFFCURVE",
"897.333 452 OFFCURVE",
"946 452 CURVE SMOOTH",
"1102.732 452 OFFCURVE",
"1248 500.111 OFFCURVE",
"1248 592 CURVE SMOOTH",
"1248 639.236 OFFCURVE",
"1205.348 666 OFFCURVE",
"1119 666 CURVE SMOOTH",
"963.119 666 OFFCURVE",
"811.898 596.862 OFFCURVE",
"762 500 CURVE",
"742 505.333 OFFCURVE",
"723.333 511.333 OFFCURVE",
"706 518 CURVE",
"732 543 OFFCURVE",
"743 568 OFFCURVE",
"743 590 CURVE SMOOTH",
"743 639 OFFCURVE",
"700 670 OFFCURVE",
"626 670 CURVE SMOOTH",
"613 670 OFFCURVE",
"600 669 OFFCURVE",
"586 667 CURVE SMOOTH",
"412.667 647 OFFCURVE",
"266 561.333 OFFCURVE",
"166 436 CURVE",
"134 448 OFFCURVE",
"108 464 OFFCURVE",
"88 484 CURVE SMOOTH",
"72 500 OFFCURVE",
"62 517 OFFCURVE",
"62 539 CURVE SMOOTH",
"62 548 OFFCURVE",
"64 559 OFFCURVE",
"69 570 CURVE SMOOTH",
"71 575 OFFCURVE",
"72 580 OFFCURVE",
"72 583 CURVE SMOOTH",
"72 588 OFFCURVE",
"70 590 OFFCURVE",
"68 590 CURVE SMOOTH",
"66 590 OFFCURVE",
"62 587 OFFCURVE",
"58 581 CURVE SMOOTH",
"48 566 OFFCURVE",
"43 546 OFFCURVE",
"43 526 CURVE SMOOTH",
"43 504 OFFCURVE",
"49 484 OFFCURVE",
"63 471 CURVE SMOOTH",
"85.667 448.333 OFFCURVE",
"116.333 431.667 OFFCURVE",
"151 417 CURVE",
"124.333 382.333 OFFCURVE",
"101.333 347.667 OFFCURVE",
"80 309 CURVE SMOOTH",
"39 236 OFFCURVE",
"16 156 OFFCURVE",
"16 92 CURVE SMOOTH",
"16 34 OFFCURVE",
"34 -12 OFFCURVE",
"76 -30 CURVE SMOOTH",
"92 -37 OFFCURVE",
"109 -40 OFFCURVE",
"126 -40 CURVE SMOOTH",
"152 -40 OFFCURVE",
"179 -33 OFFCURVE",
"205 -21.5 CURVE SMOOTH",
"227 -11.833 OFFCURVE",
"248.667 0.667 OFFCURVE",
"270 16 CURVE SMOOTH",
"312.667 46.667 OFFCURVE",
"352 82.5 OFFCURVE",
"384 116.5 CURVE SMOOTH",
"400 133.5 OFFCURVE",
"414 149 OFFCURVE",
"426 163 CURVE",
"405 134 OFFCURVE",
"391 92 OFFCURVE",
"391 54 CURVE SMOOTH",
"391 9 OFFCURVE",
"411 -29 OFFCURVE",
"463 -29 CURVE SMOOTH",
"507 -29 OFFCURVE",
"552 7.667 OFFCURVE",
"588 45 CURVE",
"626.667 -13.667 OFFCURVE",
"708 -52 OFFCURVE",
"844 -52 CURVE SMOOTH"
);
},
{
closed = 1;
nodes = (
"120 -15 OFFCURVE",
"108 -12 OFFCURVE",
"98 -7.5 CURVE SMOOTH",
"72 5 OFFCURVE",
"60 33 OFFCURVE",
"60 69 CURVE SMOOTH",
"60 102 OFFCURVE",
"69 142 OFFCURVE",
"87 185 CURVE SMOOTH",
"114.004 253.738 OFFCURVE",
"176.976 362.694 OFFCURVE",
"208 405 CURVE",
"238 400 OFFCURVE",
"268 397 OFFCURVE",
"299 397 CURVE SMOOTH",
"355 397 OFFCURVE",
"413 405 OFFCURVE",
"477 417 CURVE SMOOTH",
"582.333 438.333 OFFCURVE",
"650.667 469.333 OFFCURVE",
"692 504 CURVE",
"710.667 496 OFFCURVE",
"732.333 486.667 OFFCURVE",
"755 480 CURVE",
"751 468 OFFCURVE",
"749 456.333 OFFCURVE",
"749 445 CURVE SMOOTH",
"749 406.333 OFFCURVE",
"765 375.333 OFFCURVE",
"785 358 CURVE SMOOTH",
"787 356 LINE",
"642.497 327.573 OFFCURVE",
"561 231.566 OFFCURVE",
"561 143 CURVE SMOOTH",
"561 115 OFFCURVE",
"566 87.667 OFFCURVE",
"578 65 CURVE",
"547.333 38.333 OFFCURVE",
"517.667 17 OFFCURVE",
"491 17 CURVE SMOOTH",
"472 17 OFFCURVE",
"462 32 OFFCURVE",
"462 63 CURVE SMOOTH",
"462 75 OFFCURVE",
"463 88 OFFCURVE",
"466 104 CURVE SMOOTH",
"479.02 184.722 OFFCURVE",
"529.33 272.33 OFFCURVE",
"581 324 CURVE SMOOTH",
"593 336 OFFCURVE",
"561 363 OFFCURVE",
"538 363 CURVE SMOOTH",
"531 363 OFFCURVE",
"525 360 OFFCURVE",
"521 354 CURVE SMOOTH",
"471.943 280.415 OFFCURVE",
"370.158 123.947 OFFCURVE",
"292 60 CURVE SMOOTH",
"232 10 OFFCURVE",
"176 -15 OFFCURVE",
"133 -15 CURVE SMOOTH"
);
},
{
closed = 1;
nodes = (
"275 413 OFFCURVE",
"247 416 OFFCURVE",
"220 421 CURVE",
"317.104 529.202 OFFCURVE",
"430.699 628.445 OFFCURVE",
"590 649 CURVE SMOOTH",
"600 650 OFFCURVE",
"609 651 OFFCURVE",
"618 651 CURVE SMOOTH",
"670 651 OFFCURVE",
"706 633 OFFCURVE",
"706 593 CURVE SMOOTH",
"706 571 OFFCURVE",
"698 550 OFFCURVE",
"681 530 CURVE",
"659.667 540.667 OFFCURVE",
"640.667 554.333 OFFCURVE",
"626 569 CURVE SMOOTH",
"623 572 OFFCURVE",
"621 573 OFFCURVE",
"619 573 CURVE SMOOTH",
"615 573 OFFCURVE",
"612 569 OFFCURVE",
"612 565 CURVE SMOOTH",
"612 562 OFFCURVE",
"613 559 OFFCURVE",
"616 556 CURVE SMOOTH",
"628 541.333 OFFCURVE",
"645.667 529.333 OFFCURVE",
"667 516 CURVE",
"628.333 480 OFFCURVE",
"564 450 OFFCURVE",
"476 434 CURVE SMOOTH",
"407 420 OFFCURVE",
"353 413 OFFCURVE",
"305 413 CURVE SMOOTH"
);
},
{
closed = 1;
nodes = (
"906.333 474 OFFCURVE",
"856.667 478.333 OFFCURVE",
"810 489 CURVE",
"871.437 583.715 OFFCURVE",
"1046.09 637 OFFCURVE",
"1137 637 CURVE SMOOTH",
"1169.667 637 OFFCURVE",
"1192.333 632.667 OFFCURVE",
"1205 624 CURVE SMOOTH",
"1217.667 615.333 OFFCURVE",
"1224 604.333 OFFCURVE",
"1224 591 CURVE SMOOTH",
"1224 521.543 OFFCURVE",
"1057.522 474 OFFCURVE",
"949 474 CURVE SMOOTH"
);
}
);
width = 1248;
}
);
note = AE;
},
{
color = 1;
glyphname = B.ss01;
lastChange = "2021-07-19 11:24:41 +0000";
layers = (
{
layerId = "1C8B4FDB-B0E8-4411-8E26-068C67144FEF";
paths = (
{
closed = 1;
nodes = (
"634 -21 OFFCURVE",
"710.833 3.167 OFFCURVE",
"763.5 42.5 CURVE SMOOTH",
"816.167 81.833 OFFCURVE",
"847 134.667 OFFCURVE",
"847 192 CURVE SMOOTH",
"847 261.991 OFFCURVE",
"784.485 317.645 OFFCURVE",
"662 320 CURVE",
"750.043 322.935 OFFCURVE",
"879 381.95 OFFCURVE",
"879 481 CURVE SMOOTH",
"879 556.855 OFFCURVE",
"835.094 599.371 OFFCURVE",
"731 626 CURVE",
"738.286 640.572 OFFCURVE",
"773.299 671.78 OFFCURVE",
"802 689 CURVE SMOOTH",
"816 697 OFFCURVE",
"841 705 OFFCURVE",
"862 705 CURVE SMOOTH",
"873 705 OFFCURVE",
"883 703 OFFCURVE",
"891 698 CURVE SMOOTH",
"898 693 OFFCURVE",
"905 696 OFFCURVE",
"905 701 CURVE SMOOTH",
"905 704 OFFCURVE",
"903 707 OFFCURVE",
"900 711 CURVE SMOOTH",
"892.667 720.333 OFFCURVE",
"880.333 725 OFFCURVE",
"863 725 CURVE SMOOTH",
"842.333 725 OFFCURVE",
"823.667 721.667 OFFCURVE",
"807 715 CURVE SMOOTH",
"755.081 693.139 OFFCURVE",
"736.433 663.361 OFFCURVE",
"700 633 CURVE",
"642.667 646.333 OFFCURVE",
"576.333 652 OFFCURVE",
"511 652 CURVE SMOOTH",
"365.667 652 OFFCURVE",
"254.667 612.167 OFFCURVE",
"180 559.5 CURVE SMOOTH",
"142.667 533.167 OFFCURVE",
"115 504.5 OFFCURVE",
"97 473.5 CURVE SMOOTH",
"81 446 OFFCURVE",
"73 420 OFFCURVE",
"73 397 CURVE SMOOTH",
"73 367 OFFCURVE",
"86 341 OFFCURVE",
"112 321.5 CURVE SMOOTH",
"135.333 303.833 OFFCURVE",
"170 295 OFFCURVE",
"216 295 CURVE SMOOTH",
"253.333 295 OFFCURVE",
"302 306.833 OFFCURVE",
"354 339.5 CURVE SMOOTH",
"406 372.167 OFFCURVE",
"462.667 427.333 OFFCURVE",
"520 514 CURVE SMOOTH",
"522 518 OFFCURVE",
"523 522 OFFCURVE",
"523 525 CURVE SMOOTH",
"523 529 OFFCURVE",
"522 532 OFFCURVE",
"520 532 CURVE SMOOTH",
"518 532 OFFCURVE",
"516 530 OFFCURVE",
"513 526 CURVE SMOOTH",
"450.577 418.633 OFFCURVE",
"314.686 318 OFFCURVE",
"214 318 CURVE SMOOTH",
"144 318 OFFCURVE",
"113 345 OFFCURVE",
"113 382 CURVE SMOOTH",
"113 410 OFFCURVE",
"128 440 OFFCURVE",
"156 473.5 CURVE SMOOTH",
"201.333 527.5 OFFCURVE",
"276.333 575.333 OFFCURVE",
"375 606 CURVE SMOOTH",
"424.333 621.333 OFFCURVE",
"477.667 629 OFFCURVE",
"535 629 CURVE SMOOTH",
"583 629 OFFCURVE",
"636.667 626 OFFCURVE",
"682 618 CURVE",
"580.772 502.968 OFFCURVE",
"522.327 401.173 OFFCURVE",
"473 308 CURVE SMOOTH",
"425.767 215.784 OFFCURVE",
"350.147 85.662 OFFCURVE",
"293 31 CURVE",
"222.143 37.442 OFFCURVE",
"171.085 52 OFFCURVE",
"97 52 CURVE SMOOTH",
"77.667 52 OFFCURVE",
"65.167 49.167 OFFCURVE",
"59.5 43.5 CURVE SMOOTH",
"53.833 37.833 OFFCURVE",
"51 32.333 OFFCURVE",
"51 27 CURVE SMOOTH",
"51 -1 OFFCURVE",
"103 -11 OFFCURVE",
"161 -11 CURVE SMOOTH",
"215 -11 OFFCURVE",
"276 -2 OFFCURVE",
"304 10 CURVE",
"377.542 2.996 OFFCURVE",
"476.117 -21 OFFCURVE",
"542 -21 CURVE SMOOTH"
);
},
{
closed = 1;
nodes = (
"483.635 3 OFFCURVE",
"381.503 13.611 OFFCURVE",
"320 25 CURVE",
"404.598 86.526 OFFCURVE",
"459.932 174.8 OFFCURVE",
"518 274 CURVE SMOOTH",
"545.677 320.497 OFFCURVE",
"591.458 400.577 OFFCURVE",
"619 448.5 CURVE SMOOTH",
"652.333 506.5 OFFCURVE",
"685.667 562.333 OFFCURVE",
"719 609 CURVE",
"782.142 590.959 OFFCURVE",
"832 561.973 OFFCURVE",
"832 482 CURVE SMOOTH",
"832 414.237 OFFCURVE",
"745.773 332 OFFCURVE",
"662 332 CURVE SMOOTH",
"640 332 OFFCURVE",
"618 340 OFFCURVE",
"602 340 CURVE SMOOTH",
"591 340 OFFCURVE",
"583 335 OFFCURVE",
"583 320 CURVE SMOOTH",
"583 306 OFFCURVE",
"601 304 OFFCURVE",
"623 304 CURVE SMOOTH",
"638 304 OFFCURVE",
"656 305 OFFCURVE",
"671 305 CURVE SMOOTH",
"756.333 305 OFFCURVE",
"793 259 OFFCURVE",
"793 203 CURVE SMOOTH",
"793 92.334 OFFCURVE",
"682.536 3 OFFCURVE",
"534 3 CURVE SMOOTH"
);
}
);
width = 885;
}
);
note = B;
},
{
color = 1;
glyphname = C.ss01;
lastChange = "2021-07-26 16:58:15 +0000";
layers = (
{
anchors = (
{
name = bottom;
position = "{160, -60}";
},
{
name = top;
position = "{618, 658}";
}
);
layerId = "1C8B4FDB-B0E8-4411-8E26-068C67144FEF";
paths = (
{
closed = 1;
nodes = (
"218 -210 OFFCURVE",
"222 -204 OFFCURVE",
"222 -192 CURVE SMOOTH",
"222 -153.333 OFFCURVE",
"229 -110.667 OFFCURVE",
"241 -68 CURVE",
"349 -60 OFFCURVE",
"456 -9 OFFCURVE",
"536 59 CURVE SMOOTH",
"587.005 104.338 OFFCURVE",
"664 180.987 OFFCURVE",
"664 252 CURVE SMOOTH",
"664 296 OFFCURVE",
"627.667 312 OFFCURVE",
"589 312 CURVE SMOOTH",
"505 312 OFFCURVE",
"428.333 269.333 OFFCURVE",
"367 204 CURVE SMOOTH",
"305.667 138.667 OFFCURVE",
"258.667 52.333 OFFCURVE",
"232 -33 CURVE",
"138.667 -31.667 OFFCURVE",
"93 19.333 OFFCURVE",
"93 110 CURVE SMOOTH",
"93 209.534 OFFCURVE",
"147.986 317.069 OFFCURVE",
"209 394 CURVE",
"263.667 378 OFFCURVE",
"319 373 OFFCURVE",
"375 373 CURVE SMOOTH",
"471.22 373 OFFCURVE",
"596.326 393.952 OFFCURVE",
"677 446 CURVE SMOOTH",
"714.771 472.98 OFFCURVE",
"755 514.887 OFFCURVE",
"755 563 CURVE SMOOTH",
"755 629.83 OFFCURVE",
"681.967 658 OFFCURVE",
"620 658 CURVE SMOOTH",
"536 658 OFFCURVE",
"454 633.167 OFFCURVE",
"378 592.5 CURVE SMOOTH",
"302 551.833 OFFCURVE",
"233 495 OFFCURVE",
"173 431 CURVE",
"128.328 452.022 OFFCURVE",
"79 500.705 OFFCURVE",
"79 550 CURVE SMOOTH",
"79 561.333 OFFCURVE",
"81.167 569.5 OFFCURVE",
"85.5 574.5 CURVE SMOOTH",
"89.833 579.5 OFFCURVE",
"92 584.667 OFFCURVE",
"92 590 CURVE SMOOTH",
"92 594 OFFCURVE",
"90.667 596 OFFCURVE",
"88 596 CURVE SMOOTH",
"85.333 596 OFFCURVE",
"82 594.667 OFFCURVE",
"78 592 CURVE SMOOTH",
"62 578.667 OFFCURVE",
"58 558 OFFCURVE",
"58 538 CURVE SMOOTH",
"58 516.667 OFFCURVE",
"62.667 494.333 OFFCURVE",
"76 477 CURVE SMOOTH",
"97.333 450.333 OFFCURVE",
"126.333 428.667 OFFCURVE",
"157 414 CURVE",
"123.667 375.333 OFFCURVE",
"93 332.667 OFFCURVE",
"73 286 CURVE SMOOTH",
"46.333 230 OFFCURVE",
"26 163.667 OFFCURVE",
"26 101 CURVE SMOOTH",
"26 -16.333 OFFCURVE",
"95.667 -70 OFFCURVE",
"209 -70 CURVE SMOOTH",
"222 -70 LINE",
"211.333 -111.333 OFFCURVE",
"206 -153.333 OFFCURVE",
"206 -192 CURVE SMOOTH",
"206 -204 OFFCURVE",
"210 -210 OFFCURVE",
"214 -210 CURVE SMOOTH"
);
},
{
closed = 1;
nodes = (
"283.667 50.667 OFFCURVE",
"335.167 133.667 OFFCURVE",
"394.5 195 CURVE SMOOTH",
"453.833 256.333 OFFCURVE",
"521 297 OFFCURVE",
"585 297 CURVE SMOOTH",
"610.333 297 OFFCURVE",
"629 285 OFFCURVE",
"629 257 CURVE SMOOTH",
"629 190.701 OFFCURVE",
"564.078 127.013 OFFCURVE",
"513 84 CURVE SMOOTH",
"442.154 26.778 OFFCURVE",
"347.229 -23.923 OFFCURVE",
"253 -32 CURVE"
);
},
{
closed = 1;
nodes = (
"329.667 392 OFFCURVE",
"274.667 397.667 OFFCURVE",
"224 411 CURVE",
"317.708 521.245 OFFCURVE",
"464.116 636 OFFCURVE",
"613 636 CURVE SMOOTH",
"662.633 636 OFFCURVE",
"715 613.692 OFFCURVE",
"715 560 CURVE SMOOTH",
"715 524 OFFCURVE",
"690.333 494.667 OFFCURVE",
"665 472 CURVE SMOOTH",
"594.45 411.902 OFFCURVE",
"474.502 392 OFFCURVE",
"383 392 CURVE SMOOTH"
);
}
);
userData = {
assembly = "PUSHW[ ]	/* 4 values pushed */\0120 7 34 4 \012CALL[ ]	/* CallFunction */\012PUSHW[ ]	/* 4 values pushed */\01271 6 100 4 \012CALL[ ]	/* CallFunction */\012PUSHW[ ]	/* 4 values pushed */\01211 6 115 4 \012CALL[ ]	/* CallFunction */\012NPUSHW[ ]	/* 15 values pushed */\0126 0 22 0 38 0 54 0 70 0 86 0 102 0 7 \012DELTAP1[ ]	/* DeltaExceptionP1 */\012NPUSHW[ ]	/* 5 values pushed */\012117 0 133 0 2 \012DELTAP1[ ]	/* DeltaExceptionP1 */\012PUSHW[ ]	/* 1 value pushed */\01234 \012SRP0[ ]	/* SetRefPoint0 */\012PUSHW[ ]	/* 2 values pushed */\01230 5 \012MIRP[10100]	/* MoveIndirectRelPt */\012PUSHW[ ]	/* 1 value pushed */\01222 \012MDRP[10000]	/* MoveDirectRelPt */\012PUSHW[ ]	/* 3 values pushed */\01240 34 30 \012SRP1[ ]	/* SetRefPoint1 */\012SRP2[ ]	/* SetRefPoint2 */\012IP[ ]	/* InterpolatePts */\012PUSHW[ ]	/* 3 values pushed */\01246 34 0 \012SRP1[ ]	/* SetRefPoint1 */\012SRP2[ ]	/* SetRefPoint2 */\012IP[ ]	/* InterpolatePts */\012PUSHW[ ]	/* 1 value pushed */\01246 \012MDAP[1]	/* MoveDirectAbsPt */\012PUSHW[ ]	/* 1 value pushed */\0120 \012SRP0[ ]	/* SetRefPoint0 */\012PUSHW[ ]	/* 1 value pushed */\01253 \012MDRP[10000]	/* MoveDirectRelPt */\012PUSHW[ ]	/* 1 value pushed */\01253 \012MDAP[1]	/* MoveDirectAbsPt */\012PUSHW[ ]	/* 1 value pushed */\01246 \012SRP0[ ]	/* SetRefPoint0 */\012PUSHW[ ]	/* 2 values pushed */\01256 6 \012MIRP[10100]	/* MoveIndirectRelPt */\012PUSHW[ ]	/* 3 values pushed */\01289 34 71 \012SRP1[ ]	/* SetRefPoint1 */\012SRP2[ ]	/* SetRefPoint2 */\012IP[ ]	/* InterpolatePts */\012NPUSHW[ ]	/* 3 values pushed */\012250 100 1 \012DELTAP2[ ]	/* DeltaExceptionP2 */\012NPUSHW[ ]	/* 3 values pushed */\01210 100 1 \012DELTAP3[ ]	/* DeltaExceptionP3 */\012NPUSHW[ ]	/* 33 values pushed */\0129 100 25 100 41 100 57 100 73 100 89 100 105 100 121 100 137 100 153 100 169 100 185 100 201 100 217 100 233 100 249 100 16 \012DELTAP1[ ]	/* DeltaExceptionP1 */\012NPUSHW[ ]	/* 31 values pushed */\0129 100 25 100 41 100 57 100 73 100 89 100 105 100 121 100 137 100 153 100 169 100 185 100 201 100 217 100 233 100 15 \012DELTAP2[ ]	/* DeltaExceptionP2 */\012NPUSHW[ ]	/* 3 values pushed */\012250 115 1 \012DELTAP2[ ]	/* DeltaExceptionP2 */\012NPUSHW[ ]	/* 3 values pushed */\01210 115 1 \012DELTAP3[ ]	/* DeltaExceptionP3 */\012NPUSHW[ ]	/* 33 values pushed */\0129 115 25 115 41 115 57 115 73 115 89 115 105 115 121 115 137 115 153 115 169 115 185 115 201 115 217 115 233 115 249 115 16 \012DELTAP1[ ]	/* DeltaExceptionP1 */\012NPUSHW[ ]	/* 31 values pushed */\0129 115 25 115 41 115 57 115 73 115 89 115 105 115 121 115 137 115 153 115 169 115 185 115 201 115 217 115 233 115 15 \012DELTAP2[ ]	/* DeltaExceptionP2 */\012PUSHW[ ]	/* 3 values pushed */\012123 34 71 \012SRP1[ ]	/* SetRefPoint1 */\012SRP2[ ]	/* SetRefPoint2 */\012IP[ ]	/* InterpolatePts */\012PUSHW[ ]	/* 1 value pushed */\01271 \012SRP0[ ]	/* SetRefPoint0 */\012PUSHW[ ]	/* 1 value pushed */\012129 \012MDRP[11100]	/* MoveDirectRelPt */\012SVTCA[0]	/* SetFreedomAndProjectionVectorToAxis */\012PUSHW[ ]	/* 4 values pushed */\01266 1 105 4 \012CALL[ ]	/* CallFunction */\012PUSHW[ ]	/* 4 values pushed */\0123 4 30 4 \012CALL[ ]	/* CallFunction */\012PUSHW[ ]	/* 3 values pushed */\01292 118 3 \012CALL[ ]	/* CallFunction */\012PUSHW[ ]	/* 1 value pushed */\01230 \012SRP0[ ]	/* SetRefPoint0 */\012PUSHW[ ]	/* 1 value pushed */\01219 \012MDRP[10000]	/* MoveDirectRelPt */\012PUSHW[ ]	/* 1 value pushed */\01219 \012MDAP[1]	/* MoveDirectAbsPt */\012PUSHW[ ]	/* 1 value pushed */\0123 \012SRP0[ ]	/* SetRefPoint0 */\012PUSHW[ ]	/* 1 value pushed */\012123 \012MDRP[10000]	/* MoveDirectRelPt */\012PUSHW[ ]	/* 1 value pushed */\012123 \012MDAP[1]	/* MoveDirectAbsPt */\012IUP[0]	/* InterpolateUntPts */\012IUP[1]	/* InterpolateUntPts */";
};
width = 678;
}
);
note = C;
},
{
color = 1;
glyphname = D.ss01;
lastChange = "2021-07-19 11:24:41 +0000";
layers = (
{
anchors = (
{
name = bottom;
position = "{471, 0}";
},
{
name = center;
position = "{471, 440}";
},
{
name = top;
position = "{863, 725}";
}
);
layerId = "1C8B4FDB-B0E8-4411-8E26-068C67144FEF";
paths = (
{
closed = 1;
nodes = (
"670 -26 OFFCURVE",
"763.5 12.833 OFFCURVE",
"829.5 77.5 CURVE SMOOTH",
"895.5 142.167 OFFCURVE",
"934 232.333 OFFCURVE",
"934 335 CURVE SMOOTH",
"934 457.254 OFFCURVE",
"862.169 584.849 OFFCURVE",
"731 626 CURVE",
"738.286 640.572 OFFCURVE",
"773.299 671.78 OFFCURVE",
"802 689 CURVE SMOOTH",
"816 697 OFFCURVE",
"841 705 OFFCURVE",
"862 705 CURVE SMOOTH",
"873 705 OFFCURVE",
"883 703 OFFCURVE",
"891 698 CURVE SMOOTH",
"898 693 OFFCURVE",
"905 696 OFFCURVE",
"905 701 CURVE SMOOTH",
"905 704 OFFCURVE",
"903 707 OFFCURVE",
"900 711 CURVE SMOOTH",
"892.667 720.333 OFFCURVE",
"880.333 725 OFFCURVE",
"863 725 CURVE SMOOTH",
"842.333 725 OFFCURVE",
"823.667 721.667 OFFCURVE",
"807 715 CURVE SMOOTH",
"755.081 693.139 OFFCURVE",
"736.433 663.361 OFFCURVE",
"700 633 CURVE",
"642.667 646.333 OFFCURVE",
"576.333 652 OFFCURVE",
"511 652 CURVE SMOOTH",
"365.667 652 OFFCURVE",
"254.667 612.167 OFFCURVE",
"180 559.5 CURVE SMOOTH",
"142.667 533.167 OFFCURVE",
"115 504.5 OFFCURVE",
"97 473.5 CURVE SMOOTH",
"81 446 OFFCURVE",
"73 420 OFFCURVE",
"73 397 CURVE SMOOTH",
"73 367 OFFCURVE",
"86 341 OFFCURVE",
"112 321.5 CURVE SMOOTH",
"135.333 303.833 OFFCURVE",
"170 295 OFFCURVE",
"216 295 CURVE SMOOTH",
"253.333 295 OFFCURVE",
"302 306.833 OFFCURVE",
"354 339.5 CURVE SMOOTH",
"406 372.167 OFFCURVE",
"462.667 427.333 OFFCURVE",
"520 514 CURVE SMOOTH",
"522 518 OFFCURVE",
"523 522 OFFCURVE",
"523 525 CURVE SMOOTH",
"523 529 OFFCURVE",
"522 532 OFFCURVE",
"520 532 CURVE SMOOTH",
"518 532 OFFCURVE",
"516 530 OFFCURVE",
"513 526 CURVE SMOOTH",
"450.577 418.633 OFFCURVE",
"314.686 318 OFFCURVE",
"214 318 CURVE SMOOTH",
"144 318 OFFCURVE",
"113 345 OFFCURVE",
"113 382 CURVE SMOOTH",
"113 410 OFFCURVE",
"128 440 OFFCURVE",
"156 473.5 CURVE SMOOTH",
"201.333 527.5 OFFCURVE",
"276.333 575.333 OFFCURVE",
"375 606 CURVE SMOOTH",
"424.333 621.333 OFFCURVE",
"477.667 629 OFFCURVE",
"535 629 CURVE SMOOTH",
"583 629 OFFCURVE",
"636.667 626 OFFCURVE",
"682 618 CURVE",
"580.772 502.968 OFFCURVE",
"522.327 401.173 OFFCURVE",
"473 308 CURVE SMOOTH",
"425.767 215.784 OFFCURVE",
"350.147 85.662 OFFCURVE",
"293 31 CURVE",
"222.143 37.442 OFFCURVE",
"171.085 52 OFFCURVE",
"97 52 CURVE SMOOTH",
"77.667 52 OFFCURVE",
"65.167 49.167 OFFCURVE",
"59.5 43.5 CURVE SMOOTH",
"53.833 37.833 OFFCURVE",
"51 32.333 OFFCURVE",
"51 27 CURVE SMOOTH",
"51 -1 OFFCURVE",
"103 -11 OFFCURVE",
"161 -11 CURVE SMOOTH",
"215 -11 OFFCURVE",
"276 -2 OFFCURVE",
"304 10 CURVE",
"346.982 -3.432 OFFCURVE",
"492.592 -26 OFFCURVE",
"558 -26 CURVE SMOOTH"
);
},
{
closed = 1;
nodes = (
"483.167 -3 OFFCURVE",
"362.177 11.82 OFFCURVE",
"320 25 CURVE",
"404.598 86.526 OFFCURVE",
"459.932 174.8 OFFCURVE",
"518 274 CURVE SMOOTH",
"545.677 320.497 OFFCURVE",
"591.458 400.577 OFFCURVE",
"619 448.5 CURVE SMOOTH",
"652.333 506.5 OFFCURVE",
"685.667 562.333 OFFCURVE",
"719 609 CURVE",
"816.546 571.703 OFFCURVE",
"877 464.129 OFFCURVE",
"877 326 CURVE SMOOTH",
"877 246 OFFCURVE",
"845 164.667 OFFCURVE",
"789 102 CURVE SMOOTH",
"733 39.333 OFFCURVE",
"653 -3 OFFCURVE",
"557 -3 CURVE SMOOTH"
);
}
);
userData = {
assembly = "PUSHW[ ]	/* 4 values pushed */\0125 6 113 4 \012CALL[ ]	/* CallFunction */\012NPUSHW[ ]	/* 3 values pushed */\012250 113 1 \012DELTAP2[ ]	/* DeltaExceptionP2 */\012NPUSHW[ ]	/* 3 values pushed */\01210 113 1 \012DELTAP3[ ]	/* DeltaExceptionP3 */\012NPUSHW[ ]	/* 33 values pushed */\0129 113 25 113 41 113 57 113 73 113 89 113 105 113 121 113 137 113 153 113 169 113 185 113 201 113 217 113 233 113 249 113 16 \012DELTAP1[ ]	/* DeltaExceptionP1 */\012NPUSHW[ ]	/* 31 values pushed */\0129 113 25 113 41 113 57 113 73 113 89 113 105 113 121 113 137 113 153 113 169 113 185 113 201 113 217 113 233 113 15 \012DELTAP2[ ]	/* DeltaExceptionP2 */\012PUSHW[ ]	/* 1 value pushed */\0125 \012SRP0[ ]	/* SetRefPoint0 */\012PUSHW[ ]	/* 1 value pushed */\012119 \012MDRP[11100]	/* MoveDirectRelPt */\012SVTCA[0]	/* SetFreedomAndProjectionVectorToAxis */\012PUSHW[ ]	/* 1 value pushed */\01278 \012MDAP[1]	/* MoveDirectAbsPt */\012PUSHW[ ]	/* 4 values pushed */\012108 1 10 4 \012CALL[ ]	/* CallFunction */\012PUSHW[ ]	/* 4 values pushed */\01268 1 41 4 \012CALL[ ]	/* CallFunction */\012PUSHW[ ]	/* 4 values pushed */\01248 1 61 4 \012CALL[ ]	/* CallFunction */\012IUP[0]	/* InterpolateUntPts */\012IUP[1]	/* InterpolateUntPts */";
};
width = 941;
}
);
note = D;
},
{
color = 1;
glyphname = Eth.ss01;
lastChange = "2021-07-19 11:24:41 +0000";
layers = (
{
layerId = "1C8B4FDB-B0E8-4411-8E26-068C67144FEF";
paths = (
{
closed = 1;
nodes = (
"670 -26 OFFCURVE",
"763.5 12.833 OFFCURVE",
"829.5 77.5 CURVE SMOOTH",
"895.5 142.167 OFFCURVE",
"934 232.333 OFFCURVE",
"934 335 CURVE SMOOTH",
"934 457.254 OFFCURVE",
"862.169 584.849 OFFCURVE",
"731 626 CURVE",
"738.286 640.572 OFFCURVE",
"773.299 671.78 OFFCURVE",
"802 689 CURVE SMOOTH",
"816 697 OFFCURVE",
"841 705 OFFCURVE",
"862 705 CURVE SMOOTH",
"873 705 OFFCURVE",
"883 703 OFFCURVE",
"891 698 CURVE SMOOTH",
"898 693 OFFCURVE",
"905 696 OFFCURVE",
"905 701 CURVE SMOOTH",
"905 704 OFFCURVE",
"903 707 OFFCURVE",
"900 711 CURVE SMOOTH",
"892.667 720.333 OFFCURVE",
"880.333 725 OFFCURVE",
"863 725 CURVE SMOOTH",
"842.333 725 OFFCURVE",
"823.667 721.667 OFFCURVE",
"807 715 CURVE SMOOTH",
"755.081 693.139 OFFCURVE",
"736.433 663.361 OFFCURVE",
"700 633 CURVE",
"642.667 646.333 OFFCURVE",
"576.333 652 OFFCURVE",
"511 652 CURVE SMOOTH",
"365.667 652 OFFCURVE",
"254.667 612.167 OFFCURVE",
"180 559.5 CURVE SMOOTH",
"142.667 533.167 OFFCURVE",
"115 504.5 OFFCURVE",
"97 473.5 CURVE SMOOTH",
"81 446 OFFCURVE",
"73 420 OFFCURVE",
"73 397 CURVE SMOOTH",
"73 367 OFFCURVE",
"86 341 OFFCURVE",
"112 321.5 CURVE SMOOTH",
"135.333 303.833 OFFCURVE",
"170 295 OFFCURVE",
"216 295 CURVE SMOOTH",
"253.333 295 OFFCURVE",
"302 306.833 OFFCURVE",
"354 339.5 CURVE SMOOTH",
"406 372.167 OFFCURVE",
"462.667 427.333 OFFCURVE",
"520 514 CURVE SMOOTH",
"522 518 OFFCURVE",
"523 522 OFFCURVE",
"523 525 CURVE SMOOTH",
"523 529 OFFCURVE",
"522 532 OFFCURVE",
"520 532 CURVE SMOOTH",
"518 532 OFFCURVE",
"516 530 OFFCURVE",
"513 526 CURVE SMOOTH",
"450.577 418.633 OFFCURVE",
"314.686 318 OFFCURVE",
"214 318 CURVE SMOOTH",
"144 318 OFFCURVE",
"113 345 OFFCURVE",
"113 382 CURVE SMOOTH",
"113 410 OFFCURVE",
"128 440 OFFCURVE",
"156 473.5 CURVE SMOOTH",
"201.333 527.5 OFFCURVE",
"276.333 575.333 OFFCURVE",
"375 606 CURVE SMOOTH",
"424.333 621.333 OFFCURVE",
"477.667 629 OFFCURVE",
"535 629 CURVE SMOOTH",
"583 629 OFFCURVE",
"636.667 626 OFFCURVE",
"682 618 CURVE",
"580.772 502.968 OFFCURVE",
"522.327 401.173 OFFCURVE",
"473 308 CURVE SMOOTH",
"433 234 LINE",
"403 232 OFFCURVE",
"372 230 OFFCURVE",
"347 230 CURVE SMOOTH",
"332 230 OFFCURVE",
"319 231 OFFCURVE",
"309 233 CURVE",
"309 211.667 OFFCURVE",
"313.333 190 OFFCURVE",
"348 190 CURVE SMOOTH",
"365.333 190 OFFCURVE",
"388.333 191.333 OFFCURVE",
"411 194 CURVE",
"372.333 127.333 OFFCURVE",
"331.667 69.667 OFFCURVE",
"293 31 CURVE",
"222.143 37.442 OFFCURVE",
"171.085 52 OFFCURVE",
"97 52 CURVE SMOOTH",
"77.667 52 OFFCURVE",
"65.167 49.167 OFFCURVE",
"59.5 43.5 CURVE SMOOTH",
"53.833 37.833 OFFCURVE",
"51 32.333 OFFCURVE",
"51 27 CURVE SMOOTH",
"51 -1 OFFCURVE",
"103 -11 OFFCURVE",
"161 -11 CURVE SMOOTH",
"215 -11 OFFCURVE",
"276 -2 OFFCURVE",
"304 10 CURVE",
"346.982 -3.432 OFFCURVE",
"492.592 -26 OFFCURVE",
"558 -26 CURVE SMOOTH"
);
},
{
closed = 1;
nodes = (
"483.167 -3 OFFCURVE",
"362.177 11.82 OFFCURVE",
"320 25 CURVE",
"386.667 74.333 OFFCURVE",
"429 129.333 OFFCURVE",
"473 200 CURVE",
"488 202 OFFCURVE",
"500 202 OFFCURVE",
"511 202 CURVE SMOOTH",
"525 202 OFFCURVE",
"535 201 OFFCURVE",
"543.5 199 CURVE SMOOTH",
"558.5 195 OFFCURVE",
"567.333 191.333 OFFCURVE",
"570 188 CURVE",
"570 212 OFFCURVE",
"568 237 OFFCURVE",
"516 237 CURVE SMOOTH",
"510 237 OFFCURVE",
"503 237 OFFCURVE",
"496 236 CURVE",
"518 274 LINE SMOOTH",
"545.677 320.497 OFFCURVE",
"591.458 400.577 OFFCURVE",
"619 448.5 CURVE SMOOTH",
"652.333 506.5 OFFCURVE",
"685.667 562.333 OFFCURVE",
"719 609 CURVE",
"816.546 571.703 OFFCURVE",
"877 464.129 OFFCURVE",
"877 326 CURVE SMOOTH",
"877 246 OFFCURVE",
"845 164.667 OFFCURVE",
"789 102 CURVE SMOOTH",
"733 39.333 OFFCURVE",
"653 -3 OFFCURVE",
"557 -3 CURVE SMOOTH"
);
}
);
width = 941;
}
);
note = Eth;
},
{
color = 1;
glyphname = Dcroat.ss01;
lastChange = "2021-07-19 11:24:41 +0000";
layers = (
{
layerId = "1C8B4FDB-B0E8-4411-8E26-068C67144FEF";
paths = (
{
closed = 1;
nodes = (
"670 -26 OFFCURVE",
"763.5 12.833 OFFCURVE",
"829.5 77.5 CURVE SMOOTH",
"895.5 142.167 OFFCURVE",
"934 232.333 OFFCURVE",
"934 335 CURVE SMOOTH",
"934 457.254 OFFCURVE",
"862.169 584.849 OFFCURVE",
"731 626 CURVE",
"738.286 640.572 OFFCURVE",
"773.299 671.78 OFFCURVE",
"802 689 CURVE SMOOTH",
"816 697 OFFCURVE",
"841 705 OFFCURVE",
"862 705 CURVE SMOOTH",
"873 705 OFFCURVE",
"883 703 OFFCURVE",
"891 698 CURVE SMOOTH",
"898 693 OFFCURVE",
"905 696 OFFCURVE",
"905 701 CURVE SMOOTH",
"905 704 OFFCURVE",
"903 707 OFFCURVE",
"900 711 CURVE SMOOTH",
"892.667 720.333 OFFCURVE",
"880.333 725 OFFCURVE",
"863 725 CURVE SMOOTH",
"842.333 725 OFFCURVE",
"823.667 721.667 OFFCURVE",
"807 715 CURVE SMOOTH",
"755.081 693.139 OFFCURVE",
"736.433 663.361 OFFCURVE",
"700 633 CURVE",
"642.667 646.333 OFFCURVE",
"576.333 652 OFFCURVE",
"511 652 CURVE SMOOTH",
"365.667 652 OFFCURVE",
"254.667 612.167 OFFCURVE",
"180 559.5 CURVE SMOOTH",
"142.667 533.167 OFFCURVE",
"115 504.5 OFFCURVE",
"97 473.5 CURVE SMOOTH",
"81 446 OFFCURVE",
"73 420 OFFCURVE",
"73 397 CURVE SMOOTH",
"73 367 OFFCURVE",
"86 341 OFFCURVE",
"112 321.5 CURVE SMOOTH",
"135.333 303.833 OFFCURVE",
"170 295 OFFCURVE",
"216 295 CURVE SMOOTH",
"253.333 295 OFFCURVE",
"302 306.833 OFFCURVE",
"354 339.5 CURVE SMOOTH",
"406 372.167 OFFCURVE",
"462.667 427.333 OFFCURVE",
"520 514 CURVE SMOOTH",
"522 518 OFFCURVE",
"523 522 OFFCURVE",
"523 525 CURVE SMOOTH",
"523 529 OFFCURVE",
"522 532 OFFCURVE",
"520 532 CURVE SMOOTH",
"518 532 OFFCURVE",
"516 530 OFFCURVE",
"513 526 CURVE SMOOTH",
"450.577 418.633 OFFCURVE",
"314.686 318 OFFCURVE",
"214 318 CURVE SMOOTH",
"144 318 OFFCURVE",
"113 345 OFFCURVE",
"113 382 CURVE SMOOTH",
"113 410 OFFCURVE",
"128 440 OFFCURVE",
"156 473.5 CURVE SMOOTH",
"201.333 527.5 OFFCURVE",
"276.333 575.333 OFFCURVE",
"375 606 CURVE SMOOTH",
"424.333 621.333 OFFCURVE",
"477.667 629 OFFCURVE",
"535 629 CURVE SMOOTH",
"583 629 OFFCURVE",
"636.667 626 OFFCURVE",
"682 618 CURVE",
"580.772 502.968 OFFCURVE",
"522.327 401.173 OFFCURVE",
"473 308 CURVE SMOOTH",
"425.767 215.784 OFFCURVE",
"350.147 85.662 OFFCURVE",
"293 31 CURVE",
"222.143 37.442 OFFCURVE",
"171.085 52 OFFCURVE",
"97 52 CURVE SMOOTH",
"77.667 52 OFFCURVE",
"65.167 49.167 OFFCURVE",
"59.5 43.5 CURVE SMOOTH",
"53.833 37.833 OFFCURVE",
"51 32.333 OFFCURVE",
"51 27 CURVE SMOOTH",
"51 -1 OFFCURVE",
"103 -11 OFFCURVE",
"161 -11 CURVE SMOOTH",
"215 -11 OFFCURVE",
"276 -2 OFFCURVE",
"304 10 CURVE",
"346.982 -3.432 OFFCURVE",
"492.592 -26 OFFCURVE",
"558 -26 CURVE SMOOTH"
);
},
{
closed = 1;
nodes = (
"483.167 -3 OFFCURVE",
"362.177 11.82 OFFCURVE",
"320 25 CURVE",
"404.598 86.526 OFFCURVE",
"459.932 174.8 OFFCURVE",
"518 274 CURVE SMOOTH",
"545.677 320.497 OFFCURVE",
"591.458 400.577 OFFCURVE",
"619 448.5 CURVE SMOOTH",
"652.333 506.5 OFFCURVE",
"685.667 562.333 OFFCURVE",
"719 609 CURVE",
"816.546 571.703 OFFCURVE",
"877 464.129 OFFCURVE",
"877 326 CURVE SMOOTH",
"877 246 OFFCURVE",
"845 164.667 OFFCURVE",
"789 102 CURVE SMOOTH",
"733 39.333 OFFCURVE",
"653 -3 OFFCURVE",
"557 -3 CURVE SMOOTH"
);
}
);
width = 941;
}
);
note = Dcroat;
},
{
color = 1;
glyphname = E.ss01;
lastChange = "2021-07-19 11:24:41 +0000";
layers = (
{
anchors = (
{
name = bottom;
position = "{222, -40}";
},
{
name = ogonek;
position = "{249, -41}";
},
{
name = top;
position = "{537, 666}";
},
{
name = topleft;
position = "{20, 880}";
}
);
layerId = "1C8B4FDB-B0E8-4411-8E26-068C67144FEF";
paths = (
{
closed = 1;
nodes = (
"359 -52 OFFCURVE",
"418.667 -40.333 OFFCURVE",
"476 -19 CURVE SMOOTH",
"504.667 -8.333 OFFCURVE",
"532.333 4.833 OFFCURVE",
"559 20.5 CURVE SMOOTH",
"612.333 51.833 OFFCURVE",
"654.833 92.5 OFFCURVE",
"679.5 142.5 CURVE SMOOTH",
"691.833 167.5 OFFCURVE",
"698 194.667 OFFCURVE",
"698 224 CURVE SMOOTH",
"698 254 OFFCURVE",
"670 289 OFFCURVE",
"622 289 CURVE SMOOTH",
"611 289 OFFCURVE",
"605 286 OFFCURVE",
"605 281 CURVE SMOOTH",
"605 278 OFFCURVE",
"609 277 OFFCURVE",
"615 277 CURVE SMOOTH",
"645.667 277 OFFCURVE",
"655 250.667 OFFCURVE",
"655 228 CURVE SMOOTH",
"655 157.333 OFFCURVE",
"607.833 92.833 OFFCURVE",
"540.5 45.5 CURVE SMOOTH",
"473.167 -1.833 OFFCURVE",
"384.333 -31 OFFCURVE",
"303 -31 CURVE SMOOTH",
"169 -31 OFFCURVE",
"90 27 OFFCURVE",
"90 124 CURVE SMOOTH",
"90 208 OFFCURVE",
"145 299 OFFCURVE",
"224 324 CURVE SMOOTH",
"236 327 OFFCURVE",
"248 329 OFFCURVE",
"260 329 CURVE SMOOTH",
"288 329 OFFCURVE",
"317 322 OFFCURVE",
"346 320 CURVE SMOOTH",
"374 316 OFFCURVE",
"396 314 OFFCURVE",
"412 314 CURVE SMOOTH",
"419 314 OFFCURVE",
"424 315 OFFCURVE",
"428.5 315.5 CURVE SMOOTH",
"442.833 317.833 OFFCURVE",
"450 323.667 OFFCURVE",
"450 333 CURVE SMOOTH",
"450 361.821 OFFCURVE",
"399.322 363 OFFCURVE",
"365 363 CURVE SMOOTH",
"330.333 363 OFFCURVE",
"303.333 361.333 OFFCURVE",
"286 360 CURVE",
"268 374 OFFCURVE",
"256 392 OFFCURVE",
"256 417 CURVE SMOOTH",
"256 435 OFFCURVE",
"259 452 OFFCURVE",
"267 469 CURVE",
"315.667 457.667 OFFCURVE",
"364.333 452 OFFCURVE",
"413 452 CURVE SMOOTH",
"569.732 452 OFFCURVE",
"715 500.111 OFFCURVE",
"715 592 CURVE SMOOTH",
"715 639.236 OFFCURVE",
"672.348 666 OFFCURVE",
"586 666 CURVE SMOOTH",
"430.119 666 OFFCURVE",
"278.898 596.862 OFFCURVE",
"229 500 CURVE",
"173 514.667 OFFCURVE",
"123.667 538.333 OFFCURVE",
"93 569 CURVE SMOOTH",
"90 572 OFFCURVE",
"88 573 OFFCURVE",
"86 573 CURVE SMOOTH",
"82 573 OFFCURVE",
"79 569 OFFCURVE",
"79 565 CURVE SMOOTH",
"79 562 OFFCURVE",
"80 559 OFFCURVE",
"83 556 CURVE SMOOTH",
"109.667 525.333 OFFCURVE",
"159.333 500 OFFCURVE",
"222 480 CURVE",
"218 468 OFFCURVE",
"216 456.333 OFFCURVE",
"216 445 CURVE SMOOTH",
"216 406.333 OFFCURVE",
"233 377 OFFCURVE",
"252 358 CURVE SMOOTH",
"254 356 LINE",
"109.497 327.573 OFFCURVE",
"28 231.566 OFFCURVE",
"28 143 CURVE SMOOTH",
"28 88.333 OFFCURVE",
"48.667 39.667 OFFCURVE",
"94 5 CURVE SMOOTH",
"139.333 -29.667 OFFCURVE",
"211 -52 OFFCURVE",
"311 -52 CURVE SMOOTH"
);
},
{
closed = 1;
nodes = (
"373.333 474 OFFCURVE",
"323.667 478.333 OFFCURVE",
"277 489 CURVE",
"338.437 583.715 OFFCURVE",
"513.09 637 OFFCURVE",
"604 637 CURVE SMOOTH",
"636.667 637 OFFCURVE",
"659.333 632.667 OFFCURVE",
"672 624 CURVE SMOOTH",
"684.667 615.333 OFFCURVE",
"691 604.333 OFFCURVE",
"691 591 CURVE SMOOTH",
"691 521.543 OFFCURVE",
"524.522 474 OFFCURVE",
"416 474 CURVE SMOOTH"
);
}
);
width = 715;
}
);
note = E;
},
{
color = 1;
glyphname = F.ss01;
lastChange = "2021-07-26 16:58:31 +0000";
layers = (
{
layerId = "1C8B4FDB-B0E8-4411-8E26-068C67144FEF";
paths = (
{
closed = 1;
nodes = (
"402 -145 OFFCURVE",
"486.333 -112 OFFCURVE",
"557 -52 CURVE SMOOTH",
"627.667 8 OFFCURVE",
"683.667 94.333 OFFCURVE",
"733 201 CURVE",
"821 201 LINE SMOOTH",
"835 201 OFFCURVE",
"847 210 OFFCURVE",
"847 215 CURVE SMOOTH",
"847 217 OFFCURVE",
"845 218 OFFCURVE",
"840 218 CURVE SMOOTH",
"740 218 LINE",
"751 243 LINE SMOOTH",
"772.488 293.892 OFFCURVE",
"808.17 373.613 OFFCURVE",
"828.5 419.5 CURVE SMOOTH",
"879 533 LINE",
"936 523 OFFCURVE",
"976 506 OFFCURVE",
"1044 506 CURVE SMOOTH",
"1055 506 OFFCURVE",
"1067 506 OFFCURVE",
"1079 507 CURVE SMOOTH",
"1132.095 512.057 OFFCURVE",
"1178.221 546.101 OFFCURVE",
"1181 585 CURVE SMOOTH",
"1182 597 OFFCURVE",
"1181 606 OFFCURVE",
"1177 606 CURVE SMOOTH",
"1174 606 OFFCURVE",
"1170 600 OFFCURVE",
"1165 586 CURVE SMOOTH",
"1150.52 546.696 OFFCURVE",
"1094.271 534 OFFCURVE",
"1040 534 CURVE SMOOTH",
"989.441 534 OFFCURVE",
"923.874 542.893 OFFCURVE",
"892 552 CURVE",
"904.779 567.974 OFFCURVE",
"926.081 595.74 OFFCURVE",
"948 593 CURVE",
"951 590 OFFCURVE",
"954 589 OFFCURVE",
"956 589 CURVE SMOOTH",
"960 589 OFFCURVE",
"963 593 OFFCURVE",
"963 598 CURVE SMOOTH",
"963 606 OFFCURVE",
"957 614 OFFCURVE",
"942 614 CURVE SMOOTH",
"907 614 OFFCURVE",
"885 578 OFFCURVE",
"870 558 CURVE",
"771 579 OFFCURVE",
"678 596 OFFCURVE",
"583 596 CURVE SMOOTH",
"555 596 OFFCURVE",
"526 594 OFFCURVE",
"498 591 CURVE SMOOTH",
"380.693 576.694 OFFCURVE",
"210 515.042 OFFCURVE",
"210 391 CURVE SMOOTH",
"210 339 OFFCURVE",
"247 296 OFFCURVE",
"331 296 CURVE SMOOTH",
"459.031 296 OFFCURVE",
"601.628 382.232 OFFCURVE",
"670 462 CURVE SMOOTH",
"675.333 469.333 OFFCURVE",
"678.333 474 OFFCURVE",
"679 476 CURVE SMOOTH",
"679.667 478 OFFCURVE",
"679 479 OFFCURVE",
"677 479 CURVE SMOOTH",
"674.333 479 OFFCURVE",
"670.667 477.667 OFFCURVE",
"666 475 CURVE",
"583.859 406.549 OFFCURVE",
"469.002 322 OFFCURVE",
"357 322 CURVE SMOOTH",
"285 322 OFFCURVE",
"255 349 OFFCURVE",
"255 385 CURVE SMOOTH",
"255 437.38 OFFCURVE",
"307.702 480.759 OFFCURVE",
"364 508 CURVE SMOOTH",
"422.409 536.262 OFFCURVE",
"491.332 554.13 OFFCURVE",
"544 561 CURVE SMOOTH",
"572 565 OFFCURVE",
"600 566 OFFCURVE",
"628 566 CURVE SMOOTH",
"708 566 OFFCURVE",
"786 553 OFFCURVE",
"861 539 CURVE",
"853.016 529.419 OFFCURVE",
"808.203 452.354 OFFCURVE",
"792.5 425 CURVE SMOOTH",
"769.477 384.895 OFFCURVE",
"728.591 310.183 OFFCURVE",
"716 285 CURVE SMOOTH",
"705.333 262.333 OFFCURVE",
"694 240.667 OFFCURVE",
"682 218 CURVE",
"430 218 LINE SMOOTH",
"416 218 OFFCURVE",
"405 209 OFFCURVE",
"405 205 CURVE SMOOTH",
"405 202 OFFCURVE",
"407 201 OFFCURVE",
"411 201 CURVE SMOOTH",
"671 201 LINE",
"623 113 OFFCURVE",
"567.5 32.5 OFFCURVE",
"505.5 -25.5 CURVE SMOOTH",
"443.5 -83.5 OFFCURVE",
"375 -120 OFFCURVE",
"299 -120 CURVE SMOOTH",
"184.185 -120 OFFCURVE",
"76 -64.405 OFFCURVE",
"76 57 CURVE SMOOTH",
"76 98.333 OFFCURVE",
"88.667 133.333 OFFCURVE",
"110 160 CURVE SMOOTH",
"143.333 205.333 OFFCURVE",
"194.667 229 OFFCURVE",
"236 229 CURVE SMOOTH",
"249 229 OFFCURVE",
"254 233 OFFCURVE",
"254 237 CURVE SMOOTH",
"254 242 OFFCURVE",
"246 247 OFFCURVE",
"232 247 CURVE SMOOTH",
"176 247 OFFCURVE",
"127.667 222.667 OFFCURVE",
"93 184 CURVE SMOOTH",
"63.667 149.333 OFFCURVE",
"46 107 OFFCURVE",
"46 59 CURVE SMOOTH",
"46 -93.845 OFFCURVE",
"172.321 -145 OFFCURVE",
"294 -145 CURVE SMOOTH"
);
}
);
width = 857;
}
);
note = F;
},
{
color = 1;
glyphname = G.ss01;
lastChange = "2021-07-26 16:58:15 +0000";
layers = (
{
anchors = (
{
name = bottom;
position = "{261, -358}";
},
{
name = top;
position = "{593, 670}";
}
);
layerId = "1C8B4FDB-B0E8-4411-8E26-068C67144FEF";
paths = (
{
closed = 1;
nodes = (
"118 -425 OFFCURVE",
"134 -423 OFFCURVE",
"151 -419 CURVE SMOOTH",
"200.333 -409.667 OFFCURVE",
"260.5 -386.667 OFFCURVE",
"326.5 -336 CURVE SMOOTH",
"392.5 -285.333 OFFCURVE",
"465 -207.667 OFFCURVE",
"537 -89 CURVE",
"562.333 -91.667 OFFCURVE",
"595 -96.333 OFFCURVE",
"603 -111 CURVE",
"606 -115 OFFCURVE",
"608 -115 OFFCURVE",
"608 -111 CURVE SMOOTH",
"608 -109 OFFCURVE",
"607 -106 OFFCURVE",
"606 -102 CURVE",
"596.667 -83.333 OFFCURVE",
"575.333 -72 OFFCURVE",
"550 -68 CURVE",
"592.167 7.458 OFFCURVE",
"631.974 158.692 OFFCURVE",
"635 195 CURVE SMOOTH",
"640 237 OFFCURVE",
"615 261 OFFCURVE",
"597 261 CURVE SMOOTH",
"587 261 OFFCURVE",
"579 254 OFFCURVE",
"579 239 CURVE SMOOTH",
"579 233 OFFCURVE",
"580 226 OFFCURVE",
"583 217 CURVE",
"585.5 205.5 LINE",
"590 187 LINE",
"567 160 LINE",
"546 135 LINE SMOOTH",
"477 53 OFFCURVE",
"330.421 -33 OFFCURVE",
"233 -33 CURVE SMOOTH",
"139.667 -33 OFFCURVE",
"93 19.333 OFFCURVE",
"93 110 CURVE SMOOTH",
"93 209.534 OFFCURVE",
"147.986 317.069 OFFCURVE",
"209 394 CURVE",
"263.667 378 OFFCURVE",
"319 373 OFFCURVE",
"375 373 CURVE SMOOTH",
"471.22 373 OFFCURVE",
"596.326 393.952 OFFCURVE",
"677 446 CURVE SMOOTH",
"714.771 472.98 OFFCURVE",
"755 514.887 OFFCURVE",
"755 563 CURVE SMOOTH",
"755 629.83 OFFCURVE",
"681.967 658 OFFCURVE",
"620 658 CURVE SMOOTH",
"536 658 OFFCURVE",
"454 633.167 OFFCURVE",
"378 592.5 CURVE SMOOTH",
"302 551.833 OFFCURVE",
"233 495 OFFCURVE",
"173 431 CURVE",
"128.328 452.022 OFFCURVE",
"79 500.705 OFFCURVE",
"79 550 CURVE SMOOTH",
"79 561.333 OFFCURVE",
"81.167 569.5 OFFCURVE",
"85.5 574.5 CURVE SMOOTH",
"89.833 579.5 OFFCURVE",
"92 584.667 OFFCURVE",
"92 590 CURVE SMOOTH",
"92 594 OFFCURVE",
"90.667 596 OFFCURVE",
"88 596 CURVE SMOOTH",
"85.333 596 OFFCURVE",
"82 594.667 OFFCURVE",
"78 592 CURVE SMOOTH",
"62 578.667 OFFCURVE",
"58 558 OFFCURVE",
"58 538 CURVE SMOOTH",
"58 516.667 OFFCURVE",
"62.667 494.333 OFFCURVE",
"76 477 CURVE SMOOTH",
"97.333 450.333 OFFCURVE",
"126.333 428.667 OFFCURVE",
"157 414 CURVE",
"123.667 375.333 OFFCURVE",
"93 332.667 OFFCURVE",
"73 286 CURVE SMOOTH",
"46.333 230 OFFCURVE",
"26 163.667 OFFCURVE",
"26 101 CURVE SMOOTH",
"26 -16.333 OFFCURVE",
"95.667 -70 OFFCURVE",
"209 -70 CURVE SMOOTH",
"326.333 -70 OFFCURVE",
"452 -6 OFFCURVE",
"558 115 CURVE SMOOTH",
"600 163 LINE",
"600 162.333 OFFCURVE",
"600.333 162 OFFCURVE",
"601 162 CURVE",
"598.245 112.407 OFFCURVE",
"553.65 -2.525 OFFCURVE",
"512 -65 CURVE",
"395.807 -72.922 OFFCURVE",
"173.379 -173.191 OFFCURVE",
"86 -258 CURVE SMOOTH",
"46 -297 OFFCURVE",
"27 -335 OFFCURVE",
"27 -365 CURVE SMOOTH",
"27 -401 OFFCURVE",
"54 -425 OFFCURVE",
"104 -425 CURVE SMOOTH"
);
},
{
closed = 1;
nodes = (
"65 -399 OFFCURVE",
"51 -388 OFFCURVE",
"51 -368 CURVE SMOOTH",
"51 -342 OFFCURVE",
"73 -303 OFFCURVE",
"127 -257 CURVE SMOOTH",
"219.499 -179.918 OFFCURVE",
"384.186 -112.867 OFFCURVE",
"492 -94 CURVE",
"462.667 -134 OFFCURVE",
"417.5 -184.167 OFFCURVE",
"359.5 -235.5 CURVE SMOOTH",
"301.5 -286.833 OFFCURVE",
"231.333 -339 OFFCURVE",
"154 -379 CURVE SMOOTH",
"128 -393 OFFCURVE",
"105 -399 OFFCURVE",
"88 -399 CURVE SMOOTH"
);
},
{
closed = 1;
nodes = (
"329.667 392 OFFCURVE",
"274.667 397.667 OFFCURVE",
"224 411 CURVE",
"317.708 521.245 OFFCURVE",
"464.116 636 OFFCURVE",
"613 636 CURVE SMOOTH",
"662.633 636 OFFCURVE",
"715 613.692 OFFCURVE",
"715 560 CURVE SMOOTH",
"715 524 OFFCURVE",
"690.333 494.667 OFFCURVE",
"665 472 CURVE SMOOTH",
"594.45 411.902 OFFCURVE",
"474.502 392 OFFCURVE",
"383 392 CURVE SMOOTH"
);
}
);
userData = {
assembly = "SVTCA[0]	/* SetFreedomAndProjectionVectorToAxis */\012PUSHW[ ]	/* 4 values pushed */\01245 2 143 4 \012CALL[ ]	/* CallFunction */\012PUSHW[ ]	/* 1 value pushed */\01245 \012SRP0[ ]	/* SetRefPoint0 */\012PUSHW[ ]	/* 1 value pushed */\01210 \012MDRP[10000]	/* MoveDirectRelPt */\012PUSHW[ ]	/* 1 value pushed */\01210 \012MDAP[1]	/* MoveDirectAbsPt */\012PUSHW[ ]	/* 1 value pushed */\012143 \012SRP0[ ]	/* SetRefPoint0 */\012PUSHW[ ]	/* 1 value pushed */\01219 \012MDRP[10000]	/* MoveDirectRelPt */\012PUSHW[ ]	/* 1 value pushed */\01219 \012MDAP[1]	/* MoveDirectAbsPt */\012PUSHW[ ]	/* 1 value pushed */\01245 \012SRP0[ ]	/* SetRefPoint0 */\012PUSHW[ ]	/* 1 value pushed */\01234 \012MDRP[10000]	/* MoveDirectRelPt */\012PUSHW[ ]	/* 1 value pushed */\01234 \012MDAP[1]	/* MoveDirectAbsPt */\012IUP[0]	/* InterpolateUntPts */\012IUP[1]	/* InterpolateUntPts */";
};
width = 656;
}
);
note = G;
},
{
color = 1;
glyphname = H.ss01;
lastChange = "2021-07-19 11:24:41 +0000";
layers = (
{
anchors = (
{
name = bottom;
position = "{737, 0}";
},
{
name = center;
position = "{534, 440}";
},
{
name = top;
position = "{1075, 644}";
},
{
name = topleft;
position = "{20, 880}";
}
);
layerId = "1C8B4FDB-B0E8-4411-8E26-068C67144FEF";
paths = (
{
closed = 1;
nodes = (
"425.333 -111 OFFCURVE",
"508 -78 OFFCURVE",
"576 -18 CURVE SMOOTH",
"644 42 OFFCURVE",
"697 128.333 OFFCURVE",
"745 235 CURVE",
"940 235 LINE",
"913.333 173.667 OFFCURVE",
"892.333 119.667 OFFCURVE",
"887 89 CURVE SMOOTH",
"886 79 OFFCURVE",
"885 71 OFFCURVE",
"885 63 CURVE SMOOTH",
"885 17 OFFCURVE",
"908 -2 OFFCURVE",
"938 -2 CURVE SMOOTH",
"965 -2 OFFCURVE",
"996 12 OFFCURVE",
"1022 37 CURVE SMOOTH",
"1036.667 51.667 OFFCURVE",
"1053.333 68.667 OFFCURVE",
"1068 86 CURVE SMOOTH",
"1084 103.333 OFFCURVE",
"1097.333 120.333 OFFCURVE",
"1112 139 CURVE SMOOTH",
"1115 142 OFFCURVE",
"1116 146 OFFCURVE",
"1116 149 CURVE SMOOTH",
"1116 153 OFFCURVE",
"1114 157 OFFCURVE",
"1110 157 CURVE SMOOTH",
"1109 157 OFFCURVE",
"1107 156 OFFCURVE",
"1105 154 CURVE SMOOTH",
"1085 130 OFFCURVE",
"1065.333 107.667 OFFCURVE",
"1040 81 CURVE SMOOTH",
"1021.056 62.056 OFFCURVE",
"985.044 31 OFFCURVE",
"962 31 CURVE SMOOTH",
"947 31 OFFCURVE",
"937 44 OFFCURVE",
"937 70 CURVE SMOOTH",
"937 85 OFFCURVE",
"941 104 OFFCURVE",
"949 127 CURVE SMOOTH",
"959.667 157.667 OFFCURVE",
"972.333 195 OFFCURVE",
"991 235 CURVE",
"1040 235 LINE SMOOTH",
"1053 235 OFFCURVE",
"1065 243 OFFCURVE",
"1065 248 CURVE SMOOTH",
"1065 251 OFFCURVE",
"1063 252 OFFCURVE",
"1058 252 CURVE SMOOTH",
"999 252 LINE",
"1028.333 316 OFFCURVE",
"1064 384.667 OFFCURVE",
"1100 450 CURVE SMOOTH",
"1136 515.333 OFFCURVE",
"1175.333 569.333 OFFCURVE",
"1210 608 CURVE",
"1166.805 611.323 OFFCURVE",
"1108.841 555.795 OFFCURVE",
"1053 457 CURVE SMOOTH",
"1021.71 397.896 OFFCURVE",
"976.575 313.514 OFFCURVE",
"949 252 CURVE",
"753 252 LINE",
"777 309.333 OFFCURVE",
"810 383.333 OFFCURVE",
"838 446 CURVE SMOOTH",
"860.658 496.71 OFFCURVE",
"886.536 553.857 OFFCURVE",
"896 569 CURVE SMOOTH",
"917.333 605 OFFCURVE",
"940 623 OFFCURVE",
"964 623 CURVE SMOOTH",
"974 623 OFFCURVE",
"979 627 OFFCURVE",
"979 631 CURVE SMOOTH",
"979 636 OFFCURVE",
"971 642 OFFCURVE",
"955 642 CURVE SMOOTH",
"915.842 642 OFFCURVE",
"894.11 611.184 OFFCURVE",
"882 591 CURVE",
"816.667 604.333 OFFCURVE",
"758.167 614.833 OFFCURVE",
"701.5 619.5 CURVE SMOOTH",
"679 621 OFFCURVE",
"653 622 OFFCURVE",
"626 622 CURVE SMOOTH",
"593 622 OFFCURVE",
"559 621 OFFCURVE",
"531 617 CURVE SMOOTH",
"421.671 602.615 OFFCURVE",
"262 550.504 OFFCURVE",
"262 435 CURVE SMOOTH",
"262 387 OFFCURVE",
"296 348 OFFCURVE",
"376 348 CURVE SMOOTH",
"494.148 348 OFFCURVE",
"627.423 427 OFFCURVE",
"692 500 CURVE SMOOTH",
"697.333 506 OFFCURVE",
"700.167 510 OFFCURVE",
"700.5 512 CURVE SMOOTH",
"700.833 514 OFFCURVE",
"700 515 OFFCURVE",
"698 515 CURVE SMOOTH",
"695.333 515 OFFCURVE",
"692 514 OFFCURVE",
"688 512 CURVE",
"614.281 449.203 OFFCURVE",
"500.518 371 OFFCURVE",
"399 371 CURVE SMOOTH",
"331 371 OFFCURVE",
"303 395.333 OFFCURVE",
"303 430 CURVE SMOOTH",
"303 520.924 OFFCURVE",
"479.476 581.316 OFFCURVE",
"575 590 CURVE SMOOTH",
"605 594 OFFCURVE",
"633 596 OFFCURVE",
"662 596 CURVE SMOOTH",
"731 596 OFFCURVE",
"799 585 OFFCURVE",
"874 571 CURVE",
"861.779 556.335 OFFCURVE",
"818.737 477.91 OFFCURVE",
"799 442.5 CURVE SMOOTH",
"772.884 395.645 OFFCURVE",
"731.106 318.212 OFFCURVE",
"718 292 CURVE SMOOTH",
"698 252 LINE",
"598 252 LINE SMOOTH",
"584 252 OFFCURVE",
"573 243 OFFCURVE",
"573 239 CURVE SMOOTH",
"573 236 OFFCURVE",
"575 235 OFFCURVE",
"579 235 CURVE SMOOTH",
"688 235 LINE",
"641.333 148.333 OFFCURVE",
"589.333 66.667 OFFCURVE",
"528 8 CURVE SMOOTH",
"466.667 -50.667 OFFCURVE",
"399 -88 OFFCURVE",
"323 -88 CURVE SMOOTH",
"214.995 -88 OFFCURVE",
"112 -35.691 OFFCURVE",
"112 77 CURVE SMOOTH",
"112 115.667 OFFCURVE",
"125.333 149 OFFCURVE",
"144 173 CURVE SMOOTH",
"174.667 215.667 OFFCURVE",
"224 240 OFFCURVE",
"264 240 CURVE SMOOTH",
"276 240 OFFCURVE",
"281 243 OFFCURVE",
"281 247 CURVE SMOOTH",
"281 251 OFFCURVE",
"273 256 OFFCURVE",
"260 256 CURVE SMOOTH",
"208 256 OFFCURVE",
"161.333 233.333 OFFCURVE",
"128 196 CURVE SMOOTH",
"100 165.333 OFFCURVE",
"84 124.333 OFFCURVE",
"84 79 CURVE SMOOTH",
"84 -65.466 OFFCURVE",
"204.038 -111 OFFCURVE",
"320 -111 CURVE SMOOTH"
);
}
);
width = 1068;
}
);
note = H;
},
{
color = 1;
glyphname = Hbar.ss01;
lastChange = "2021-07-19 11:24:41 +0000";
layers = (
{
layerId = "1C8B4FDB-B0E8-4411-8E26-068C67144FEF";
paths = (
{
closed = 1;
nodes = (
"425.333 -111 OFFCURVE",
"508 -78 OFFCURVE",
"576 -18 CURVE SMOOTH",
"644 42 OFFCURVE",
"697 128.333 OFFCURVE",
"745 235 CURVE",
"940 235 LINE",
"913.333 173.667 OFFCURVE",
"892.333 119.667 OFFCURVE",
"887 89 CURVE SMOOTH",
"886 79 OFFCURVE",
"885 71 OFFCURVE",
"885 63 CURVE SMOOTH",
"885 17 OFFCURVE",
"908 -2 OFFCURVE",
"938 -2 CURVE SMOOTH",
"965 -2 OFFCURVE",
"996 12 OFFCURVE",
"1022 37 CURVE SMOOTH",
"1036.667 51.667 OFFCURVE",
"1053.333 68.667 OFFCURVE",
"1068 86 CURVE SMOOTH",
"1084 103.333 OFFCURVE",
"1097.333 120.333 OFFCURVE",
"1112 139 CURVE SMOOTH",
"1115 142 OFFCURVE",
"1116 146 OFFCURVE",
"1116 149 CURVE SMOOTH",
"1116 153 OFFCURVE",
"1114 157 OFFCURVE",
"1110 157 CURVE SMOOTH",
"1109 157 OFFCURVE",
"1107 156 OFFCURVE",
"1105 154 CURVE SMOOTH",
"1085 130 OFFCURVE",
"1065.333 107.667 OFFCURVE",
"1040 81 CURVE SMOOTH",
"1021.056 62.056 OFFCURVE",
"985.044 31 OFFCURVE",
"962 31 CURVE SMOOTH",
"947 31 OFFCURVE",
"937 44 OFFCURVE",
"937 70 CURVE SMOOTH",
"937 85 OFFCURVE",
"941 104 OFFCURVE",
"949 127 CURVE SMOOTH",
"959.667 157.667 OFFCURVE",
"972.333 195 OFFCURVE",
"991 235 CURVE",
"1040 235 LINE SMOOTH",
"1053 235 OFFCURVE",
"1065 243 OFFCURVE",
"1065 248 CURVE SMOOTH",
"1065 251 OFFCURVE",
"1063 252 OFFCURVE",
"1058 252 CURVE SMOOTH",
"999 252 LINE",
"1021.667 300 OFFCURVE",
"1047.333 352.333 OFFCURVE",
"1074 403 CURVE",
"1111.333 403 OFFCURVE",
"1142.333 401.333 OFFCURVE",
"1157 396 CURVE",
"1157 402.667 OFFCURVE",
"1155.167 409 OFFCURVE",
"1151.5 415 CURVE SMOOTH",
"1147.833 421 OFFCURVE",
"1136.667 424.667 OFFCURVE",
"1118 426 CURVE SMOOTH",
"1087 426 LINE",
"1091 434 OFFCURVE",
"1094.667 442 OFFCURVE",
"1100 450 CURVE SMOOTH",
"1136 515.333 OFFCURVE",
"1175.333 569.333 OFFCURVE",
"1210 608 CURVE",
"1166.805 611.323 OFFCURVE",
"1108.841 555.795 OFFCURVE",
"1053 457 CURVE SMOOTH",
"1045 442.5 LINE",
"1036 426 LINE",
"976 426 OFFCURVE",
"899 424.333 OFFCURVE",
"827 423 CURVE",
"845.721 465.122 OFFCURVE",
"886.442 556.257 OFFCURVE",
"896 569 CURVE",
"917.333 605 OFFCURVE",
"940 623 OFFCURVE",
"964 623 CURVE SMOOTH",
"974 623 OFFCURVE",
"979 627 OFFCURVE",
"979 631 CURVE SMOOTH",
"979 636 OFFCURVE",
"971 642 OFFCURVE",
"955 642 CURVE SMOOTH",
"915.842 642 OFFCURVE",
"894.11 611.184 OFFCURVE",
"882 591 CURVE",
"816.667 604.333 OFFCURVE",
"758.167 614.833 OFFCURVE",
"701.5 619.5 CURVE SMOOTH",
"679 621 OFFCURVE",
"653 622 OFFCURVE",
"626 622 CURVE SMOOTH",
"593 622 OFFCURVE",
"559 621 OFFCURVE",
"531 617 CURVE SMOOTH",
"421.671 602.615 OFFCURVE",
"262 550.504 OFFCURVE",
"262 435 CURVE SMOOTH",
"262 387 OFFCURVE",
"296 348 OFFCURVE",
"376 348 CURVE SMOOTH",
"494.148 348 OFFCURVE",
"627.423 427 OFFCURVE",
"692 500 CURVE SMOOTH",
"697.333 506 OFFCURVE",
"700.167 510 OFFCURVE",
"700.5 512 CURVE SMOOTH",
"700.833 514 OFFCURVE",
"700 515 OFFCURVE",
"698 515 CURVE SMOOTH",
"695.333 515 OFFCURVE",
"692 514 OFFCURVE",
"688 512 CURVE",
"614.281 449.203 OFFCURVE",
"500.518 371 OFFCURVE",
"399 371 CURVE SMOOTH",
"331 371 OFFCURVE",
"303 395.333 OFFCURVE",
"303 430 CURVE SMOOTH",
"303 520.924 OFFCURVE",
"479.476 581.316 OFFCURVE",
"575 590 CURVE SMOOTH",
"605 594 OFFCURVE",
"633 596 OFFCURVE",
"662 596 CURVE SMOOTH",
"731 596 OFFCURVE",
"799 585 OFFCURVE",
"874 571 CURVE",
"863.214 557.518 OFFCURVE",
"815.209 471.587 OFFCURVE",
"788 423 CURVE",
"701 422 LINE SMOOTH",
"676.333 422 OFFCURVE",
"660 422.667 OFFCURVE",
"652 424 CURVE",
"652 410.667 OFFCURVE",
"655.333 397 OFFCURVE",
"690 397 CURVE SMOOTH",
"702 397 OFFCURVE",
"734 397.667 OFFCURVE",
"774 399 CURVE",
"750 353.667 OFFCURVE",
"728.667 313.333 OFFCURVE",
"718 292 CURVE SMOOTH",
"698 252 LINE",
"598 252 LINE SMOOTH",
"584 252 OFFCURVE",
"573 243 OFFCURVE",
"573 239 CURVE SMOOTH",
"573 236 OFFCURVE",
"575 235 OFFCURVE",
"579 235 CURVE SMOOTH",
"688 235 LINE",
"641.333 148.333 OFFCURVE",
"589.333 66.667 OFFCURVE",
"528 8 CURVE SMOOTH",
"466.667 -50.667 OFFCURVE",
"399 -88 OFFCURVE",
"323 -88 CURVE SMOOTH",
"214.995 -88 OFFCURVE",
"112 -35.691 OFFCURVE",
"112 77 CURVE SMOOTH",
"112 115.667 OFFCURVE",
"125.333 149 OFFCURVE",
"144 173 CURVE SMOOTH",
"174.667 215.667 OFFCURVE",
"224 240 OFFCURVE",
"264 240 CURVE SMOOTH",
"276 240 OFFCURVE",
"281 243 OFFCURVE",
"281 247 CURVE SMOOTH",
"281 251 OFFCURVE",
"273 256 OFFCURVE",
"260 256 CURVE SMOOTH",
"208 256 OFFCURVE",
"161.333 233.333 OFFCURVE",
"128 196 CURVE SMOOTH",
"100 165.333 OFFCURVE",
"84 124.333 OFFCURVE",
"84 79 CURVE SMOOTH",
"84 -65.466 OFFCURVE",
"204.038 -111 OFFCURVE",
"320 -111 CURVE SMOOTH"
);
},
{
closed = 1;
nodes = (
"783.5 322.5 LINE",
"817 399 LINE",
"1024 404 LINE",
"1000 360 OFFCURVE",
"973 305.333 OFFCURVE",
"949 252 CURVE",
"753 252 LINE"
);
}
);
userData = {
assembly = "PUSHW[ ]	/* 1 value pushed */\012191 \012MDAP[1]	/* MoveDirectAbsPt */\012PUSHW[ ]	/* 1 value pushed */\012134 \012MDAP[1]	/* MoveDirectAbsPt */\012PUSHW[ ]	/* 1 value pushed */\012191 \012SRP0[ ]	/* SetRefPoint0 */\012PUSHW[ ]	/* 1 value pushed */\01255 \012MDRP[10000]	/* MoveDirectRelPt */\012PUSHW[ ]	/* 1 value pushed */\01255 \012MDAP[1]	/* MoveDirectAbsPt */\012NPUSHW[ ]	/* 3 values pushed */\012250 134 1 \012DELTAP2[ ]	/* DeltaExceptionP2 */\012NPUSHW[ ]	/* 3 values pushed */\01210 134 1 \012DELTAP3[ ]	/* DeltaExceptionP3 */\012NPUSHW[ ]	/* 33 values pushed */\0129 134 25 134 41 134 57 134 73 134 89 134 105 134 121 134 137 134 153 134 169 134 185 134 201 134 217 134 233 134 249 134 16 \012DELTAP1[ ]	/* DeltaExceptionP1 */\012NPUSHW[ ]	/* 31 values pushed */\0129 134 25 134 41 134 57 134 73 134 89 134 105 134 121 134 137 134 153 134 169 134 185 134 201 134 217 134 233 134 15 \012DELTAP2[ ]	/* DeltaExceptionP2 */\012PUSHW[ ]	/* 1 value pushed */\012134 \012SRP0[ ]	/* SetRefPoint0 */\012PUSHW[ ]	/* 1 value pushed */\01261 \012MDRP[10000]	/* MoveDirectRelPt */\012PUSHW[ ]	/* 1 value pushed */\01261 \012MDAP[1]	/* MoveDirectAbsPt */\012PUSHW[ ]	/* 1 value pushed */\012134 \012SRP0[ ]	/* SetRefPoint0 */\012PUSHW[ ]	/* 1 value pushed */\01264 \012MDRP[10000]	/* MoveDirectRelPt */\012PUSHW[ ]	/* 1 value pushed */\01264 \012MDAP[1]	/* MoveDirectAbsPt */\012PUSHW[ ]	/* 1 value pushed */\01255 \012SRP0[ ]	/* SetRefPoint0 */\012PUSHW[ ]	/* 2 values pushed */\01270 6 \012MIRP[10100]	/* MoveIndirectRelPt */\012NPUSHW[ ]	/* 33 values pushed */\0126 70 22 70 38 70 54 70 70 70 86 70 102 70 118 70 134 70 150 70 166 70 182 70 198 70 214 70 230 70 246 70 16 \012DELTAP1[ ]	/* DeltaExceptionP1 */\012NPUSHW[ ]	/* 31 values pushed */\0126 70 22 70 38 70 54 70 70 70 86 70 102 70 118 70 134 70 150 70 166 70 182 70 198 70 214 70 230 70 15 \012DELTAP2[ ]	/* DeltaExceptionP2 */\012NPUSHW[ ]	/* 3 values pushed */\012245 70 1 \012DELTAP2[ ]	/* DeltaExceptionP2 */\012NPUSHW[ ]	/* 3 values pushed */\0125 70 1 \012DELTAP3[ ]	/* DeltaExceptionP3 */\012PUSHW[ ]	/* 1 value pushed */\012134 \012SRP0[ ]	/* SetRefPoint0 */\012PUSHW[ ]	/* 2 values pushed */\012113 6 \012MIRP[10100]	/* MoveIndirectRelPt */\012SVTCA[0]	/* SetFreedomAndProjectionVectorToAxis */\012PUSHW[ ]	/* 4 values pushed */\01275 1 50 4 \012CALL[ ]	/* CallFunction */\012PUSHW[ ]	/* 4 values pushed */\012178 1 3 4 \012CALL[ ]	/* CallFunction */\012PUSHW[ ]	/* 4 values pushed */\012116 1 131 4 \012CALL[ ]	/* CallFunction */\012PUSHW[ ]	/* 1 value pushed */\012116 \012SRP0[ ]	/* SetRefPoint0 */\012PUSHW[ ]	/* 1 value pushed */\01281 \012MDRP[11100]	/* MoveDirectRelPt */\012PUSHW[ ]	/* 3 values pushed */\0126 116 81 \012SRP1[ ]	/* SetRefPoint1 */\012SRP2[ ]	/* SetRefPoint2 */\012IP[ ]	/* InterpolatePts */\012PUSHW[ ]	/* 1 value pushed */\01212 \012MDRP[10000]	/* MoveDirectRelPt */\012PUSHW[ ]	/* 1 value pushed */\01281 \012SRP0[ ]	/* SetRefPoint0 */\012PUSHW[ ]	/* 1 value pushed */\01244 \012MDRP[10000]	/* MoveDirectRelPt */\012PUSHW[ ]	/* 1 value pushed */\01281 \012SRP0[ ]	/* SetRefPoint0 */\012PUSHW[ ]	/* 1 value pushed */\01264 \012MDRP[10000]	/* MoveDirectRelPt */\012PUSHW[ ]	/* 1 value pushed */\01264 \012MDAP[1]	/* MoveDirectAbsPt */\012PUSHW[ ]	/* 1 value pushed */\0123 \012SRP0[ ]	/* SetRefPoint0 */\012PUSHW[ ]	/* 1 value pushed */\01291 \012MDRP[10000]	/* MoveDirectRelPt */\012PUSHW[ ]	/* 1 value pushed */\01291 \012MDAP[1]	/* MoveDirectAbsPt */\012PUSHW[ ]	/* 1 value pushed */\0123 \012SRP0[ ]	/* SetRefPoint0 */\012PUSHW[ ]	/* 1 value pushed */\01294 \012MDRP[10000]	/* MoveDirectRelPt */\012PUSHW[ ]	/* 1 value pushed */\01294 \012MDAP[1]	/* MoveDirectAbsPt */\012PUSHW[ ]	/* 1 value pushed */\012178 \012SRP0[ ]	/* SetRefPoint0 */\012PUSHW[ ]	/* 1 value pushed */\01297 \012MDRP[10000]	/* MoveDirectRelPt */\012PUSHW[ ]	/* 1 value pushed */\01297 \012MDAP[1]	/* MoveDirectAbsPt */\012PUSHW[ ]	/* 1 value pushed */\012178 \012SRP0[ ]	/* SetRefPoint0 */\012PUSHW[ ]	/* 1 value pushed */\012100 \012MDRP[10000]	/* MoveDirectRelPt */\012PUSHW[ ]	/* 1 value pushed */\012100 \012MDAP[1]	/* MoveDirectAbsPt */\012PUSHW[ ]	/* 1 value pushed */\0123 \012SRP0[ ]	/* SetRefPoint0 */\012PUSHW[ ]	/* 1 value pushed */\012149 \012MDRP[11100]	/* MoveDirectRelPt */\012PUSHW[ ]	/* 3 values pushed */\012105 3 149 \012SRP1[ ]	/* SetRefPoint1 */\012SRP2[ ]	/* SetRefPoint2 */\012IP[ ]	/* InterpolatePts */\012PUSHW[ ]	/* 1 value pushed */\012178 \012SRP0[ ]	/* SetRefPoint0 */\012PUSHW[ ]	/* 1 value pushed */\012161 \012MDRP[10000]	/* MoveDirectRelPt */\012PUSHW[ ]	/* 1 value pushed */\012161 \012MDAP[1]	/* MoveDirectAbsPt */\012PUSHW[ ]	/* 1 value pushed */\012178 \012SRP0[ ]	/* SetRefPoint0 */\012PUSHW[ ]	/* 1 value pushed */\012164 \012MDRP[10000]	/* MoveDirectRelPt */\012PUSHW[ ]	/* 3 values pushed */\012172 3 149 \012SRP1[ ]	/* SetRefPoint1 */\012SRP2[ ]	/* SetRefPoint2 */\012IP[ ]	/* InterpolatePts */\012PUSHW[ ]	/* 1 value pushed */\0123 \012SRP0[ ]	/* SetRefPoint0 */\012PUSHW[ ]	/* 1 value pushed */\012185 \012MDRP[10000]	/* MoveDirectRelPt */\012PUSHW[ ]	/* 1 value pushed */\012185 \012MDAP[1]	/* MoveDirectAbsPt */\012PUSHW[ ]	/* 1 value pushed */\0123 \012SRP0[ ]	/* SetRefPoint0 */\012PUSHW[ ]	/* 1 value pushed */\012187 \012MDRP[10000]	/* MoveDirectRelPt */\012PUSHW[ ]	/* 1 value pushed */\012187 \012MDAP[1]	/* MoveDirectAbsPt */\012PUSHW[ ]	/* 3 values pushed */\012190 116 81 \012SRP1[ ]	/* SetRefPoint1 */\012SRP2[ ]	/* SetRefPoint2 */\012IP[ ]	/* InterpolatePts */\012IUP[0]	/* InterpolateUntPts */\012IUP[1]	/* InterpolateUntPts */";
};
width = 1068;
}
);
note = Hbar;
},
{
color = 1;
glyphname = I.ss01;
lastChange = "2021-07-26 16:58:15 +0000";
layers = (
{
anchors = (
{
name = bottom;
position = "{187, -237}";
},
{
name = ogonek;
position = "{179, -236}";
},
{
name = top;
position = "{1024, 718}";
},
{
name = topleft;
position = "{20, 880}";
}
);
layerId = "1C8B4FDB-B0E8-4411-8E26-068C67144FEF";
paths = (
{
closed = 1;
nodes = (
"270 -242 OFFCURVE",
"298 -240 OFFCURVE",
"326 -235 CURVE SMOOTH",
"378 -227 OFFCURVE",
"453.667 -201.5 OFFCURVE",
"527 -159.5 CURVE SMOOTH",
"600.333 -117.5 OFFCURVE",
"673.333 -59.333 OFFCURVE",
"720 14 CURVE SMOOTH",
"792 127.333 OFFCURVE",
"830.5 238 OFFCURVE",
"864.5 342 CURVE SMOOTH",
"898.5 446 OFFCURVE",
"928 544.333 OFFCURVE",
"980 635 CURVE",
"984 635 OFFCURVE",
"989.667 636.167 OFFCURVE",
"997 638.5 CURVE SMOOTH",
"1004.333 640.833 OFFCURVE",
"1010.333 642 OFFCURVE",
"1015 642 CURVE",
"1047.168 650.042 OFFCURVE",
"1079 665.876 OFFCURVE",
"1079 697 CURVE SMOOTH",
"1079 714 OFFCURVE",
"1068 721 OFFCURVE",
"1053 721 CURVE SMOOTH",
"1047 721 OFFCURVE",
"1041 720 OFFCURVE",
"1034 718 CURVE SMOOTH",
"1006.956 709.887 OFFCURVE",
"984.796 672.728 OFFCURVE",
"970 653 CURVE",
"920.667 646.333 OFFCURVE",
"858.833 634.333 OFFCURVE",
"795.5 613 CURVE SMOOTH",
"763.833 602.333 OFFCURVE",
"732.833 589.5 OFFCURVE",
"702.5 574.5 CURVE SMOOTH",
"641.833 544.5 OFFCURVE",
"591.667 504.667 OFFCURVE",
"557 454 CURVE SMOOTH",
"535 422 OFFCURVE",
"522 385 OFFCURVE",
"522 344 CURVE SMOOTH",
"522 278 OFFCURVE",
"566 235 OFFCURVE",
"625 235 CURVE SMOOTH",
"639 235 OFFCURVE",
"654 238 OFFCURVE",
"669 243 CURVE SMOOTH",
"723 262 OFFCURVE",
"768 321 OFFCURVE",
"768 376 CURVE SMOOTH",
"768 388 OFFCURVE",
"766 400 OFFCURVE",
"761 411 CURVE",
"757 416 OFFCURVE",
"752 418 OFFCURVE",
"748 418 CURVE SMOOTH",
"743 418 OFFCURVE",
"739 415 OFFCURVE",
"739 411 CURVE SMOOTH",
"739 409 OFFCURVE",
"740 406 OFFCURVE",
"744 404 CURVE",
"748 398 OFFCURVE",
"751 389 OFFCURVE",
"751 378 CURVE SMOOTH",
"751 342 OFFCURVE",
"726 284 OFFCURVE",
"670 263 CURVE SMOOTH",
"659 259 OFFCURVE",
"648 257 OFFCURVE",
"638 257 CURVE SMOOTH",
"599 257 OFFCURVE",
"574 289 OFFCURVE",
"574 336 CURVE SMOOTH",
"574 345 OFFCURVE",
"575 354 OFFCURVE",
"577 364 CURVE SMOOTH",
"602.843 516.476 OFFCURVE",
"814.62 608.437 OFFCURVE",
"956 632 CURVE",
"946.667 617.333 OFFCURVE",
"930 588.167 OFFCURVE",
"906 544.5 CURVE SMOOTH",
"882 500.833 OFFCURVE",
"856 447 OFFCURVE",
"828 383 CURVE SMOOTH",
"802.667 327 OFFCURVE",
"769 250.167 OFFCURVE",
"725 169.5 CURVE SMOOTH",
"703 129.167 OFFCURVE",
"678.333 89 OFFCURVE",
"651 49 CURVE SMOOTH",
"596.333 -31 OFFCURVE",
"530.167 -102 OFFCURVE",
"449.5 -154 CURVE SMOOTH",
"409.167 -180 OFFCURVE",
"365.333 -198.667 OFFCURVE",
"318 -210 CURVE SMOOTH",
"299 -215 OFFCURVE",
"278 -217 OFFCURVE",
"258 -217 CURVE SMOOTH",
"207 -217 OFFCURVE",
"154 -203 OFFCURVE",
"112 -177.5 CURVE SMOOTH",
"72 -152.833 OFFCURVE",
"45.167 -117 OFFCURVE",
"36.5 -69 CURVE SMOOTH",
"35 -61 OFFCURVE",
"34 -53 OFFCURVE",
"34 -44 CURVE SMOOTH",
"34 -27 OFFCURVE",
"37 -8 OFFCURVE",
"43 12 CURVE SMOOTH",
"59.64 71.427 OFFCURVE",
"109.713 127.532 OFFCURVE",
"144 140 CURVE SMOOTH",
"150 142 OFFCURVE",
"154 146 OFFCURVE",
"154 149 CURVE SMOOTH",
"154 151 OFFCURVE",
"153 152 OFFCURVE",
"148 152 CURVE SMOOTH",
"147 152 OFFCURVE",
"146 152 OFFCURVE",
"145 152 CURVE SMOOTH",
"116.452 152 OFFCURVE",
"49.484 94.21 OFFCURVE",
"31 48 CURVE SMOOTH",
"15 9 OFFCURVE",
"7 -27 OFFCURVE",
"7 -60 CURVE SMOOTH",
"7 -111 OFFCURVE",
"26 -153 OFFCURVE",
"60.5 -183.5 CURVE SMOOTH",
"102 -221 OFFCURVE",
"167 -242 OFFCURVE",
"245 -242 CURVE SMOOTH"
);
},
{
closed = 1;
nodes = (
"1003.439 666.327 OFFCURVE",
"1033.216 699.189 OFFCURVE",
"1041 694 CURVE",
"1048 694 OFFCURVE",
"1051 692 OFFCURVE",
"1051 688 CURVE SMOOTH",
"1051 678 OFFCURVE",
"1030 660 OFFCURVE",
"994 655 CURVE"
);
}
);
width = 850;
}
);
note = I;
},
{
color = 1;
glyphname = IJ.ss01;
lastChange = "2021-07-26 16:58:15 +0000";
layers = (
{
layerId = "1C8B4FDB-B0E8-4411-8E26-068C67144FEF";
paths = (
{
closed = 1;
nodes = (
"270 -242 OFFCURVE",
"298 -240 OFFCURVE",
"326 -235 CURVE SMOOTH",
"378 -227 OFFCURVE",
"453.667 -201.5 OFFCURVE",
"527 -159.5 CURVE SMOOTH",
"600.333 -117.5 OFFCURVE",
"673.333 -59.333 OFFCURVE",
"720 14 CURVE SMOOTH",
"792 127.333 OFFCURVE",
"830.5 238 OFFCURVE",
"864.5 342 CURVE SMOOTH",
"898.5 446 OFFCURVE",
"928 544.333 OFFCURVE",
"980 635 CURVE",
"984 635 OFFCURVE",
"989.667 636.167 OFFCURVE",
"997 638.5 CURVE SMOOTH",
"1004.333 640.833 OFFCURVE",
"1010.333 642 OFFCURVE",
"1015 642 CURVE",
"1047.168 650.042 OFFCURVE",
"1079 665.876 OFFCURVE",
"1079 697 CURVE SMOOTH",
"1079 714 OFFCURVE",
"1068 721 OFFCURVE",
"1053 721 CURVE SMOOTH",
"1047 721 OFFCURVE",
"1041 720 OFFCURVE",
"1034 718 CURVE SMOOTH",
"1006.956 709.887 OFFCURVE",
"984.796 672.728 OFFCURVE",
"970 653 CURVE",
"920.667 646.333 OFFCURVE",
"858.833 634.333 OFFCURVE",
"795.5 613 CURVE SMOOTH",
"763.833 602.333 OFFCURVE",
"732.833 589.5 OFFCURVE",
"702.5 574.5 CURVE SMOOTH",
"641.833 544.5 OFFCURVE",
"591.667 504.667 OFFCURVE",
"557 454 CURVE SMOOTH",
"535 422 OFFCURVE",
"522 385 OFFCURVE",
"522 344 CURVE SMOOTH",
"522 278 OFFCURVE",
"566 235 OFFCURVE",
"625 235 CURVE SMOOTH",
"639 235 OFFCURVE",
"654 238 OFFCURVE",
"669 243 CURVE SMOOTH",
"723 262 OFFCURVE",
"768 321 OFFCURVE",
"768 376 CURVE SMOOTH",
"768 388 OFFCURVE",
"766 400 OFFCURVE",
"761 411 CURVE",
"757 416 OFFCURVE",
"752 418 OFFCURVE",
"748 418 CURVE SMOOTH",
"743 418 OFFCURVE",
"739 415 OFFCURVE",
"739 411 CURVE SMOOTH",
"739 409 OFFCURVE",
"740 406 OFFCURVE",
"744 404 CURVE",
"748 398 OFFCURVE",
"751 389 OFFCURVE",
"751 378 CURVE SMOOTH",
"751 342 OFFCURVE",
"726 284 OFFCURVE",
"670 263 CURVE SMOOTH",
"659 259 OFFCURVE",
"648 257 OFFCURVE",
"638 257 CURVE SMOOTH",
"599 257 OFFCURVE",
"574 289 OFFCURVE",
"574 336 CURVE SMOOTH",
"574 345 OFFCURVE",
"575 354 OFFCURVE",
"577 364 CURVE SMOOTH",
"602.843 516.476 OFFCURVE",
"814.62 608.437 OFFCURVE",
"956 632 CURVE",
"946.667 617.333 OFFCURVE",
"930 588.167 OFFCURVE",
"906 544.5 CURVE SMOOTH",
"882 500.833 OFFCURVE",
"856 447 OFFCURVE",
"828 383 CURVE SMOOTH",
"802.667 327 OFFCURVE",
"769 250.167 OFFCURVE",
"725 169.5 CURVE SMOOTH",
"703 129.167 OFFCURVE",
"678.333 89 OFFCURVE",
"651 49 CURVE SMOOTH",
"596.333 -31 OFFCURVE",
"530.167 -102 OFFCURVE",
"449.5 -154 CURVE SMOOTH",
"409.167 -180 OFFCURVE",
"365.333 -198.667 OFFCURVE",
"318 -210 CURVE SMOOTH",
"299 -215 OFFCURVE",
"278 -217 OFFCURVE",
"258 -217 CURVE SMOOTH",
"207 -217 OFFCURVE",
"154 -203 OFFCURVE",
"112 -177.5 CURVE SMOOTH",
"72 -152.833 OFFCURVE",
"45.167 -117 OFFCURVE",
"36.5 -69 CURVE SMOOTH",
"35 -61 OFFCURVE",
"34 -53 OFFCURVE",
"34 -44 CURVE SMOOTH",
"34 -27 OFFCURVE",
"37 -8 OFFCURVE",
"43 12 CURVE SMOOTH",
"59.64 71.427 OFFCURVE",
"109.713 127.532 OFFCURVE",
"144 140 CURVE SMOOTH",
"150 142 OFFCURVE",
"154 146 OFFCURVE",
"154 149 CURVE SMOOTH",
"154 151 OFFCURVE",
"153 152 OFFCURVE",
"148 152 CURVE SMOOTH",
"147 152 OFFCURVE",
"146 152 OFFCURVE",
"145 152 CURVE SMOOTH",
"116.452 152 OFFCURVE",
"49.484 94.21 OFFCURVE",
"31 48 CURVE SMOOTH",
"15 9 OFFCURVE",
"7 -27 OFFCURVE",
"7 -60 CURVE SMOOTH",
"7 -111 OFFCURVE",
"26 -153 OFFCURVE",
"60.5 -183.5 CURVE SMOOTH",
"102 -221 OFFCURVE",
"167 -242 OFFCURVE",
"245 -242 CURVE SMOOTH"
);
},
{
closed = 1;
nodes = (
"673 -298 OFFCURVE",
"654 -289 OFFCURVE",
"644.5 -270.5 CURVE SMOOTH",
"640 -263 OFFCURVE",
"638 -253 OFFCURVE",
"638 -242 CURVE SMOOTH",
"638 -201 OFFCURVE",
"668 -142 OFFCURVE",
"732 -78 CURVE SMOOTH",
"808 -3.333 OFFCURVE",
"896.5 50 OFFCURVE",
"986.5 86 CURVE SMOOTH",
"1076.5 122 OFFCURVE",
"1165 140.667 OFFCURVE",
"1241 146 CURVE SMOOTH",
"1256 146 LINE",
"1134.667 -27.333 OFFCURVE",
"987 -161.333 OFFCURVE",
"831 -252 CURVE SMOOTH",
"781 -281 OFFCURVE",
"734 -298 OFFCURVE",
"699 -298 CURVE SMOOTH"
);
},
{
closed = 1;
nodes = (
"730 -325 OFFCURVE",
"766 -319 OFFCURVE",
"809 -305 CURVE SMOOTH",
"881 -281 OFFCURVE",
"967.5 -239.833 OFFCURVE",
"1057.5 -168.5 CURVE SMOOTH",
"1147.5 -97.167 OFFCURVE",
"1240.333 2 OFFCURVE",
"1327 142 CURVE",
"1357.667 139.333 OFFCURVE",
"1384 132.667 OFFCURVE",
"1392 122 CURVE SMOOTH",
"1397 115 OFFCURVE",
"1400 118 OFFCURVE",
"1400 124 CURVE SMOOTH",
"1400 127 OFFCURVE",
"1400 130 OFFCURVE",
"1398 133 CURVE",
"1387.333 149 OFFCURVE",
"1367 161.333 OFFCURVE",
"1343 168 CURVE",
"1409.399 279.55 OFFCURVE",
"1491 427.922 OFFCURVE",
"1491 551 CURVE SMOOTH",
"1491 614.22 OFFCURVE",
"1448.971 636 OFFCURVE",
"1392 636 CURVE SMOOTH",
"1302.667 636 OFFCURVE",
"1210.333 607.667 OFFCURVE",
"1133 569 CURVE SMOOTH",
"1045 529 OFFCURVE",
"928 444 OFFCURVE",
"928 349 CURVE SMOOTH",
"928 337 OFFCURVE",
"930 325 OFFCURVE",
"934 313 CURVE SMOOTH",
"946 279 OFFCURVE",
"973 255 OFFCURVE",
"1016 255 CURVE SMOOTH",
"1032 255 OFFCURVE",
"1049 258 OFFCURVE",
"1069 265 CURVE SMOOTH",
"1181.522 300.007 OFFCURVE",
"1284.806 419.307 OFFCURVE",
"1322 508 CURVE SMOOTH",
"1325.333 515.333 OFFCURVE",
"1326.833 520 OFFCURVE",
"1326.5 522 CURVE SMOOTH",
"1326.167 524 OFFCURVE",
"1325.333 524.667 OFFCURVE",
"1324 524 CURVE SMOOTH",
"1321.333 523.333 OFFCURVE",
"1318.333 521.333 OFFCURVE",
"1315 518 CURVE",
"1263.598 434.133 OFFCURVE",
"1181.275 327.826 OFFCURVE",
"1085 294 CURVE",
"1065 288 OFFCURVE",
"1047 285 OFFCURVE",
"1033 285 CURVE SMOOTH",
"1002 285 OFFCURVE",
"983 298 OFFCURVE",
"975 321 CURVE SMOOTH",
"972 328 OFFCURVE",
"971 336 OFFCURVE",
"971 344 CURVE SMOOTH",
"971 383 OFFCURVE",
"1002 426 OFFCURVE",
"1037.5 459 CURVE SMOOTH",
"1077.967 496.884 OFFCURVE",
"1142.315 538.692 OFFCURVE",
"1183 557 CURVE SMOOTH",
"1222 575 OFFCURVE",
"1304 604 OFFCURVE",
"1348 604 CURVE SMOOTH",
"1396 604 OFFCURVE",
"1429 582 OFFCURVE",
"1429 524 CURVE SMOOTH",
"1429 449.771 OFFCURVE",
"1367.552 330.193 OFFCURVE",
"1328 259 CURVE SMOOTH",
"1312 232.333 OFFCURVE",
"1296.333 206.667 OFFCURVE",
"1279 180 CURVE",
"1270.5 181 LINE",
"1262 181 LINE SMOOTH",
"1176.667 181 OFFCURVE",
"1066.333 154.5 OFFCURVE",
"961 108.5 CURVE SMOOTH",
"855.667 62.5 OFFCURVE",
"753.667 -2.667 OFFCURVE",
"687 -80 CURVE SMOOTH",
"630 -144 OFFCURVE",
"602 -204 OFFCURVE",
"602 -247 CURVE SMOOTH",
"602 -261 OFFCURVE",
"604 -273 OFFCURVE",
"609.5 -283 CURVE SMOOTH",
"623 -310 OFFCURVE",
"653 -325 OFFCURVE",
"700 -325 CURVE SMOOTH"
);
},
{
closed = 1;
nodes = (
"1003.439 666.327 OFFCURVE",
"1033.216 699.189 OFFCURVE",
"1041 694 CURVE",
"1048 694 OFFCURVE",
"1051 692 OFFCURVE",
"1051 688 CURVE SMOOTH",
"1051 678 OFFCURVE",
"1030 660 OFFCURVE",
"994 655 CURVE"
);
}
);
width = 1413;
}
);
note = IJ;
},
{
color = 1;
glyphname = J.ss01;
lastChange = "2021-07-26 16:58:15 +0000";
layers = (
{
anchors = (
{
name = bottom;
position = "{102, -307}";
},
{
name = top;
position = "{807, 636}";
}
);
layerId = "1C8B4FDB-B0E8-4411-8E26-068C67144FEF";
paths = (
{
closed = 1;
nodes = (
"146 -326 OFFCURVE",
"182 -320 OFFCURVE",
"224 -305 CURVE SMOOTH",
"437 -230 OFFCURVE",
"600 -69 OFFCURVE",
"745 142 CURVE",
"776 139 OFFCURVE",
"802 133 OFFCURVE",
"810 122 CURVE SMOOTH",
"815 116 OFFCURVE",
"818 118 OFFCURVE",
"818 124 CURVE SMOOTH",
"818 126 OFFCURVE",
"818 130 OFFCURVE",
"816 133 CURVE",
"805 149 OFFCURVE",
"785 161 OFFCURVE",
"761 168 CURVE",
"827 280 OFFCURVE",
"906 427.922 OFFCURVE",
"906 551 CURVE SMOOTH",
"906 614.22 OFFCURVE",
"863.971 636 OFFCURVE",
"807 636 CURVE SMOOTH",
"717.667 636 OFFCURVE",
"625.333 607.667 OFFCURVE",
"548 569 CURVE SMOOTH",
"460 529 OFFCURVE",
"343 444 OFFCURVE",
"343 349 CURVE SMOOTH",
"343 337 OFFCURVE",
"345 325 OFFCURVE",
"349 313 CURVE SMOOTH",
"361 279 OFFCURVE",
"388 255 OFFCURVE",
"431 255 CURVE SMOOTH",
"447 255 OFFCURVE",
"464 258 OFFCURVE",
"484 265 CURVE SMOOTH",
"596.522 300.007 OFFCURVE",
"699.806 419.307 OFFCURVE",
"737 508 CURVE SMOOTH",
"740.333 515.333 OFFCURVE",
"741.833 520 OFFCURVE",
"741.5 522 CURVE SMOOTH",
"741.167 524 OFFCURVE",
"740.333 524.667 OFFCURVE",
"739 524 CURVE SMOOTH",
"736.333 523.333 OFFCURVE",
"733.333 521.333 OFFCURVE",
"730 518 CURVE",
"678.598 434.133 OFFCURVE",
"596.275 327.826 OFFCURVE",
"500 294 CURVE",
"480 288 OFFCURVE",
"462 285 OFFCURVE",
"448 285 CURVE SMOOTH",
"417 285 OFFCURVE",
"398 298 OFFCURVE",
"390 321 CURVE SMOOTH",
"387 328 OFFCURVE",
"386 336 OFFCURVE",
"386 344 CURVE SMOOTH",
"386 383 OFFCURVE",
"417 426 OFFCURVE",
"452.5 459 CURVE SMOOTH",
"492.967 496.884 OFFCURVE",
"557.315 538.692 OFFCURVE",
"598 557 CURVE SMOOTH",
"632.656 573.309 OFFCURVE",
"701.389 599.277 OFFCURVE",
"747 603.5 CURVE SMOOTH",
"803.231 608.707 OFFCURVE",
"851 589 OFFCURVE",
"851 524 CURVE SMOOTH",
"851 444 OFFCURVE",
"786 299 OFFCURVE",
"709 180 CURVE",
"684 181 OFFCURVE",
"587 175 OFFCURVE",
"534 162 CURVE SMOOTH",
"428.667 136.667 OFFCURVE",
"321.167 90 OFFCURVE",
"224.5 26 CURVE SMOOTH",
"176.167 -6 OFFCURVE",
"135.333 -41.333 OFFCURVE",
"102 -80 CURVE SMOOTH",
"45 -144 OFFCURVE",
"17 -204 OFFCURVE",
"17 -247 CURVE SMOOTH",
"17 -261 OFFCURVE",
"19 -273 OFFCURVE",
"24.5 -283 CURVE SMOOTH",
"38 -310 OFFCURVE",
"69 -326 OFFCURVE",
"116 -326 CURVE SMOOTH"
);
},
{
closed = 1;
nodes = (
"89 -297 OFFCURVE",
"69 -288 OFFCURVE",
"59.5 -270.5 CURVE SMOOTH",
"55 -263 OFFCURVE",
"53 -253 OFFCURVE",
"53 -242 CURVE SMOOTH",
"53 -201 OFFCURVE",
"83 -142 OFFCURVE",
"147 -78 CURVE SMOOTH",
"223 -3.333 OFFCURVE",
"311.5 50 OFFCURVE",
"401.5 86 CURVE SMOOTH",
"491.5 122 OFFCURVE",
"595 146 OFFCURVE",
"671 146 CURVE SMOOTH",
"686 146 LINE",
"565 -27 OFFCURVE",
"418 -161 OFFCURVE",
"287 -237 CURVE SMOOTH",
"220 -276 OFFCURVE",
"159 -297 OFFCURVE",
"116 -297 CURVE SMOOTH"
);
}
);
userData = {
assembly = "PUSHW[ ]	/* 4 values pushed */\01253 6 5 4 \012CALL[ ]	/* CallFunction */\012NPUSHW[ ]	/* 3 values pushed */\012250 5 1 \012DELTAP2[ ]	/* DeltaExceptionP2 */\012NPUSHW[ ]	/* 3 values pushed */\01210 5 1 \012DELTAP3[ ]	/* DeltaExceptionP3 */\012NPUSHW[ ]	/* 33 values pushed */\0129 5 25 5 41 5 57 5 73 5 89 5 105 5 121 5 137 5 153 5 169 5 185 5 201 5 217 5 233 5 249 5 16 \012DELTAP1[ ]	/* DeltaExceptionP1 */\012NPUSHW[ ]	/* 31 values pushed */\0129 5 25 5 41 5 57 5 73 5 89 5 105 5 121 5 137 5 153 5 169 5 185 5 201 5 217 5 233 5 15 \012DELTAP2[ ]	/* DeltaExceptionP2 */\012PUSHW[ ]	/* 1 value pushed */\01253 \012SRP0[ ]	/* SetRefPoint0 */\012PUSHW[ ]	/* 1 value pushed */\012103 \012MDRP[11100]	/* MoveDirectRelPt */\012SVTCA[0]	/* SetFreedomAndProjectionVectorToAxis */\012PUSHW[ ]	/* 4 values pushed */\01282 3 91 4 \012CALL[ ]	/* CallFunction */\012PUSHW[ ]	/* 3 values pushed */\01258 91 82 \012SRP1[ ]	/* SetRefPoint1 */\012SRP2[ ]	/* SetRefPoint2 */\012IP[ ]	/* InterpolatePts */\012PUSHW[ ]	/* 1 value pushed */\01291 \012SRP0[ ]	/* SetRefPoint0 */\012PUSHW[ ]	/* 1 value pushed */\01267 \012MDRP[10000]	/* MoveDirectRelPt */\012PUSHW[ ]	/* 1 value pushed */\01267 \012MDAP[1]	/* MoveDirectAbsPt */\012IUP[0]	/* InterpolateUntPts */\012IUP[1]	/* InterpolateUntPts */";
};
width = 821;
}
);
note = J;
},
{
color = 1;
glyphname = K.ss01;
lastChange = "2021-07-26 16:58:31 +0000";
layers = (
{
anchors = (
{
name = bottom;
position = "{753, 0}";
},
{
name = top;
position = "{1100, 719}";
}
);
layerId = "1C8B4FDB-B0E8-4411-8E26-068C67144FEF";
paths = (
{
closed = 1;
nodes = (
"298 -143 OFFCURVE",
"312 -142 OFFCURVE",
"327 -141 CURVE SMOOTH",
"433.667 -133 OFFCURVE",
"515.667 -90 OFFCURVE",
"581 -26 CURVE SMOOTH",
"646.333 38 OFFCURVE",
"696.333 124.667 OFFCURVE",
"739 222 CURVE SMOOTH",
"757.273 264.638 OFFCURVE",
"786.176 350.055 OFFCURVE",
"807 406.5 CURVE SMOOTH",
"832.333 475.167 OFFCURVE",
"860.667 545.333 OFFCURVE",
"894 596 CURVE",
"955 607 OFFCURVE",
"991 628 OFFCURVE",
"991 651 CURVE SMOOTH",
"991 655 OFFCURVE",
"990 658 OFFCURVE",
"989 661 CURVE SMOOTH",
"984 671 OFFCURVE",
"974 679 OFFCURVE",
"960 679 CURVE SMOOTH",
"948 679 OFFCURVE",
"936 674 OFFCURVE",
"927 666 CURVE SMOOTH",
"913 654.667 OFFCURVE",
"898.333 636.667 OFFCURVE",
"883 612 CURVE",
"877 612 LINE SMOOTH",
"821 612 OFFCURVE",
"754.333 601.333 OFFCURVE",
"685 588 CURVE SMOOTH",
"650.333 581.333 OFFCURVE",
"615.833 572.333 OFFCURVE",
"581.5 561 CURVE SMOOTH",
"512.833 538.333 OFFCURVE",
"450 503.167 OFFCURVE",
"398 450.5 CURVE SMOOTH",
"372 424.167 OFFCURVE",
"350.667 393 OFFCURVE",
"334 357 CURVE SMOOTH",
"323 333 OFFCURVE",
"317 310 OFFCURVE",
"317 289 CURVE SMOOTH",
"317 228 OFFCURVE",
"360 184 OFFCURVE",
"423 184 CURVE SMOOTH",
"444 184 OFFCURVE",
"468 189 OFFCURVE",
"493 201 CURVE SMOOTH",
"562 232 OFFCURVE",
"632 315 OFFCURVE",
"632 386 CURVE SMOOTH",
"632 394 OFFCURVE",
"631 402 OFFCURVE",
"629 410 CURVE SMOOTH",
"628 418 OFFCURVE",
"622 423 OFFCURVE",
"618 423 CURVE SMOOTH",
"616 423 OFFCURVE",
"615 422 OFFCURVE",
"615 418 CURVE SMOOTH",
"615 417 OFFCURVE",
"615 416 OFFCURVE",
"615 415 CURVE SMOOTH",
"616 412 OFFCURVE",
"616 409 OFFCURVE",
"616 406 CURVE SMOOTH",
"616 358 OFFCURVE",
"556 249 OFFCURVE",
"491 218 CURVE SMOOTH",
"470 208 OFFCURVE",
"451 204 OFFCURVE",
"435 204 CURVE SMOOTH",
"396 204 OFFCURVE",
"374 231 OFFCURVE",
"374 272 CURVE SMOOTH",
"374 294 OFFCURVE",
"381 322 OFFCURVE",
"395 351 CURVE SMOOTH",
"445.667 453.667 OFFCURVE",
"522 509 OFFCURVE",
"606 541 CURVE SMOOTH",
"690 573 OFFCURVE",
"782.333 592 OFFCURVE",
"865 592 CURVE SMOOTH",
"870 592 LINE",
"834 532 OFFCURVE",
"799.5 453.667 OFFCURVE",
"769.5 383 CURVE SMOOTH",
"744.722 324.634 OFFCURVE",
"715.893 251.078 OFFCURVE",
"701 224 CURVE SMOOTH",
"658.333 144 OFFCURVE",
"601.5 66.833 OFFCURVE",
"535.5 7.5 CURVE SMOOTH",
"466 -55 OFFCURVE",
"384 -94 OFFCURVE",
"294 -94 CURVE SMOOTH",
"210 -94 OFFCURVE",
"144 -73 OFFCURVE",
"100 -29 CURVE SMOOTH",
"67 4 OFFCURVE",
"52 43 OFFCURVE",
"52 84 CURVE SMOOTH",
"52 150 OFFCURVE",
"93 219 OFFCURVE",
"165 269 CURVE SMOOTH",
"187.667 283.667 OFFCURVE",
"211.333 297 OFFCURVE",
"234 305 CURVE SMOOTH",
"251 311 OFFCURVE",
"260 319 OFFCURVE",
"260 323 CURVE SMOOTH",
"260 325 OFFCURVE",
"257 327 OFFCURVE",
"251 327 CURVE SMOOTH",
"249 327 OFFCURVE",
"245 327 OFFCURVE",
"241 326 CURVE SMOOTH",
"214.333 320.667 OFFCURVE",
"188 309.333 OFFCURVE",
"162 292 CURVE SMOOTH",
"78 236 OFFCURVE",
"32 147 OFFCURVE",
"32 63 CURVE SMOOTH",
"32 21 OFFCURVE",
"43 -19 OFFCURVE",
"67 -53 CURVE SMOOTH",
"105 -107 OFFCURVE",
"177 -143 OFFCURVE",
"284 -143 CURVE SMOOTH"
);
},
{
closed = 1;
nodes = (
"1034.5 -35 OFFCURVE",
"1064.333 -20.667 OFFCURVE",
"1091 8 CURVE SMOOTH",
"1125.11 47.358 OFFCURVE",
"1162.654 126.722 OFFCURVE",
"1177 159 CURVE SMOOTH",
"1179 163 OFFCURVE",
"1180 166 OFFCURVE",
"1180 168 CURVE SMOOTH",
"1180 171 OFFCURVE",
"1179 172 OFFCURVE",
"1177 172 CURVE SMOOTH",
"1173 172 OFFCURVE",
"1167 167 OFFCURVE",
"1163 159 CURVE",
"1141.519 121.409 OFFCURVE",
"1119.267 70.267 OFFCURVE",
"1081 32 CURVE SMOOTH",
"1060 12 OFFCURVE",
"1040 3 OFFCURVE",
"1021 3 CURVE SMOOTH",
"984 3 OFFCURVE",
"951 37 OFFCURVE",
"924.5 85.5 CURVE SMOOTH",
"898.5 134.167 OFFCURVE",
"879 189.167 OFFCURVE",
"867 236.5 CURVE SMOOTH",
"861 260.167 OFFCURVE",
"857 278.333 OFFCURVE",
"855 291 CURVE",
"880.333 320.333 OFFCURVE",
"905.333 347.333 OFFCURVE",
"932 374 CURVE SMOOTH",
"997.134 441.381 OFFCURVE",
"1135.361 573.07 OFFCURVE",
"1176 605 CURVE SMOOTH",
"1201.082 624.508 OFFCURVE",
"1256.802 666.69 OFFCURVE",
"1297 692 CURVE SMOOTH",
"1334 715 OFFCURVE",
"1388 745 OFFCURVE",
"1417 745 CURVE SMOOTH",
"1422 745 OFFCURVE",
"1426 743 OFFCURVE",
"1429 743 CURVE SMOOTH",
"1430 743 OFFCURVE",
"1429 745 OFFCURVE",
"1425.5 749 CURVE SMOOTH",
"1422 754 OFFCURVE",
"1416 756 OFFCURVE",
"1409 756 CURVE SMOOTH",
"1408 756 OFFCURVE",
"1407 756 OFFCURVE",
"1406 756 CURVE SMOOTH",
"1387.333 753.333 OFFCURVE",
"1370.333 751.667 OFFCURVE",
"1353 745 CURVE",
"1270.333 721 OFFCURVE",
"1186 667.5 OFFCURVE",
"1110 605.5 CURVE SMOOTH",
"1034 543.5 OFFCURVE",
"964 473 OFFCURVE",
"914 410 CURVE SMOOTH",
"874.5 361 LINE",
"837 314 LINE",
"818.333 314 OFFCURVE",
"796.333 295.667 OFFCURVE",
"799 269 CURVE SMOOTH",
"807.926 194.615 OFFCURVE",
"837.94 82.545 OFFCURVE",
"910 8 CURVE SMOOTH",
"938 -20.667 OFFCURVE",
"968.5 -35 OFFCURVE",
"1001.5 -35 CURVE SMOOTH"
);
},
{
closed = 1;
nodes = (
"923 633 OFFCURVE",
"938.333 646 OFFCURVE",
"955 654 CURVE",
"958 656 OFFCURVE",
"963 658 OFFCURVE",
"966 658 CURVE SMOOTH",
"970 658 OFFCURVE",
"973 656 OFFCURVE",
"973 652 CURVE SMOOTH",
"973 650 OFFCURVE",
"972 648 OFFCURVE",
"971 646 CURVE SMOOTH",
"968.333 640.667 OFFCURVE",
"962.333 635.167 OFFCURVE",
"953 629.5 CURVE SMOOTH",
"943.667 623.833 OFFCURVE",
"929 619 OFFCURVE",
"909 615 CURVE"
);
}
);
width = 1153;
}
);
note = K;
},
{
color = 1;
glyphname = L.ss01;
lastChange = "2021-07-19 11:24:41 +0000";
layers = (
{
anchors = (
{
name = bottom;
position = "{532, -86}";
},
{
name = center;
position = "{466, 440}";
},
{
name = top;
position = "{923, 674}";
},
{
name = topright;
position = "{1062, 701}";
}
);
layerId = "1C8B4FDB-B0E8-4411-8E26-068C67144FEF";
paths = (
{
closed = 1;
nodes = (
"798 -108 OFFCURVE",
"931 -65 OFFCURVE",
"931 23 CURVE SMOOTH",
"931 98 OFFCURVE",
"811 116 OFFCURVE",
"733 116 CURVE SMOOTH",
"690.02 114.408 OFFCURVE",
"535 83.029 OFFCURVE",
"535 54 CURVE SMOOTH",
"535 52.667 OFFCURVE",
"536.333 52 OFFCURVE",
"539 52 CURVE SMOOTH",
"541.667 52 OFFCURVE",
"545 53.333 OFFCURVE",
"549 56 CURVE SMOOTH",
"590.898 79.568 OFFCURVE",
"667.452 97 OFFCURVE",
"719 97 CURVE SMOOTH",
"795 100 OFFCURVE",
"878 81 OFFCURVE",
"878 24 CURVE SMOOTH",
"878 -56 OFFCURVE",
"772 -86 OFFCURVE",
"697 -86 CURVE SMOOTH",
"583 -86 OFFCURVE",
"469 -29 OFFCURVE",
"370 24 CURVE",
"446 77.333 OFFCURVE",
"506 150 OFFCURVE",
"558 230 CURVE",
"700.667 244.667 OFFCURVE",
"808.833 305.833 OFFCURVE",
"881.5 378.5 CURVE SMOOTH",
"954.167 451.167 OFFCURVE",
"990.333 535 OFFCURVE",
"989 595 CURVE SMOOTH",
"986 642 OFFCURVE",
"962 675 OFFCURVE",
"908 675 CURVE SMOOTH",
"807 675 OFFCURVE",
"717 577 OFFCURVE",
"647 479 CURVE",
"604.333 497.667 OFFCURVE",
"557 507.667 OFFCURVE",
"501 505 CURVE SMOOTH",
"404.348 502.239 OFFCURVE",
"286.813 454.968 OFFCURVE",
"292 359 CURVE SMOOTH",
"294.6 273.203 OFFCURVE",
"404.883 233.651 OFFCURVE",
"484 228 CURVE",
"436 157.333 OFFCURVE",
"386.333 93.667 OFFCURVE",
"333 43 CURVE",
"254 84 OFFCURVE",
"183 120 OFFCURVE",
"117 120 CURVE SMOOTH",
"40 120 OFFCURVE",
"-9 74 OFFCURVE",
"-9 17 CURVE SMOOTH",
"-6.036 -36.353 OFFCURVE",
"45.306 -72.391 OFFCURVE",
"129 -70 CURVE SMOOTH",
"206.333 -64.667 OFFCURVE",
"276.333 -33.667 OFFCURVE",
"335 1 CURVE",
"448 -47 OFFCURVE",
"587 -108 OFFCURVE",
"708 -108 CURVE SMOOTH"
);
},
{
closed = 1;
nodes = (
"66 -52 OFFCURVE",
"17 -17 OFFCURVE",
"14 18 CURVE SMOOTH",
"14 42 OFFCURVE",
"36.667 66 OFFCURVE",
"94 66 CURVE SMOOTH",
"156.667 68.667 OFFCURVE",
"225.333 45.667 OFFCURVE",
"300 15 CURVE",
"247 -25 OFFCURVE",
"189 -52 OFFCURVE",
"123 -52 CURVE SMOOTH"
);
},
{
closed = 1;
nodes = (
"424.418 246 OFFCURVE",
"337.588 284.124 OFFCURVE",
"335 354 CURVE SMOOTH",
"329.965 434.567 OFFCURVE",
"427.78 485.157 OFFCURVE",
"496 488 CURVE SMOOTH",
"548 490.667 OFFCURVE",
"595.667 480.667 OFFCURVE",
"637 466 CURVE",
"609 425.333 OFFCURVE",
"583.333 385.333 OFFCURVE",
"560 346 CURVE SMOOTH",
"536.667 306.667 OFFCURVE",
"515.333 273.333 OFFCURVE",
"496 246 CURVE"
);
},
{
closed = 1;
nodes = (
"613.333 316 OFFCURVE",
"649.333 381.667 OFFCURVE",
"684 443 CURVE",
"708 428.333 OFFCURVE",
"729 410 OFFCURVE",
"747 388 CURVE SMOOTH",
"750.333 383.333 OFFCURVE",
"753 383.5 OFFCURVE",
"755 388.5 CURVE SMOOTH",
"757 393.5 OFFCURVE",
"754.333 399.667 OFFCURVE",
"747 407 CURVE SMOOTH",
"730.333 425.667 OFFCURVE",
"712 441.667 OFFCURVE",
"692 455 CURVE",
"720 501 LINE SMOOTH",
"753 557 OFFCURVE",
"839 658 OFFCURVE",
"908 658 CURVE SMOOTH",
"945 658 OFFCURVE",
"963 633 OFFCURVE",
"963 598 CURVE SMOOTH",
"963 547 OFFCURVE",
"928 471 OFFCURVE",
"863 402.5 CURVE SMOOTH",
"796.333 332.5 OFFCURVE",
"697.333 270.667 OFFCURVE",
"572 252 CURVE"
);
}
);
userData = {
assembly = "PUSHW[ ]	/* 4 values pushed */\012116 6 29 4 \012CALL[ ]	/* CallFunction */\012PUSHW[ ]	/* 4 values pushed */\01287 6 63 4 \012CALL[ ]	/* CallFunction */\012PUSHW[ ]	/* 4 values pushed */\01245 6 100 4 \012CALL[ ]	/* CallFunction */\012PUSHW[ ]	/* 3 values pushed */\01224 29 45 \012SRP1[ ]	/* SetRefPoint1 */\012SRP2[ ]	/* SetRefPoint2 */\012IP[ ]	/* InterpolatePts */\012PUSHW[ ]	/* 3 values pushed */\01253 29 45 \012SRP1[ ]	/* SetRefPoint1 */\012SRP2[ ]	/* SetRefPoint2 */\012IP[ ]	/* InterpolatePts */\012NPUSHW[ ]	/* 3 values pushed */\012250 63 1 \012DELTAP2[ ]	/* DeltaExceptionP2 */\012NPUSHW[ ]	/* 3 values pushed */\01210 63 1 \012DELTAP3[ ]	/* DeltaExceptionP3 */\012NPUSHW[ ]	/* 33 values pushed */\0129 63 25 63 41 63 57 63 73 63 89 63 105 63 121 63 137 63 153 63 169 63 185 63 201 63 217 63 233 63 249 63 16 \012DELTAP1[ ]	/* DeltaExceptionP1 */\012NPUSHW[ ]	/* 31 values pushed */\0129 63 25 63 41 63 57 63 73 63 89 63 105 63 121 63 137 63 153 63 169 63 185 63 201 63 217 63 233 63 15 \012DELTAP2[ ]	/* DeltaExceptionP2 */\012PUSHW[ ]	/* 3 values pushed */\01295 29 45 \012SRP1[ ]	/* SetRefPoint1 */\012SRP2[ ]	/* SetRefPoint2 */\012IP[ ]	/* InterpolatePts */\012NPUSHW[ ]	/* 3 values pushed */\012250 100 1 \012DELTAP2[ ]	/* DeltaExceptionP2 */\012NPUSHW[ ]	/* 3 values pushed */\01210 100 1 \012DELTAP3[ ]	/* DeltaExceptionP3 */\012NPUSHW[ ]	/* 33 values pushed */\0129 100 25 100 41 100 57 100 73 100 89 100 105 100 121 100 137 100 153 100 169 100 185 100 201 100 217 100 233 100 249 100 16 \012DELTAP1[ ]	/* DeltaExceptionP1 */\012NPUSHW[ ]	/* 31 values pushed */\0129 100 25 100 41 100 57 100 73 100 89 100 105 100 121 100 137 100 153 100 169 100 185 100 201 100 217 100 233 100 15 \012DELTAP2[ ]	/* DeltaExceptionP2 */\012NPUSHW[ ]	/* 33 values pushed */\0126 116 22 116 38 116 54 116 70 116 86 116 102 116 118 116 134 116 150 116 166 116 182 116 198 116 214 116 230 116 246 116 16 \012DELTAP1[ ]	/* DeltaExceptionP1 */\012NPUSHW[ ]	/* 31 values pushed */\0126 116 22 116 38 116 54 116 70 116 86 116 102 116 118 116 134 116 150 116 166 116 182 116 198 116 214 116 230 116 15 \012DELTAP2[ ]	/* DeltaExceptionP2 */\012NPUSHW[ ]	/* 3 values pushed */\012245 116 1 \012DELTAP2[ ]	/* DeltaExceptionP2 */\012NPUSHW[ ]	/* 3 values pushed */\0125 116 1 \012DELTAP3[ ]	/* DeltaExceptionP3 */\012PUSHW[ ]	/* 3 values pushed */\012124 29 45 \012SRP1[ ]	/* SetRefPoint1 */\012SRP2[ ]	/* SetRefPoint2 */\012IP[ ]	/* InterpolatePts */\012PUSHW[ ]	/* 3 values pushed */\012135 29 116 \012SRP1[ ]	/* SetRefPoint1 */\012SRP2[ ]	/* SetRefPoint2 */\012IP[ ]	/* InterpolatePts */\012PUSHW[ ]	/* 1 value pushed */\01245 \012SRP0[ ]	/* SetRefPoint0 */\012PUSHW[ ]	/* 1 value pushed */\012147 \012MDRP[11100]	/* MoveDirectRelPt */\012SVTCA[0]	/* SetFreedomAndProjectionVectorToAxis */\012PUSHW[ ]	/* 4 values pushed */\01258 1 0 4 \012CALL[ ]	/* CallFunction */\012PUSHW[ ]	/* 3 values pushed */\01282 8 3 \012CALL[ ]	/* CallFunction */\012PUSHW[ ]	/* 1 value pushed */\01282 \012SRP0[ ]	/* SetRefPoint0 */\012PUSHW[ ]	/* 1 value pushed */\01218 \012MDRP[10000]	/* MoveDirectRelPt */\012PUSHW[ ]	/* 1 value pushed */\01218 \012MDAP[1]	/* MoveDirectAbsPt */\012PUSHW[ ]	/* 3 values pushed */\01253 8 82 \012SRP1[ ]	/* SetRefPoint1 */\012SRP2[ ]	/* SetRefPoint2 */\012IP[ ]	/* InterpolatePts */\012PUSHW[ ]	/* 3 values pushed */\012135 8 82 \012SRP1[ ]	/* SetRefPoint1 */\012SRP2[ ]	/* SetRefPoint2 */\012IP[ ]	/* InterpolatePts */\012PUSHW[ ]	/* 1 value pushed */\01282 \012SRP0[ ]	/* SetRefPoint0 */\012PUSHW[ ]	/* 2 values pushed */\012138 4 \012MIRP[10100]	/* MoveIndirectRelPt */\012IUP[0]	/* InterpolateUntPts */\012IUP[1]	/* InterpolateUntPts */";
};
width = 932;
}
);
note = L;
},
{
color = 1;
glyphname = Lacute.ss01;
lastChange = "2021-07-26 16:58:15 +0000";
layers = (
{
layerId = "1C8B4FDB-B0E8-4411-8E26-068C67144FEF";
paths = (
{
closed = 1;
nodes = (
"798 -108 OFFCURVE",
"931 -65 OFFCURVE",
"931 23 CURVE SMOOTH",
"931 98 OFFCURVE",
"811 116 OFFCURVE",
"733 116 CURVE SMOOTH",
"690.02 114.408 OFFCURVE",
"535 83.029 OFFCURVE",
"535 54 CURVE SMOOTH",
"535 52.667 OFFCURVE",
"536.333 52 OFFCURVE",
"539 52 CURVE SMOOTH",
"541.667 52 OFFCURVE",
"545 53.333 OFFCURVE",
"549 56 CURVE SMOOTH",
"590.898 79.568 OFFCURVE",
"667.452 97 OFFCURVE",
"719 97 CURVE SMOOTH",
"795 100 OFFCURVE",
"878 81 OFFCURVE",
"878 24 CURVE SMOOTH",
"878 -56 OFFCURVE",
"772 -86 OFFCURVE",
"697 -86 CURVE SMOOTH",
"583 -86 OFFCURVE",
"469 -29 OFFCURVE",
"370 24 CURVE",
"446 77.333 OFFCURVE",
"506 150 OFFCURVE",
"558 230 CURVE",
"700.667 244.667 OFFCURVE",
"808.833 305.833 OFFCURVE",
"881.5 378.5 CURVE SMOOTH",
"954.167 451.167 OFFCURVE",
"990.333 535 OFFCURVE",
"989 595 CURVE SMOOTH",
"986 642 OFFCURVE",
"962 675 OFFCURVE",
"908 675 CURVE SMOOTH",
"807 675 OFFCURVE",
"717 577 OFFCURVE",
"647 479 CURVE",
"604.333 497.667 OFFCURVE",
"557 507.667 OFFCURVE",
"501 505 CURVE SMOOTH",
"404.348 502.239 OFFCURVE",
"286.813 454.968 OFFCURVE",
"292 359 CURVE SMOOTH",
"294.6 273.203 OFFCURVE",
"404.883 233.651 OFFCURVE",
"484 228 CURVE",
"436 157.333 OFFCURVE",
"386.333 93.667 OFFCURVE",
"333 43 CURVE",
"254 84 OFFCURVE",
"183 120 OFFCURVE",
"117 120 CURVE SMOOTH",
"40 120 OFFCURVE",
"-9 74 OFFCURVE",
"-9 17 CURVE SMOOTH",
"-6.036 -36.353 OFFCURVE",
"45.306 -72.391 OFFCURVE",
"129 -70 CURVE SMOOTH",
"206.333 -64.667 OFFCURVE",
"276.333 -33.667 OFFCURVE",
"335 1 CURVE",
"448 -47 OFFCURVE",
"587 -108 OFFCURVE",
"708 -108 CURVE SMOOTH"
);
},
{
closed = 1;
nodes = (
"66 -52 OFFCURVE",
"17 -17 OFFCURVE",
"14 18 CURVE SMOOTH",
"14 42 OFFCURVE",
"36.667 66 OFFCURVE",
"94 66 CURVE SMOOTH",
"156.667 68.667 OFFCURVE",
"225.333 45.667 OFFCURVE",
"300 15 CURVE",
"247 -25 OFFCURVE",
"189 -52 OFFCURVE",
"123 -52 CURVE SMOOTH"
);
},
{
closed = 1;
nodes = (
"424.418 246 OFFCURVE",
"337.588 284.124 OFFCURVE",
"335 354 CURVE SMOOTH",
"329.965 434.567 OFFCURVE",
"427.78 485.157 OFFCURVE",
"496 488 CURVE SMOOTH",
"548 490.667 OFFCURVE",
"595.667 480.667 OFFCURVE",
"637 466 CURVE",
"609 425.333 OFFCURVE",
"583.333 385.333 OFFCURVE",
"560 346 CURVE SMOOTH",
"536.667 306.667 OFFCURVE",
"515.333 273.333 OFFCURVE",
"496 246 CURVE"
);
},
{
closed = 1;
nodes = (
"613.333 316 OFFCURVE",
"649.333 381.667 OFFCURVE",
"684 443 CURVE",
"708 428.333 OFFCURVE",
"729 410 OFFCURVE",
"747 388 CURVE SMOOTH",
"750.333 383.333 OFFCURVE",
"753 383.5 OFFCURVE",
"755 388.5 CURVE SMOOTH",
"757 393.5 OFFCURVE",
"754.333 399.667 OFFCURVE",
"747 407 CURVE SMOOTH",
"730.333 425.667 OFFCURVE",
"712 441.667 OFFCURVE",
"692 455 CURVE",
"720 501 LINE SMOOTH",
"756 555 OFFCURVE",
"839 658 OFFCURVE",
"908 658 CURVE SMOOTH",
"945 658 OFFCURVE",
"963 633 OFFCURVE",
"963 598 CURVE SMOOTH",
"963 547 OFFCURVE",
"928 471 OFFCURVE",
"863 402.5 CURVE SMOOTH",
"796.333 332.5 OFFCURVE",
"697.333 270.667 OFFCURVE",
"572 252 CURVE"
);
},
{
closed = 1;
nodes = (
"933 714 OFFCURVE",
"935 714 OFFCURVE",
"937 715 CURVE SMOOTH",
"943 717 OFFCURVE",
"945 719 OFFCURVE",
"971 733 CURVE SMOOTH",
"993 745 OFFCURVE",
"1082 819 OFFCURVE",
"1082 830 CURVE SMOOTH",
"1082 831 OFFCURVE",
"1079 832 OFFCURVE",
"1078 832 CURVE SMOOTH",
"1063 836 OFFCURVE",
"1054 839 OFFCURVE",
"1046 839 CURVE SMOOTH",
"1041 839 OFFCURVE",
"1037 838 OFFCURVE",
"1033 834 CURVE SMOOTH",
"1006 812 OFFCURVE",
"967 759 OFFCURVE",
"938 731 CURVE SMOOTH",
"930 723 OFFCURVE",
"928 719 OFFCURVE",
"928 716 CURVE SMOOTH",
"928 715 OFFCURVE",
"929 714 OFFCURVE",
"931 714 CURVE SMOOTH"
);
}
);
width = 932;
}
);
note = Lacute;
},
{
color = 1;
glyphname = Lslash.ss01;
lastChange = "2021-07-19 11:24:41 +0000";
layers = (
{
layerId = "1C8B4FDB-B0E8-4411-8E26-068C67144FEF";
paths = (
{
closed = 1;
nodes = (
"798 -108 OFFCURVE",
"931 -65 OFFCURVE",
"931 23 CURVE SMOOTH",
"931 98 OFFCURVE",
"811 116 OFFCURVE",
"733 116 CURVE SMOOTH",
"690.02 114.408 OFFCURVE",
"535 83.029 OFFCURVE",
"535 54 CURVE SMOOTH",
"535 52.667 OFFCURVE",
"536.333 52 OFFCURVE",
"539 52 CURVE SMOOTH",
"541.667 52 OFFCURVE",
"545 53.333 OFFCURVE",
"549 56 CURVE SMOOTH",
"590.898 79.568 OFFCURVE",
"667.452 97 OFFCURVE",
"719 97 CURVE SMOOTH",
"795 100 OFFCURVE",
"878 81 OFFCURVE",
"878 24 CURVE SMOOTH",
"878 -56 OFFCURVE",
"772 -86 OFFCURVE",
"697 -86 CURVE SMOOTH",
"583 -86 OFFCURVE",
"469 -29 OFFCURVE",
"370 24 CURVE",
"416.667 58.667 OFFCURVE",
"457.333 97.333 OFFCURVE",
"496 144 CURVE",
"530 151.333 OFFCURVE",
"558 156.167 OFFCURVE",
"580 158.5 CURVE SMOOTH",
"590 160 OFFCURVE",
"598 160 OFFCURVE",
"604 160 CURVE SMOOTH",
"611 160 OFFCURVE",
"616 159 OFFCURVE",
"617 158 CURVE",
"615 174 OFFCURVE",
"603 179 OFFCURVE",
"583 179 CURVE SMOOTH",
"577 179 OFFCURVE",
"572 179 OFFCURVE",
"565 178 CURVE SMOOTH",
"548.5 175.5 LINE",
"514 168 LINE",
"526 184 OFFCURVE",
"547.333 212.667 OFFCURVE",
"558 230 CURVE",
"700.667 244.667 OFFCURVE",
"808.833 305.833 OFFCURVE",
"881.5 378.5 CURVE SMOOTH",
"954.167 451.167 OFFCURVE",
"990.333 535 OFFCURVE",
"989 595 CURVE SMOOTH",
"986 642 OFFCURVE",
"962 675 OFFCURVE",
"908 675 CURVE SMOOTH",
"807 675 OFFCURVE",
"717 577 OFFCURVE",
"647 479 CURVE",
"604.333 497.667 OFFCURVE",
"557 507.667 OFFCURVE",
"501 505 CURVE SMOOTH",
"404.348 502.239 OFFCURVE",
"286.813 454.968 OFFCURVE",
"292 359 CURVE SMOOTH",
"294.6 273.203 OFFCURVE",
"404.883 233.651 OFFCURVE",
"484 228 CURVE",
"456 189 LINE",
"428 150 LINE",
"394 142.667 OFFCURVE",
"367.5 138.667 OFFCURVE",
"348.5 138 CURVE SMOOTH",
"329.5 137.333 OFFCURVE",
"315.333 137.333 OFFCURVE",
"306 138 CURVE",
"308 121 OFFCURVE",
"317 111 OFFCURVE",
"335 111 CURVE SMOOTH",
"339 111 OFFCURVE",
"343 111 OFFCURVE",
"347 112 CURVE SMOOTH",
"355.667 113.333 OFFCURVE",
"363.833 115.167 OFFCURVE",
"371.5 117.5 CURVE SMOOTH",
"379.167 119.833 OFFCURVE",
"391.667 123 OFFCURVE",
"409 127 CURVE",
"383.667 96.333 OFFCURVE",
"359.667 68.333 OFFCURVE",
"333 43 CURVE",
"254 84 OFFCURVE",
"183 120 OFFCURVE",
"117 120 CURVE SMOOTH",
"40 120 OFFCURVE",
"-9 74 OFFCURVE",
"-9 17 CURVE SMOOTH",
"-6.036 -36.353 OFFCURVE",
"45.306 -72.391 OFFCURVE",
"129 -70 CURVE SMOOTH",
"206.333 -64.667 OFFCURVE",
"276.333 -33.667 OFFCURVE",
"335 1 CURVE",
"448 -47 OFFCURVE",
"587 -108 OFFCURVE",
"708 -108 CURVE SMOOTH"
);
},
{
closed = 1;
nodes = (
"66 -52 OFFCURVE",
"17 -17 OFFCURVE",
"14 18 CURVE SMOOTH",
"14 42 OFFCURVE",
"36.667 66 OFFCURVE",
"94 66 CURVE SMOOTH",
"156.667 68.667 OFFCURVE",
"225.333 45.667 OFFCURVE",
"300 15 CURVE",
"247 -25 OFFCURVE",
"189 -52 OFFCURVE",
"123 -52 CURVE SMOOTH"
);
},
{
closed = 1;
nodes = (
"424.418 246 OFFCURVE",
"337.588 284.124 OFFCURVE",
"335 354 CURVE SMOOTH",
"329.965 434.567 OFFCURVE",
"427.78 485.157 OFFCURVE",
"496 488 CURVE SMOOTH",
"548 490.667 OFFCURVE",
"595.667 480.667 OFFCURVE",
"637 466 CURVE",
"609 425.333 OFFCURVE",
"583.333 385.333 OFFCURVE",
"560 346 CURVE SMOOTH",
"536.667 306.667 OFFCURVE",
"515.333 273.333 OFFCURVE",
"496 246 CURVE"
);
},
{
closed = 1;
nodes = (
"613.333 316 OFFCURVE",
"649.333 381.667 OFFCURVE",
"684 443 CURVE",
"708 428.333 OFFCURVE",
"729 410 OFFCURVE",
"747 388 CURVE SMOOTH",
"750.333 383.333 OFFCURVE",
"753 383.5 OFFCURVE",
"755 388.5 CURVE SMOOTH",
"757 393.5 OFFCURVE",
"754.333 399.667 OFFCURVE",
"747 407 CURVE SMOOTH",
"730.333 425.667 OFFCURVE",
"712 441.667 OFFCURVE",
"692 455 CURVE",
"720 501 LINE SMOOTH",
"756 555 OFFCURVE",
"839 658 OFFCURVE",
"908 658 CURVE SMOOTH",
"945 658 OFFCURVE",
"963 633 OFFCURVE",
"963 598 CURVE SMOOTH",
"963 547 OFFCURVE",
"928 471 OFFCURVE",
"863 402.5 CURVE SMOOTH",
"796.333 332.5 OFFCURVE",
"697.333 270.667 OFFCURVE",
"572 252 CURVE"
);
}
);
userData = {
assembly = "PUSHW[ ]	/* 4 values pushed */\012113 5 75 4 \012CALL[ ]	/* CallFunction */\012NPUSHW[ ]	/* 3 values pushed */\0126 113 1 \012DELTAP1[ ]	/* DeltaExceptionP1 */\012PUSHW[ ]	/* 3 values pushed */\0126 75 113 \012SRP1[ ]	/* SetRefPoint1 */\012SRP2[ ]	/* SetRefPoint2 */\012IP[ ]	/* InterpolatePts */\012PUSHW[ ]	/* 3 values pushed */\01269 75 113 \012SRP1[ ]	/* SetRefPoint1 */\012SRP2[ ]	/* SetRefPoint2 */\012IP[ ]	/* InterpolatePts */\012PUSHW[ ]	/* 3 values pushed */\01281 75 113 \012SRP1[ ]	/* SetRefPoint1 */\012SRP2[ ]	/* SetRefPoint2 */\012IP[ ]	/* InterpolatePts */\012PUSHW[ ]	/* 3 values pushed */\012110 75 113 \012SRP1[ ]	/* SetRefPoint1 */\012SRP2[ ]	/* SetRefPoint2 */\012IP[ ]	/* InterpolatePts */\012IUP[0]	/* InterpolateUntPts */\012IUP[1]	/* InterpolateUntPts */";
};
width = 932;
}
);
note = Lslash;
},
{
color = 1;
glyphname = M.ss01;
lastChange = "2021-07-19 11:24:41 +0000";
layers = (
{
layerId = "1C8B4FDB-B0E8-4411-8E26-068C67144FEF";
paths = (
{
closed = 1;
nodes = (
"1188 -204 OFFCURVE",
"1202 -197 OFFCURVE",
"1202 -191 CURVE SMOOTH",
"1202 -187 OFFCURVE",
"1195 -184 OFFCURVE",
"1181 -184 CURVE SMOOTH",
"1179 -184 OFFCURVE",
"1177 -184 OFFCURVE",
"1174 -184 CURVE SMOOTH",
"1088 -189 OFFCURVE",
"1058 -137 OFFCURVE",
"1058 -60 CURVE SMOOTH",
"1058 -26 OFFCURVE",
"1064 13 OFFCURVE",
"1074 53.5 CURVE SMOOTH",
"1104.316 178.554 OFFCURVE",
"1174.672 329.344 OFFCURVE",
"1216 412 CURVE SMOOTH",
"1237 453 OFFCURVE",
"1248 491 OFFCURVE",
"1248 520 CURVE SMOOTH",
"1248 555 OFFCURVE",
"1232 578 OFFCURVE",
"1198 578 CURVE SMOOTH",
"1140 578 OFFCURVE",
"1052 507 OFFCURVE",
"976 411 CURVE SMOOTH",
"905.333 324.333 OFFCURVE",
"841.667 236 OFFCURVE",
"807 180 CURVE",
"841.667 285.333 OFFCURVE",
"880.333 388.667 OFFCURVE",
"891 498 CURVE SMOOTH",
"897 568 OFFCURVE",
"864 598 OFFCURVE",
"821 598 CURVE SMOOTH",
"781 598 OFFCURVE",
"734 573 OFFCURVE",
"699 530 CURVE SMOOTH",
"643.39 462.3 OFFCURVE",
"603.878 404.443 OFFCURVE",
"560 324 CURVE SMOOTH",
"553 312 OFFCURVE",
"548 306 OFFCURVE",
"545 306 CURVE SMOOTH",
"544 306 OFFCURVE",
"543 308 OFFCURVE",
"543 311 CURVE SMOOTH",
"543 315 OFFCURVE",
"545 322 OFFCURVE",
"549 333 CURVE SMOOTH",
"569 389 OFFCURVE",
"587.667 448.667 OFFCURVE",
"593 502 CURVE SMOOTH",
"594 513 OFFCURVE",
"595 524 OFFCURVE",
"595 534 CURVE SMOOTH",
"595 641 OFFCURVE",
"538 691 OFFCURVE",
"453 691 CURVE SMOOTH",
"428 691 OFFCURVE",
"402 687 OFFCURVE",
"373.5 678.5 CURVE SMOOTH",
"242.016 641.131 OFFCURVE",
"98.427 526.245 OFFCURVE",
"38 387 CURVE SMOOTH",
"17 336 OFFCURVE",
"7 290 OFFCURVE",
"7 250 CURVE SMOOTH",
"7 211 OFFCURVE",
"16 178 OFFCURVE",
"33 153.5 CURVE SMOOTH",
"57 117 OFFCURVE",
"95 97 OFFCURVE",
"140 97 CURVE SMOOTH",
"157 97 OFFCURVE",
"175 100 OFFCURVE",
"194 106 CURVE SMOOTH",
"267.333 130 OFFCURVE",
"328.333 185.5 OFFCURVE",
"371 247.5 CURVE SMOOTH",
"392.333 278.5 OFFCURVE",
"408.833 310.167 OFFCURVE",
"420.5 342.5 CURVE SMOOTH",
"432 375 OFFCURVE",
"439 406 OFFCURVE",
"439 431 CURVE SMOOTH",
"439 456 OFFCURVE",
"433 477 OFFCURVE",
"421 492 CURVE SMOOTH",
"411 505 OFFCURVE",
"396 512 OFFCURVE",
"376 512 CURVE SMOOTH",
"353 512 OFFCURVE",
"341 503 OFFCURVE",
"341 498 CURVE SMOOTH",
"341 494 OFFCURVE",
"344 492 OFFCURVE",
"352 492 CURVE SMOOTH",
"354 492 OFFCURVE",
"357 492 OFFCURVE",
"360 493 CURVE SMOOTH",
"396 497 OFFCURVE",
"410 478 OFFCURVE",
"410 446 CURVE SMOOTH",
"410 416 OFFCURVE",
"397 374 OFFCURVE",
"376 331 CURVE SMOOTH",
"336.423 249.372 OFFCURVE",
"260.023 147.735 OFFCURVE",
"198 128 CURVE SMOOTH",
"181 123 OFFCURVE",
"165 120 OFFCURVE",
"151 120 CURVE SMOOTH",
"116 120 OFFCURVE",
"90 136 OFFCURVE",
"75 166.5 CURVE SMOOTH",
"66 185 OFFCURVE",
"61 207 OFFCURVE",
"61 235 CURVE SMOOTH",
"61 273 OFFCURVE",
"71 321 OFFCURVE",
"91 378 CURVE SMOOTH",
"117.667 451.333 OFFCURVE",
"182 527.833 OFFCURVE",
"254 584.5 CURVE SMOOTH",
"290 612.833 OFFCURVE",
"326.833 635 OFFCURVE",
"364.5 651 CURVE SMOOTH",
"396 664 OFFCURVE",
"425 671 OFFCURVE",
"450 671 CURVE SMOOTH",
"486 671 OFFCURVE",
"514 657 OFFCURVE",
"532.5 627 CURVE SMOOTH",
"543 610 OFFCURVE",
"548 586 OFFCURVE",
"548 556 CURVE SMOOTH",
"548 540 OFFCURVE",
"547 523 OFFCURVE",
"544 504 CURVE SMOOTH",
"537.333 457.333 OFFCURVE",
"519.667 395 OFFCURVE",
"497 327 CURVE SMOOTH",
"485.667 293 OFFCURVE",
"473.333 258.5 OFFCURVE",
"460 223.5 CURVE SMOOTH",
"433.333 153.5 OFFCURVE",
"404 87.667 OFFCURVE",
"376 33 CURVE SMOOTH",
"362 5.667 OFFCURVE",
"349 -17.333 OFFCURVE",
"337 -36 CURVE",
"333 -49 OFFCURVE",
"346 -56 OFFCURVE",
"362 -56 CURVE SMOOTH",
"379 -56 OFFCURVE",
"399 -48 OFFCURVE",
"406 -31 CURVE SMOOTH",
"444.667 55.667 OFFCURVE",
"475.833 123.833 OFFCURVE",
"504.5 184.5 CURVE SMOOTH",
"518.833 214.833 OFFCURVE",
"533.167 243.333 OFFCURVE",
"547.5 270 CURVE SMOOTH",
"576.167 323.333 OFFCURVE",
"608.333 374.667 OFFCURVE",
"647 428 CURVE SMOOTH",
"666.333 454.667 OFFCURVE",
"688.333 483.333 OFFCURVE",
"713 514 CURVE SMOOTH",
"748 557 OFFCURVE",
"779 577 OFFCURVE",
"803 577 CURVE SMOOTH",
"826 577 OFFCURVE",
"841 556 OFFCURVE",
"841 517 CURVE SMOOTH",
"841 510 OFFCURVE",
"840 502 OFFCURVE",
"839 494 CURVE SMOOTH",
"821.667 354 OFFCURVE",
"783.167 237.333 OFFCURVE",
"746.5 152 CURVE SMOOTH",
"717.7 84.975 OFFCURVE",
"678.71 17.421 OFFCURVE",
"670 0 CURVE",
"667 -4 OFFCURVE",
"666 -8 OFFCURVE",
"666 -12 CURVE SMOOTH",
"666 -21 OFFCURVE",
"676 -28 OFFCURVE",
"690 -28 CURVE SMOOTH",
"708 -28 OFFCURVE",
"733 -16 OFFCURVE",
"747 17 CURVE SMOOTH",
"757.667 41 OFFCURVE",
"781 83.5 OFFCURVE",
"809 129.5 CURVE SMOOTH",
"853.5 201.5 LINE SMOOTH",
"884.833 251.5 OFFCURVE",
"916.5 298.667 OFFCURVE",
"942.5 336 CURVE SMOOTH",
"955.5 354.667 OFFCURVE",
"966.667 369.667 OFFCURVE",
"976 381 CURVE SMOOTH",
"1055 481 OFFCURVE",
"1122 534 OFFCURVE",
"1155 534 CURVE SMOOTH",
"1169 534 OFFCURVE",
"1177 524 OFFCURVE",
"1177 505 CURVE SMOOTH",
"1177 487 OFFCURVE",
"1170 460 OFFCURVE",
"1155 424 CURVE SMOOTH",
"1145 400.667 OFFCURVE",
"1134.5 377.333 OFFCURVE",
"1123.5 354 CURVE SMOOTH",
"1091 284 LINE SMOOTH",
"1054 197 OFFCURVE",
"1016 88 OFFCURVE",
"1016 -13 CURVE SMOOTH",
"1016 -45 OFFCURVE",
"1019 -76 OFFCURVE",
"1028 -105 CURVE SMOOTH",
"1046 -168 OFFCURVE",
"1100 -204 OFFCURVE",
"1161 -204 CURVE SMOOTH"
);
}
);
userData = {
assembly = "SVTCA[0]	/* SetFreedomAndProjectionVectorToAxis */\012PUSHW[ ]	/* 4 values pushed */\0120 1 5 4 \012CALL[ ]	/* CallFunction */\012IUP[0]	/* InterpolateUntPts */\012IUP[1]	/* InterpolateUntPts */";
};
width = 1130;
}
);
note = M;
},
{
color = 1;
glyphname = N.ss01;
lastChange = "2021-07-19 11:24:41 +0000";
layers = (
{
anchors = (
{
name = bottom;
position = "{559, 0}";
},
{
name = top;
position = "{921, 684}";
}
);
layerId = "1C8B4FDB-B0E8-4411-8E26-068C67144FEF";
paths = (
{
closed = 1;
nodes = (
"887 -212 OFFCURVE",
"899 -207 OFFCURVE",
"899 -202 CURVE SMOOTH",
"899 -197 OFFCURVE",
"890 -193 OFFCURVE",
"871 -193 CURVE SMOOTH",
"807 -191.667 OFFCURVE",
"776.5 -160.667 OFFCURVE",
"766.5 -114 CURVE SMOOTH",
"764 -103 OFFCURVE",
"763 -91 OFFCURVE",
"763 -78 CURVE SMOOTH",
"763 -64 OFFCURVE",
"764 -49 OFFCURVE",
"767 -33 CURVE SMOOTH",
"777.667 28.333 OFFCURVE",
"800.333 96.667 OFFCURVE",
"831 166 CURVE SMOOTH",
"846.333 200.667 OFFCURVE",
"862 233.333 OFFCURVE",
"878 264 CURVE SMOOTH",
"896.372 299.595 OFFCURVE",
"936.524 365.169 OFFCURVE",
"959.5 410 CURVE SMOOTH",
"986.833 463.333 OFFCURVE",
"1008.667 518.667 OFFCURVE",
"1010 568 CURVE SMOOTH",
"1010 624 OFFCURVE",
"974 648 OFFCURVE",
"925 648 CURVE SMOOTH",
"898 648 OFFCURVE",
"866 640 OFFCURVE",
"835 626 CURVE SMOOTH",
"768.333 595.333 OFFCURVE",
"697 526.333 OFFCURVE",
"633 449 CURVE SMOOTH",
"590.333 398.333 OFFCURVE",
"551.667 342.667 OFFCURVE",
"521 296 CURVE SMOOTH",
"489 248 OFFCURVE",
"475 223 OFFCURVE",
"476 223 CURVE SMOOTH",
"476 223 OFFCURVE",
"491 250 OFFCURVE",
"517 305 CURVE SMOOTH",
"545.371 368.836 OFFCURVE",
"575.643 435.786 OFFCURVE",
"583 502 CURVE SMOOTH",
"584 515 OFFCURVE",
"585 527 OFFCURVE",
"585 538 CURVE SMOOTH",
"585 641 OFFCURVE",
"529 689 OFFCURVE",
"443 689 CURVE SMOOTH",
"419 689 OFFCURVE",
"393 686 OFFCURVE",
"365 678 CURVE SMOOTH",
"233.137 642.287 OFFCURVE",
"88.038 525.347 OFFCURVE",
"28 387 CURVE SMOOTH",
"7 336 OFFCURVE",
"-3 290 OFFCURVE",
"-3 250 CURVE SMOOTH",
"-3 211 OFFCURVE",
"6 178 OFFCURVE",
"22.5 153.5 CURVE SMOOTH",
"46 117 OFFCURVE",
"85 97 OFFCURVE",
"130 97 CURVE SMOOTH",
"147 97 OFFCURVE",
"165 100 OFFCURVE",
"184 106 CURVE SMOOTH",
"257.333 130 OFFCURVE",
"318.333 185.5 OFFCURVE",
"361 247.5 CURVE SMOOTH",
"382.333 278.5 OFFCURVE",
"398.667 310.167 OFFCURVE",
"410 342.5 CURVE SMOOTH",
"422 375 OFFCURVE",
"428 406 OFFCURVE",
"428 431 CURVE SMOOTH",
"428 456 OFFCURVE",
"422 477 OFFCURVE",
"410.5 492 CURVE SMOOTH",
"401 505 OFFCURVE",
"385 512 OFFCURVE",
"365 512 CURVE SMOOTH",
"343 512 OFFCURVE",
"331 504 OFFCURVE",
"331 498 CURVE SMOOTH",
"331 495 OFFCURVE",
"334 492 OFFCURVE",
"342 492 CURVE SMOOTH",
"344 492 OFFCURVE",
"347 492 OFFCURVE",
"350 493 CURVE SMOOTH",
"386 497 OFFCURVE",
"400 478 OFFCURVE",
"400 446 CURVE SMOOTH",
"400 416 OFFCURVE",
"387 374 OFFCURVE",
"366 331 CURVE SMOOTH",
"326.423 249.372 OFFCURVE",
"250.023 147.735 OFFCURVE",
"188 128 CURVE SMOOTH",
"171 123 OFFCURVE",
"155 120 OFFCURVE",
"141 120 CURVE SMOOTH",
"106 120 OFFCURVE",
"79 136 OFFCURVE",
"64.5 166.5 CURVE SMOOTH",
"56 184 OFFCURVE",
"51 207 OFFCURVE",
"51 234 CURVE SMOOTH",
"51 273 OFFCURVE",
"61 321 OFFCURVE",
"81 378 CURVE SMOOTH",
"119.596 486.068 OFFCURVE",
"246.137 606.276 OFFCURVE",
"354 651 CURVE SMOOTH",
"386 664 OFFCURVE",
"416 671 OFFCURVE",
"441 671 CURVE SMOOTH",
"500 671 OFFCURVE",
"538 634 OFFCURVE",
"538 552 CURVE SMOOTH",
"538 538 OFFCURVE",
"537 522 OFFCURVE",
"534 504 CURVE SMOOTH",
"523.333 428 OFFCURVE",
"495.667 345.333 OFFCURVE",
"473 288 CURVE SMOOTH",
"424.31 165.116 OFFCURVE",
"353.758 17.466 OFFCURVE",
"317 -36 CURVE",
"313 -49 OFFCURVE",
"325 -55 OFFCURVE",
"341 -55 CURVE SMOOTH",
"358 -55 OFFCURVE",
"379 -47 OFFCURVE",
"388 -31 CURVE SMOOTH",
"412.305 18.768 OFFCURVE",
"459.054 122.289 OFFCURVE",
"494.5 191 CURVE SMOOTH",
"537.833 275 OFFCURVE",
"590 363 OFFCURVE",
"650 435 CURVE SMOOTH",
"711.333 507.667 OFFCURVE",
"774.333 559.333 OFFCURVE",
"839 590 CURVE SMOOTH",
"863 602 OFFCURVE",
"885 608 OFFCURVE",
"904 608 CURVE SMOOTH",
"928 608 OFFCURVE",
"944 597 OFFCURVE",
"944 571 CURVE SMOOTH",
"944 567 OFFCURVE",
"944 563 OFFCURVE",
"943 558 CURVE SMOOTH",
"935 508.667 OFFCURVE",
"915.667 462.5 OFFCURVE",
"893 416.5 CURVE SMOOTH",
"874.427 378.808 OFFCURVE",
"839.055 315.992 OFFCURVE",
"820 280 CURVE SMOOTH",
"774 190 OFFCURVE",
"724 73 OFFCURVE",
"724 -37 CURVE SMOOTH",
"724 -60 OFFCURVE",
"726 -83 OFFCURVE",
"731 -105 CURVE SMOOTH",
"745.667 -170.333 OFFCURVE",
"800 -210.667 OFFCURVE",
"864 -212 CURVE SMOOTH"
);
}
);
userData = {
assembly = "SVTCA[0]	/* SetFreedomAndProjectionVectorToAxis */\012PUSHW[ ]	/* 1 value pushed */\01287 \012MDAP[1]	/* MoveDirectAbsPt */\012IUP[0]	/* InterpolateUntPts */\012IUP[1]	/* InterpolateUntPts */";
};
width = 883;
}
);
note = N;
},
{
color = 1;
glyphname = Eng.ss01;
lastChange = "2021-07-19 11:24:41 +0000";
layers = (
{
layerId = "1C8B4FDB-B0E8-4411-8E26-068C67144FEF";
paths = (
{
closed = 1;
nodes = (
"162 -230 OFFCURVE",
"247 -96 OFFCURVE",
"291 -27 CURVE SMOOTH",
"400 146 OFFCURVE",
"515 340 OFFCURVE",
"558 406 CURVE SMOOTH",
"584 448 OFFCURVE",
"636 522 OFFCURVE",
"636 571 CURVE SMOOTH",
"636 615 OFFCURVE",
"624 632 OFFCURVE",
"599 645 CURVE",
"595 623 OFFCURVE",
"572 573 OFFCURVE",
"542 518 CURVE SMOOTH",
"396 257 OFFCURVE",
"333 126 OFFCURVE",
"297 59 CURVE",
"299 130 OFFCURVE",
"323 235 OFFCURVE",
"333 300 CURVE SMOOTH",
"351 395 OFFCURVE",
"396 526 OFFCURVE",
"390 580 CURVE",
"383 605 OFFCURVE",
"349 640 OFFCURVE",
"321 640 CURVE SMOOTH",
"317 640 OFFCURVE",
"313 639 OFFCURVE",
"310 638 CURVE",
"281 522 OFFCURVE",
"193 379 OFFCURVE",
"104 240 CURVE SMOOTH",
"74 193 OFFCURVE",
"20 116 OFFCURVE",
"20 64 CURVE SMOOTH",
"20 44 OFFCURVE",
"28 27 OFFCURVE",
"48 17 CURVE",
"55 59 OFFCURVE",
"140 210 OFFCURVE",
"199 298 CURVE SMOOTH",
"226 340 OFFCURVE",
"340 526 OFFCURVE",
"348 557 CURVE",
"332 470 OFFCURVE",
"300 332 OFFCURVE",
"285 235 CURVE SMOOTH",
"276 182 OFFCURVE",
"263 116 OFFCURVE",
"263 71 CURVE SMOOTH",
"263 57 OFFCURVE",
"265 44 OFFCURVE",
"268 35 CURVE",
"214 -67 LINE",
"166 -148 OFFCURVE",
"120 -210 OFFCURVE",
"72 -210 CURVE SMOOTH",
"43 -210 OFFCURVE",
"34 -184 OFFCURVE",
"34 -164 CURVE SMOOTH",
"34 -159 OFFCURVE",
"34 -155 OFFCURVE",
"35 -151 CURVE SMOOTH",
"37 -135 OFFCURVE",
"49 -107 OFFCURVE",
"62 -87 CURVE",
"20 -83 OFFCURVE",
"2 -128 OFFCURVE",
"0 -148 CURVE SMOOTH",
"-5 -189 OFFCURVE",
"29 -230 OFFCURVE",
"60 -230 CURVE SMOOTH"
);
}
);
width = 586;
}
);
},
{
color = 1;
glyphname = O.ss01;
lastChange = "2021-07-19 11:24:41 +0000";
layers = (
{
anchors = (
{
name = bottom;
position = "{158, -43}";
},
{
name = center;
position = "{309, 313}";
},
{
name = ogonek;
position = "{154, -38}";
},
{
name = top;
position = "{548, 643}";
},
{
name = topleft;
position = "{39, 632}";
},
{
name = topright;
position = "{571, 519}";
}
);
layerId = "1C8B4FDB-B0E8-4411-8E26-068C67144FEF";
paths = (
{
closed = 1;
nodes = (
"262 -56 OFFCURVE",
"308.333 -42.667 OFFCURVE",
"355 -20 CURVE SMOOTH",
"485.191 46.424 OFFCURVE",
"628 238.65 OFFCURVE",
"628 386 CURVE SMOOTH",
"628 533.657 OFFCURVE",
"549.909 599.618 OFFCURVE",
"433 623 CURVE",
"467.667 641.667 OFFCURVE",
"502.333 653 OFFCURVE",
"537 653 CURVE SMOOTH",
"546 653 OFFCURVE",
"550 655 OFFCURVE",
"550 658 CURVE SMOOTH",
"550 662 OFFCURVE",
"540 667 OFFCURVE",
"523 667 CURVE SMOOTH",
"519 667 OFFCURVE",
"515 667 OFFCURVE",
"511 666 CURVE SMOOTH",
"467 660.667 OFFCURVE",
"425 648.333 OFFCURVE",
"385 629 CURVE",
"370.333 630.333 OFFCURVE",
"354.667 631 OFFCURVE",
"340 631 CURVE SMOOTH",
"172 631 OFFCURVE",
"62.333 599.667 OFFCURVE",
"9 549 CURVE SMOOTH",
"-21 521 OFFCURVE",
"-34 492 OFFCURVE",
"-34 467 CURVE SMOOTH",
"-34 414 OFFCURVE",
"25 373 OFFCURVE",
"106 367 CURVE",
"72 301 OFFCURVE",
"43 220 OFFCURVE",
"43 144 CURVE SMOOTH",
"43 128 OFFCURVE",
"44 113 OFFCURVE",
"47 98 CURVE SMOOTH",
"65.667 -10 OFFCURVE",
"132.667 -56 OFFCURVE",
"218 -56 CURVE SMOOTH"
);
},
{
closed = 1;
nodes = (
"140 -33 OFFCURVE",
"84 7 OFFCURVE",
"84 99 CURVE SMOOTH",
"84 163 OFFCURVE",
"109 237 OFFCURVE",
"149 310 CURVE SMOOTH",
"158.333 327.333 OFFCURVE",
"168.667 347 OFFCURVE",
"182 367 CURVE",
"280.512 375.209 OFFCURVE",
"392.359 416.583 OFFCURVE",
"466 508 CURVE SMOOTH",
"470 512 OFFCURVE",
"472 516 OFFCURVE",
"472 519 CURVE SMOOTH",
"472 520 OFFCURVE",
"471 521 OFFCURVE",
"470.5 522.5 CURVE SMOOTH",
"468.167 526.167 OFFCURVE",
"465.667 526.333 OFFCURVE",
"463 523 CURVE SMOOTH",
"411.648 460.837 OFFCURVE",
"297.123 416.618 OFFCURVE",
"204 399 CURVE",
"257.333 475 OFFCURVE",
"328 554.333 OFFCURVE",
"404 605 CURVE",
"478.667 599.667 OFFCURVE",
"530.333 578.5 OFFCURVE",
"557 532.5 CURVE SMOOTH",
"571 509 OFFCURVE",
"578 479 OFFCURVE",
"578 441 CURVE SMOOTH",
"578 406 OFFCURVE",
"571 363 OFFCURVE",
"559 314 CURVE SMOOTH",
"536.333 223.333 OFFCURVE",
"501.5 157.5 OFFCURVE",
"463.5 107.5 CURVE SMOOTH",
"425.5 57.5 OFFCURVE",
"382.667 24.333 OFFCURVE",
"344 3 CURVE SMOOTH",
"305.333 -19.667 OFFCURVE",
"257.667 -33 OFFCURVE",
"215 -33 CURVE SMOOTH"
);
},
{
closed = 1;
nodes = (
"95.833 389 OFFCURVE",
"90.333 389.333 OFFCURVE",
"85 390 CURVE SMOOTH",
"30 395 OFFCURVE",
"1 419 OFFCURVE",
"1 449 CURVE SMOOTH",
"1 472 OFFCURVE",
"17 499 OFFCURVE",
"50 524 CURVE SMOOTH",
"106 564 OFFCURVE",
"200 600 OFFCURVE",
"319 605 CURVE SMOOTH",
"331 605.5 LINE",
"343 606 LINE",
"255 554 OFFCURVE",
"177 480 OFFCURVE",
"135 414 CURVE SMOOTH",
"119 389 LINE",
"101.5 389 LINE SMOOTH"
);
}
);
userData = {
assembly = "SVTCA[0]	/* SetFreedomAndProjectionVectorToAxis */\012PUSHW[ ]	/* 4 values pushed */\01258 1 26 4 \012CALL[ ]	/* CallFunction */\012IUP[0]	/* InterpolateUntPts */\012IUP[1]	/* InterpolateUntPts */";
};
width = 617;
}
);
note = O;
},
{
color = 1;
glyphname = Oslash.ss01;
lastChange = "2021-07-26 16:58:15 +0000";
layers = (
{
anchors = (
{
name = bottom;
position = "{309, 0}";
},
{
name = center;
position = "{309, 313}";
},
{
name = ogonek;
position = "{215, -33}";
},
{
name = top;
position = "{476, 709}";
},
{
name = topleft;
position = "{39, 632}";
},
{
name = topright;
position = "{610, 488}";
}
);
background = {
paths = (
{
closed = 1;
nodes = (
"569 677 OFFCURVE",
"570 679 OFFCURVE",
"571 683 CURVE SMOOTH",
"572 708 OFFCURVE",
"552 745 OFFCURVE",
"546 746 CURVE",
"541 741 LINE",
"436 562 OFFCURVE",
"340 366 OFFCURVE",
"266 200 CURVE SMOOTH",
"192 34 OFFCURVE",
"140 -101 OFFCURVE",
"125 -156 CURVE SMOOTH",
"113.671 -186.899 OFFCURVE",
"126 -199 OFFCURVE",
"145 -163 CURVE SMOOTH",
"162 -124 OFFCURVE",
"208 -32 OFFCURVE",
"264 80 CURVE SMOOTH",
"352 257 LINE SMOOTH",
"415 381 OFFCURVE",
"474 496 OFFCURVE",
"519 583 CURVE SMOOTH",
"542 626 OFFCURVE",
"558 656 OFFCURVE",
"568 674 CURVE SMOOTH"
);
}
);
};
layerId = "1C8B4FDB-B0E8-4411-8E26-068C67144FEF";
paths = (
{
closed = 1;
nodes = (
"262 -56 OFFCURVE",
"308.333 -42.667 OFFCURVE",
"355 -20 CURVE SMOOTH",
"485.191 46.424 OFFCURVE",
"628 238.65 OFFCURVE",
"628 386 CURVE SMOOTH",
"628 533.657 OFFCURVE",
"549.909 599.618 OFFCURVE",
"433 623 CURVE",
"467.667 641.667 OFFCURVE",
"502.333 653 OFFCURVE",
"537 653 CURVE SMOOTH",
"546 653 OFFCURVE",
"550 655 OFFCURVE",
"550 658 CURVE SMOOTH",
"550 662 OFFCURVE",
"540 667 OFFCURVE",
"523 667 CURVE SMOOTH",
"519 667 OFFCURVE",
"515 667 OFFCURVE",
"511 666 CURVE SMOOTH",
"467 660.667 OFFCURVE",
"425 648.333 OFFCURVE",
"385 629 CURVE",
"370.333 630.333 OFFCURVE",
"354.667 631 OFFCURVE",
"340 631 CURVE SMOOTH",
"172 631 OFFCURVE",
"62.333 599.667 OFFCURVE",
"9 549 CURVE SMOOTH",
"-21 521 OFFCURVE",
"-34 492 OFFCURVE",
"-34 467 CURVE SMOOTH",
"-34 414 OFFCURVE",
"25 373 OFFCURVE",
"106 367 CURVE",
"72 301 OFFCURVE",
"43 220 OFFCURVE",
"43 144 CURVE SMOOTH",
"43 128 OFFCURVE",
"44 113 OFFCURVE",
"47 98 CURVE SMOOTH",
"65.667 -10 OFFCURVE",
"132.667 -56 OFFCURVE",
"218 -56 CURVE SMOOTH"
);
},
{
closed = 1;
nodes = (
"140 -33 OFFCURVE",
"84 7 OFFCURVE",
"84 99 CURVE SMOOTH",
"84 163 OFFCURVE",
"109 237 OFFCURVE",
"149 310 CURVE SMOOTH",
"158.333 327.333 OFFCURVE",
"168.667 347 OFFCURVE",
"182 367 CURVE",
"280.512 375.209 OFFCURVE",
"392.359 416.583 OFFCURVE",
"466 508 CURVE SMOOTH",
"470 512 OFFCURVE",
"472 516 OFFCURVE",
"472 519 CURVE SMOOTH",
"472 520 OFFCURVE",
"471 521 OFFCURVE",
"470.5 522.5 CURVE SMOOTH",
"468.167 526.167 OFFCURVE",
"465.667 526.333 OFFCURVE",
"463 523 CURVE SMOOTH",
"411.648 460.837 OFFCURVE",
"297.123 416.618 OFFCURVE",
"204 399 CURVE",
"257.333 475 OFFCURVE",
"328 554.333 OFFCURVE",
"404 605 CURVE",
"478.667 599.667 OFFCURVE",
"530.333 578.5 OFFCURVE",
"557 532.5 CURVE SMOOTH",
"571 509 OFFCURVE",
"578 479 OFFCURVE",
"578 441 CURVE SMOOTH",
"578 406 OFFCURVE",
"571 363 OFFCURVE",
"559 314 CURVE SMOOTH",
"536.333 223.333 OFFCURVE",
"501.5 157.5 OFFCURVE",
"463.5 107.5 CURVE SMOOTH",
"425.5 57.5 OFFCURVE",
"382.667 24.333 OFFCURVE",
"344 3 CURVE SMOOTH",
"305.333 -19.667 OFFCURVE",
"257.667 -33 OFFCURVE",
"215 -33 CURVE SMOOTH"
);
},
{
closed = 1;
nodes = (
"124 -185 OFFCURVE",
"130 -179 OFFCURVE",
"138 -163 CURVE SMOOTH",
"156 -125 OFFCURVE",
"202 -33 OFFCURVE",
"258 79 CURVE SMOOTH",
"346 256 LINE SMOOTH",
"408 381 OFFCURVE",
"469 495 OFFCURVE",
"513 582 CURVE SMOOTH",
"536 625 OFFCURVE",
"551 654 OFFCURVE",
"562 672 CURVE",
"563 675 OFFCURVE",
"564 677 OFFCURVE",
"565 681 CURVE SMOOTH",
"569 707 OFFCURVE",
"558 747 OFFCURVE",
"552 749 CURVE",
"548 744 LINE",
"447 566 OFFCURVE",
"350 370 OFFCURVE",
"274 204 CURVE SMOOTH",
"198 38 OFFCURVE",
"142 -98 OFFCURVE",
"124 -155 CURVE",
"120 -165 OFFCURVE",
"118 -173 OFFCURVE",
"118 -178 CURVE SMOOTH",
"118 -183 OFFCURVE",
"119 -185 OFFCURVE",
"121 -185 CURVE SMOOTH"
);
},
{
closed = 1;
nodes = (
"95.833 389 OFFCURVE",
"90.333 389.333 OFFCURVE",
"85 390 CURVE SMOOTH",
"30 395 OFFCURVE",
"1 419 OFFCURVE",
"1 449 CURVE SMOOTH",
"1 472 OFFCURVE",
"17 499 OFFCURVE",
"50 524 CURVE SMOOTH",
"106 564 OFFCURVE",
"200 600 OFFCURVE",
"319 605 CURVE SMOOTH",
"331 605.5 LINE",
"343 606 LINE",
"255 554 OFFCURVE",
"177 480 OFFCURVE",
"135 414 CURVE SMOOTH",
"119 389 LINE",
"101.5 389 LINE SMOOTH"
);
}
);
width = 617;
}
);
note = Oslash;
},
{
color = 1;
glyphname = OE.ss01;
lastChange = "2021-07-19 11:24:41 +0000";
layers = (
{
anchors = (
{
name = center;
position = "{309, 313}";
},
{
name = ogonek;
position = "{215, -33}";
},
{
name = topleft;
position = "{39, 632}";
},
{
name = topright;
position = "{610, 488}";
}
);
layerId = "1C8B4FDB-B0E8-4411-8E26-068C67144FEF";
paths = (
{
closed = 1;
nodes = (
"789 -72 OFFCURVE",
"849 -60 OFFCURVE",
"906 -39 CURVE SMOOTH",
"935 -28 OFFCURVE",
"962 -15 OFFCURVE",
"989 1 CURVE SMOOTH",
"1042 32 OFFCURVE",
"1085 73 OFFCURVE",
"1109 123 CURVE SMOOTH",
"1122 148 OFFCURVE",
"1128 175 OFFCURVE",
"1128 204 CURVE SMOOTH",
"1128 234 OFFCURVE",
"1100 269 OFFCURVE",
"1052 269 CURVE SMOOTH",
"1041 269 OFFCURVE",
"1035 266 OFFCURVE",
"1035 261 CURVE SMOOTH",
"1035 258 OFFCURVE",
"1039 257 OFFCURVE",
"1045 257 CURVE SMOOTH",
"1076 257 OFFCURVE",
"1085 231 OFFCURVE",
"1085 208 CURVE SMOOTH",
"1085 137 OFFCURVE",
"1038 73 OFFCURVE",
"970 26 CURVE SMOOTH",
"903 -22 OFFCURVE",
"814 -51 OFFCURVE",
"733 -51 CURVE SMOOTH",
"599 -51 OFFCURVE",
"520 7 OFFCURVE",
"520 104 CURVE SMOOTH",
"520 109 OFFCURVE",
"521 115 OFFCURVE",
"521 120 CURVE SMOOTH",
"521 122 OFFCURVE",
"521 125 OFFCURVE",
"522 127 CURVE",
"558 175 OFFCURVE",
"589 228 OFFCURVE",
"607 280 CURVE",
"622 290 OFFCURVE",
"637 299 OFFCURVE",
"654 304 CURVE SMOOTH",
"666 307 OFFCURVE",
"677 309 OFFCURVE",
"690 309 CURVE SMOOTH",
"717 309 OFFCURVE",
"747 302 OFFCURVE",
"776 300 CURVE SMOOTH",
"804 297 OFFCURVE",
"825 295 OFFCURVE",
"841 295 CURVE SMOOTH",
"848 295 OFFCURVE",
"854 295 OFFCURVE",
"859 296 CURVE SMOOTH",
"873 298 OFFCURVE",
"880 304 OFFCURVE",
"880 313 CURVE SMOOTH",
"880 342 OFFCURVE",
"829 343 OFFCURVE",
"795 343 CURVE SMOOTH",
"760 343 OFFCURVE",
"733 341 OFFCURVE",
"716 340 CURVE",
"698 354 OFFCURVE",
"686 373 OFFCURVE",
"686 398 CURVE SMOOTH",
"686 415 OFFCURVE",
"690 432 OFFCURVE",
"697 449 CURVE",
"746 438 OFFCURVE",
"794 432 OFFCURVE",
"843 432 CURVE SMOOTH",
"1000 432 OFFCURVE",
"1145 480 OFFCURVE",
"1145 572 CURVE SMOOTH",
"1145 619 OFFCURVE",
"1102 646 OFFCURVE",
"1016 646 CURVE SMOOTH",
"860 646 OFFCURVE",
"709 577 OFFCURVE",
"659 480 CURVE",
"652 460 LINE SMOOTH",
"648 448 OFFCURVE",
"646 436 OFFCURVE",
"646 425 CURVE SMOOTH",
"646 386 OFFCURVE",
"663 357 OFFCURVE",
"682 338 CURVE SMOOTH",
"684 336 LINE",
"660 332 OFFCURVE",
"639 325 OFFCURVE",
"619 318 CURVE",
"625 341 OFFCURVE",
"628 364 OFFCURVE",
"628 386 CURVE SMOOTH",
"628 534 OFFCURVE",
"550 600 OFFCURVE",
"433 623 CURVE",
"468 642 OFFCURVE",
"502 653 OFFCURVE",
"537 653 CURVE SMOOTH",
"546 653 OFFCURVE",
"550 655 OFFCURVE",
"550 658 CURVE SMOOTH",
"550 662 OFFCURVE",
"540 667 OFFCURVE",
"523 667 CURVE SMOOTH",
"519 667 OFFCURVE",
"515 667 OFFCURVE",
"511 666 CURVE SMOOTH",
"467 661 OFFCURVE",
"425 648 OFFCURVE",
"385 629 CURVE",
"370 630 OFFCURVE",
"355 631 OFFCURVE",
"340 631 CURVE SMOOTH",
"172 631 OFFCURVE",
"62 600 OFFCURVE",
"9 549 CURVE SMOOTH",
"-21 521 OFFCURVE",
"-34 493 OFFCURVE",
"-34 467 CURVE SMOOTH",
"-34 414 OFFCURVE",
"25 373 OFFCURVE",
"106 367 CURVE",
"72 302 OFFCURVE",
"43 220 OFFCURVE",
"43 144 CURVE SMOOTH",
"43 129 OFFCURVE",
"44 113 OFFCURVE",
"47 98 CURVE SMOOTH",
"66 -10 OFFCURVE",
"133 -56 OFFCURVE",
"218 -56 CURVE SMOOTH",
"262 -56 OFFCURVE",
"308 -43 OFFCURVE",
"355 -20 CURVE SMOOTH",
"393 -1 OFFCURVE",
"431 29 OFFCURVE",
"467 65 CURVE",
"477 34 OFFCURVE",
"496 7 OFFCURVE",
"524 -15 CURVE SMOOTH",
"569 -50 OFFCURVE",
"641 -72 OFFCURVE",
"741 -72 CURVE SMOOTH"
);
},
{
closed = 1;
nodes = (
"140 -33 OFFCURVE",
"84 7 OFFCURVE",
"84 98 CURVE SMOOTH",
"84 163 OFFCURVE",
"109 236 OFFCURVE",
"149 310 CURVE SMOOTH",
"158 327 OFFCURVE",
"169 347 OFFCURVE",
"182 367 CURVE",
"281 375 OFFCURVE",
"392 417 OFFCURVE",
"466 508 CURVE SMOOTH",
"470 512 OFFCURVE",
"472 516 OFFCURVE",
"472 520 CURVE SMOOTH",
"472 521 OFFCURVE",
"472 522 OFFCURVE",
"471 523 CURVE",
"468 526 OFFCURVE",
"466 526 OFFCURVE",
"463 523 CURVE SMOOTH",
"412 461 OFFCURVE",
"297 417 OFFCURVE",
"204 399 CURVE",
"257 475 OFFCURVE",
"328 554 OFFCURVE",
"404 605 CURVE",
"479 600 OFFCURVE",
"530 579 OFFCURVE",
"557 533 CURVE SMOOTH",
"571 510 OFFCURVE",
"578 479 OFFCURVE",
"578 442 CURVE SMOOTH",
"578 406 OFFCURVE",
"571 364 OFFCURVE",
"559 314 CURVE SMOOTH",
"536 223 OFFCURVE",
"502 158 OFFCURVE",
"464 108 CURVE SMOOTH",
"426 58 OFFCURVE",
"383 24 OFFCURVE",
"344 3 CURVE SMOOTH",
"305 -20 OFFCURVE",
"258 -33 OFFCURVE",
"215 -33 CURVE SMOOTH"
);
},
{
closed = 1;
nodes = (
"96 389 OFFCURVE",
"90 389 OFFCURVE",
"85 390 CURVE SMOOTH",
"30 395 OFFCURVE",
"1 418 OFFCURVE",
"1 449 CURVE SMOOTH",
"1 472 OFFCURVE",
"17 499 OFFCURVE",
"50 524 CURVE SMOOTH",
"106 564 OFFCURVE",
"200 598 OFFCURVE",
"319 605 CURVE SMOOTH",
"323 605 OFFCURVE",
"327 605 OFFCURVE",
"331 606 CURVE",
"343 606 LINE",
"255 554 OFFCURVE",
"177 480 OFFCURVE",
"135 414 CURVE SMOOTH",
"119 389 LINE",
"102 389 LINE SMOOTH"
);
},
{
closed = 1;
nodes = (
"803 454 OFFCURVE",
"754 458 OFFCURVE",
"707 469 CURVE",
"768 564 OFFCURVE",
"943 617 OFFCURVE",
"1034 617 CURVE SMOOTH",
"1067 617 OFFCURVE",
"1089 613 OFFCURVE",
"1102 604 CURVE SMOOTH",
"1115 595 OFFCURVE",
"1121 584 OFFCURVE",
"1121 571 CURVE SMOOTH",
"1121 502 OFFCURVE",
"954 454 OFFCURVE",
"846 454 CURVE SMOOTH"
);
}
);
width = 1047;
}
);
note = OE;
},
{
color = 1;
glyphname = P.ss01;
lastChange = "2021-07-26 16:58:15 +0000";
layers = (
{
layerId = "1C8B4FDB-B0E8-4411-8E26-068C67144FEF";
paths = (
{
closed = 1;
nodes = (
"165 -36 OFFCURVE",
"226 -27 OFFCURVE",
"255 -15 CURVE",
"270.333 -16.333 OFFCURVE",
"285 -19 OFFCURVE",
"299 -23 CURVE SMOOTH",
"313 -27 OFFCURVE",
"330.333 -30 OFFCURVE",
"351 -32 CURVE SMOOTH",
"365 -33 OFFCURVE",
"378 -34 OFFCURVE",
"389 -34 CURVE SMOOTH",
"425 -34 OFFCURVE",
"448 -24 OFFCURVE",
"482 18 CURVE SMOOTH",
"487 24 OFFCURVE",
"489 29 OFFCURVE",
"489 32 CURVE SMOOTH",
"489 34 OFFCURVE",
"487 35 OFFCURVE",
"485 35 CURVE SMOOTH",
"482 35 OFFCURVE",
"478 33 OFFCURVE",
"475 30 CURVE SMOOTH",
"443 1 OFFCURVE",
"400 -7 OFFCURVE",
"355 -7 CURVE SMOOTH",
"327 -7 OFFCURVE",
"298 -4 OFFCURVE",
"271 0 CURVE",
"349.667 58.667 OFFCURVE",
"411 145 OFFCURVE",
"471 241 CURVE",
"501.667 230.333 OFFCURVE",
"542.667 227 OFFCURVE",
"564 227 CURVE SMOOTH",
"707.813 227 OFFCURVE",
"884 306.598 OFFCURVE",
"884 457 CURVE SMOOTH",
"884 501 OFFCURVE",
"863 544.333 OFFCURVE",
"807 583 CURVE SMOOTH",
"780.333 603 OFFCURVE",
"739 616.667 OFFCURVE",
"703 626 CURVE",
"709.854 639.708 OFFCURVE",
"745.289 672.373 OFFCURVE",
"773 689 CURVE SMOOTH",
"789 697 OFFCURVE",
"813 705 OFFCURVE",
"834 705 CURVE SMOOTH",
"845 705 OFFCURVE",
"855 703 OFFCURVE",
"863 698 CURVE SMOOTH",
"870 693 OFFCURVE",
"877 696 OFFCURVE",
"877 701 CURVE SMOOTH",
"877 704 OFFCURVE",
"875 707 OFFCURVE",
"872 711 CURVE SMOOTH",
"864.667 720.333 OFFCURVE",
"852.333 725 OFFCURVE",
"835 725 CURVE SMOOTH",
"814.333 725 OFFCURVE",
"795.667 721.667 OFFCURVE",
"779 715 CURVE SMOOTH",
"727.081 693.139 OFFCURVE",
"708.433 663.361 OFFCURVE",
"672 633 CURVE",
"614.667 646.333 OFFCURVE",
"548.333 652 OFFCURVE",
"483 652 CURVE SMOOTH",
"337.667 652 OFFCURVE",
"226.667 612.167 OFFCURVE",
"152 559.5 CURVE SMOOTH",
"114.667 533.167 OFFCURVE",
"87 504.5 OFFCURVE",
"69 473.5 CURVE SMOOTH",
"53 446 OFFCURVE",
"45 420 OFFCURVE",
"45 397 CURVE SMOOTH",
"45 367 OFFCURVE",
"58 341 OFFCURVE",
"84 321.5 CURVE SMOOTH",
"107.333 303.833 OFFCURVE",
"142 295 OFFCURVE",
"188 295 CURVE SMOOTH",
"225.333 295 OFFCURVE",
"274 306.833 OFFCURVE",
"326 339.5 CURVE SMOOTH",
"378 372.167 OFFCURVE",
"434.667 427.333 OFFCURVE",
"492 514 CURVE SMOOTH",
"494 518 OFFCURVE",
"495 522 OFFCURVE",
"495 525 CURVE SMOOTH",
"495 529 OFFCURVE",
"494 532 OFFCURVE",
"492 532 CURVE SMOOTH",
"490 532 OFFCURVE",
"488 530 OFFCURVE",
"485 526 CURVE SMOOTH",
"422.577 418.633 OFFCURVE",
"286.686 318 OFFCURVE",
"186 318 CURVE SMOOTH",
"116 318 OFFCURVE",
"85 345 OFFCURVE",
"85 382 CURVE SMOOTH",
"85 410 OFFCURVE",
"100 440 OFFCURVE",
"128.5 473.5 CURVE SMOOTH",
"174.5 527.5 OFFCURVE",
"248.333 575.333 OFFCURVE",
"347 606 CURVE SMOOTH",
"396.333 621.333 OFFCURVE",
"449.667 629 OFFCURVE",
"507 629 CURVE SMOOTH",
"555 629 OFFCURVE",
"608.667 626 OFFCURVE",
"654 618 CURVE",
"552.772 502.968 OFFCURVE",
"494.327 401.173 OFFCURVE",
"445 308 CURVE SMOOTH",
"397.933 216.108 OFFCURVE",
"301.044 60.564 OFFCURVE",
"244 6 CURVE",
"176.888 12.101 OFFCURVE",
"118.791 26 OFFCURVE",
"48 26 CURVE SMOOTH",
"28 26 OFFCURVE",
"15.333 23.333 OFFCURVE",
"10 18 CURVE SMOOTH",
"4.667 12.667 OFFCURVE",
"2 7.333 OFFCURVE",
"2 2 CURVE SMOOTH",
"2 -26 OFFCURVE",
"53 -36 OFFCURVE",
"110 -36 CURVE SMOOTH"
);
},
{
closed = 1;
nodes = (
"541.333 246 OFFCURVE",
"507.667 250 OFFCURVE",
"481 258 CURVE",
"490 274 LINE SMOOTH",
"517.677 320.497 OFFCURVE",
"563.458 400.577 OFFCURVE",
"591 448.5 CURVE SMOOTH",
"624.333 506.5 OFFCURVE",
"657.667 562.333 OFFCURVE",
"691 609 CURVE",
"728.333 599.667 OFFCURVE",
"766 582.667 OFFCURVE",
"790 564 CURVE SMOOTH",
"823.333 537.333 OFFCURVE",
"834 505.667 OFFCURVE",
"834 463 CURVE SMOOTH",
"834 338.706 OFFCURVE",
"675.622 246 OFFCURVE",
"556 246 CURVE SMOOTH"
);
}
);
width = 769;
}
);
note = P;
},
{
color = 1;
glyphname = Thorn.ss01;
lastChange = "2021-07-26 16:58:15 +0000";
layers = (
{
layerId = "1C8B4FDB-B0E8-4411-8E26-068C67144FEF";
paths = (
{
closed = 1;
nodes = (
"92 -33 OFFCURVE",
"101 -27 OFFCURVE",
"105 -15 CURVE SMOOTH",
"178 168 LINE",
"195 162 OFFCURVE",
"212 159 OFFCURVE",
"230 159 CURVE SMOOTH",
"264 159 OFFCURVE",
"299 169 OFFCURVE",
"331.5 185.5 CURVE SMOOTH",
"356.5 197.833 OFFCURVE",
"380 213.667 OFFCURVE",
"402 233 CURVE SMOOTH",
"446 271.667 OFFCURVE",
"481.167 316 OFFCURVE",
"500.5 360 CURVE SMOOTH",
"510.167 382 OFFCURVE",
"515 402.333 OFFCURVE",
"515 421 CURVE SMOOTH",
"515 475.667 OFFCURVE",
"487 520 OFFCURVE",
"415 520 CURVE SMOOTH",
"388.333 520 OFFCURVE",
"361.667 515.333 OFFCURVE",
"319 506 CURVE",
"344 562.5 LINE",
"361 601 LINE",
"362.333 602.333 OFFCURVE",
"363 604.333 OFFCURVE",
"363 607 CURVE SMOOTH",
"361.154 619.925 OFFCURVE",
"336.124 649 OFFCURVE",
"327 649 CURVE",
"325 647.667 OFFCURVE",
"324 646.667 OFFCURVE",
"324 646 CURVE",
"311.333 620 OFFCURVE",
"299.167 593.833 OFFCURVE",
"287.5 567.5 CURVE SMOOTH",
"253 490 LINE",
"221 482 OFFCURVE",
"188.667 475.667 OFFCURVE",
"158 473 CURVE",
"156 468 OFFCURVE",
"154 463 OFFCURVE",
"154 458 CURVE SMOOTH",
"154 443 OFFCURVE",
"169 434 OFFCURVE",
"195 434 CURVE SMOOTH",
"200 434 OFFCURVE",
"205 434 OFFCURVE",
"210 435 CURVE SMOOTH",
"215.333 435 OFFCURVE",
"223.333 435.667 OFFCURVE",
"230 437 CURVE",
"186 330.333 OFFCURVE",
"148.833 228.167 OFFCURVE",
"121.5 147.5 CURVE SMOOTH",
"94.167 66.833 OFFCURVE",
"78 5.333 OFFCURVE",
"74 -20 CURVE SMOOTH",
"73 -28 OFFCURVE",
"78 -33 OFFCURVE",
"84 -33 CURVE SMOOTH"
);
},
{
closed = 1;
nodes = (
"224.667 283 OFFCURVE",
"262.333 375.667 OFFCURVE",
"297 453 CURVE",
"335.667 462.333 OFFCURVE",
"384.333 472 OFFCURVE",
"419 472 CURVE SMOOTH",
"467 472 OFFCURVE",
"489 457 OFFCURVE",
"489 433 CURVE SMOOTH",
"489 378.899 OFFCURVE",
"437.243 318.595 OFFCURVE",
"382 278.5 CURVE SMOOTH",
"340.667 248.5 OFFCURVE",
"296.167 225.5 OFFCURVE",
"251.5 211.5 CURVE SMOOTH",
"229.167 204.5 OFFCURVE",
"208.667 200.333 OFFCURVE",
"190 199 CURVE"
);
}
);
userData = {
assembly = "PUSHW[ ]	/* 4 values pushed */\01232 6 16 4 \012CALL[ ]	/* CallFunction */\012NPUSHW[ ]	/* 33 values pushed */\0126 32 22 32 38 32 54 32 70 32 86 32 102 32 118 32 134 32 150 32 166 32 182 32 198 32 214 32 230 32 246 32 16 \012DELTAP1[ ]	/* DeltaExceptionP1 */\012NPUSHW[ ]	/* 31 values pushed */\0126 32 22 32 38 32 54 32 70 32 86 32 102 32 118 32 134 32 150 32 166 32 182 32 198 32 214 32 230 32 15 \012DELTAP2[ ]	/* DeltaExceptionP2 */\012NPUSHW[ ]	/* 3 values pushed */\012245 32 1 \012DELTAP2[ ]	/* DeltaExceptionP2 */\012NPUSHW[ ]	/* 3 values pushed */\0125 32 1 \012DELTAP3[ ]	/* DeltaExceptionP3 */\012PUSHW[ ]	/* 3 values pushed */\01258 16 32 \012SRP1[ ]	/* SetRefPoint1 */\012SRP2[ ]	/* SetRefPoint2 */\012IP[ ]	/* InterpolatePts */\012IUP[0]	/* InterpolateUntPts */\012IUP[1]	/* InterpolateUntPts */";
};
width = 412;
}
);
note = Thorn;
},
{
color = 1;
glyphname = Q.ss01;
lastChange = "2021-07-26 16:58:15 +0000";
layers = (
{
layerId = "1C8B4FDB-B0E8-4411-8E26-068C67144FEF";
paths = (
{
closed = 1;
nodes = (
"321 -53 OFFCURVE",
"379 -34 OFFCURVE",
"429 -2 CURVE SMOOTH",
"506.333 50 OFFCURVE",
"567.5 122.5 OFFCURVE",
"605.5 200.5 CURVE SMOOTH",
"637 265 OFFCURVE",
"655 335 OFFCURVE",
"655 400 CURVE SMOOTH",
"655 413 OFFCURVE",
"654 426 OFFCURVE",
"652.5 438.5 CURVE SMOOTH",
"643.833 513.833 OFFCURVE",
"609.833 579.5 OFFCURVE",
"546.5 621.5 CURVE SMOOTH",
"501 651 OFFCURVE",
"441 669 OFFCURVE",
"365 669 CURVE SMOOTH",
"335 669 OFFCURVE",
"301 666 OFFCURVE",
"265 660 CURVE SMOOTH",
"154 641 OFFCURVE",
"71 558 OFFCURVE",
"71 462 CURVE SMOOTH",
"71 435 OFFCURVE",
"77 407 OFFCURVE",
"91 380 CURVE SMOOTH",
"95 371 OFFCURVE",
"101 367 OFFCURVE",
"105 367 CURVE SMOOTH",
"109 367 OFFCURVE",
"112 371 OFFCURVE",
"112 378 CURVE SMOOTH",
"112 380 OFFCURVE",
"112 382 OFFCURVE",
"111 385 CURVE SMOOTH",
"105 409 OFFCURVE",
"102 433 OFFCURVE",
"102 455 CURVE SMOOTH",
"102 554 OFFCURVE",
"161 626 OFFCURVE",
"269 641 CURVE SMOOTH",
"288 643 OFFCURVE",
"307 645 OFFCURVE",
"325 645 CURVE SMOOTH",
"422 645 OFFCURVE",
"496 609 OFFCURVE",
"543.5 553.5 CURVE SMOOTH",
"571.833 520.5 OFFCURVE",
"591.167 481.667 OFFCURVE",
"601.5 437 CURVE SMOOTH",
"607 414 OFFCURVE",
"610 389 OFFCURVE",
"610 365 CURVE SMOOTH",
"610 296 OFFCURVE",
"588 224 OFFCURVE",
"546 154 CURVE SMOOTH",
"517.333 106.667 OFFCURVE",
"478 64.333 OFFCURVE",
"428 27 CURVE SMOOTH",
"374 -14 OFFCURVE",
"317 -37 OFFCURVE",
"266 -37 CURVE SMOOTH",
"207 -37 OFFCURVE",
"158 -5 OFFCURVE",
"137 69 CURVE SMOOTH",
"131 88 OFFCURVE",
"129 109 OFFCURVE",
"129 131 CURVE SMOOTH",
"129 179 OFFCURVE",
"142 231 OFFCURVE",
"162.5 281.5 CURVE SMOOTH",
"177.5 317.833 OFFCURVE",
"196.5 352.5 OFFCURVE",
"219.5 385.5 CURVE SMOOTH",
"265.5 451.5 OFFCURVE",
"317.833 500.333 OFFCURVE",
"370.5 523 CURVE SMOOTH",
"387 530 OFFCURVE",
"403 534 OFFCURVE",
"418 534 CURVE SMOOTH",
"426 534 OFFCURVE",
"435 532 OFFCURVE",
"443 530 CURVE SMOOTH",
"450 528 OFFCURVE",
"456 531 OFFCURVE",
"456 535 CURVE SMOOTH",
"456 537 OFFCURVE",
"454 540 OFFCURVE",
"450 542 CURVE SMOOTH",
"430 553 OFFCURVE",
"409 558 OFFCURVE",
"388 558 CURVE SMOOTH",
"347 558 OFFCURVE",
"304 541 OFFCURVE",
"263.5 511 CURVE SMOOTH",
"232.5 488.333 OFFCURVE",
"203.667 459.333 OFFCURVE",
"177 424 CURVE SMOOTH",
"119 347 OFFCURVE",
"81 255 OFFCURVE",
"81 160 CURVE SMOOTH",
"81 125 OFFCURVE",
"87 91 OFFCURVE",
"100 59 CURVE SMOOTH",
"131 -20 OFFCURVE",
"196 -53 OFFCURVE",
"268 -53 CURVE SMOOTH"
);
},
{
closed = 1;
nodes = (
"678.275 -339 OFFCURVE",
"718 -295.813 OFFCURVE",
"718 -244 CURVE SMOOTH",
"718 -175.051 OFFCURVE",
"646.392 -106.545 OFFCURVE",
"547 -92 CURVE SMOOTH",
"540 -91 OFFCURVE",
"536 -94 OFFCURVE",
"536 -97 CURVE SMOOTH",
"536 -101 OFFCURVE",
"541 -107 OFFCURVE",
"550 -108 CURVE SMOOTH",
"637 -123 OFFCURVE",
"691 -198 OFFCURVE",
"691 -249 CURVE SMOOTH",
"691 -277 OFFCURVE",
"675 -298 OFFCURVE",
"639 -298 CURVE SMOOTH",
"572.333 -298 OFFCURVE",
"496.333 -265.667 OFFCURVE",
"435 -231 CURVE SMOOTH",
"381.485 -201.512 OFFCURVE",
"300.925 -143.507 OFFCURVE",
"255.5 -114.5 CURVE SMOOTH",
"200.167 -79.167 OFFCURVE",
"147.333 -52 OFFCURVE",
"94 -52 CURVE SMOOTH",
"59.342 -52 OFFCURVE",
"25 -85.982 OFFCURVE",
"25 -112 CURVE SMOOTH",
"24 -122 OFFCURVE",
"28 -128 OFFCURVE",
"32 -128 CURVE SMOOTH",
"35 -128 OFFCURVE",
"37 -124 OFFCURVE",
"38 -117 CURVE SMOOTH",
"40.551 -94.038 OFFCURVE",
"71.843 -77 OFFCURVE",
"94 -77 CURVE SMOOTH",
"140.667 -77 OFFCURVE",
"179.333 -107.333 OFFCURVE",
"222 -146 CURVE SMOOTH",
"334.188 -249.98 OFFCURVE",
"448.126 -339 OFFCURVE",
"609 -339 CURVE SMOOTH"
);
}
);
userData = {
assembly = "SVTCA[0]	/* SetFreedomAndProjectionVectorToAxis */\012PUSHW[ ]	/* 4 values pushed */\01269 2 56 4 \012CALL[ ]	/* CallFunction */\012IUP[0]	/* InterpolateUntPts */\012IUP[1]	/* InterpolateUntPts */";
};
width = 639;
}
);
note = Q;
},
